<svg width="192" height="192" viewBox="0 0 192 192" fill="none" xmlns="http://www.w3.org/2000/svg">
<path d="M116.178 126.612C117.949 126.522 119.591 125.782 120.609 124.311C121.626 122.84 121.943 120.779 122.011 118.954C122.046 118.09 121.904 116.983 122.014 116.165C122.199 114.806 124.658 114.743 125.02 116.002C125.273 116.887 125.1 119.554 124.978 120.557C124.541 124.175 122.314 127.146 118.659 127.917C118.669 128.015 118.755 128.01 118.818 128.037C119.208 128.19 119.679 128.276 120.084 128.444C122.985 129.654 124.622 132.335 124.978 135.399C125.098 136.419 125.278 139.052 125.02 139.954C124.671 141.174 122.17 141.164 122.009 139.735C121.872 138.532 122.06 137.09 121.946 135.826C121.638 132.377 119.977 129.449 116.178 129.344V139.859C116.178 139.91 115.983 140.291 115.932 140.357C115.356 141.062 113.417 141.02 113.136 139.986C113.002 132.06 113.109 124.104 113.082 116.168C113.212 114.906 115.412 114.806 115.983 115.675C116.017 115.729 116.178 116.073 116.178 116.099V126.614V126.612Z" fill="black"/>
<path d="M142.541 124.131V114.609C142.541 114.584 142.617 114.187 142.631 114.14C143.009 112.933 145.613 113.016 145.635 114.492L145.644 136.261C145.925 142.121 135.215 142.47 134.607 136.995C134.641 133.479 134.327 129.708 134.534 126.207C134.724 123.018 137.12 121.713 140.109 122.374C141.16 122.606 141.953 123.257 142.539 124.133L142.541 124.131ZM138.159 137.632C139.265 138.71 142.475 138.444 142.536 136.436L142.526 127.156C142.483 124.355 137.891 123.818 137.589 126.712C137.757 129.788 137.337 133.155 137.579 136.197C137.618 136.685 137.806 137.285 138.162 137.632H138.159Z" fill="black"/>
<path d="M23.6865 137.341H30.6029C30.642 137.341 31.0201 137.454 31.0835 137.48C32.1838 137.964 32.0814 140.298 30.7737 140.489L21.0517 140.503C20.1881 140.391 19.688 139.815 19.7856 138.93L27.9657 118.607H20.8639C20.8004 118.607 20.4565 118.459 20.3784 118.412C19.4391 117.832 19.5855 115.726 20.8175 115.521L30.6029 115.507C31.7276 115.619 31.9911 116.463 31.7545 117.463L23.6865 137.341Z" fill="black"/>
<path d="M97.9394 130.332V126.58C97.9394 125.756 97.1612 125.063 96.4025 124.892C95.1363 124.609 93.6725 124.919 93.3651 126.348C93.1602 127.307 93.6335 128.83 92.1941 129.025C90.2863 129.283 90.1448 128.049 90.2423 126.514C90.4717 122.945 93.4749 121.959 96.6025 122.269C99.2812 122.533 100.811 123.994 100.977 126.705C101.182 130.057 100.887 133.682 100.899 137.046C100.55 141.772 92.177 142.079 90.3765 138.483C89.7154 137.163 89.6324 133.562 90.2619 132.243C90.7205 131.281 92.0477 130.332 93.1284 130.332H97.937H97.9394ZM97.9394 132.938H94.1872C94.1019 132.938 93.6749 133.133 93.5773 133.196C93.2236 133.426 93.0211 133.792 92.9772 134.211C92.9016 134.968 92.882 136.741 93.2968 137.363C94.1506 138.647 97.0514 138.598 97.7028 137.137C97.7589 137.007 97.9394 136.485 97.9394 136.38V132.938Z" fill="black"/>
<path d="M154.564 122.223C158.179 122.174 160.621 123.943 160.211 127.812C160.041 129.432 157.372 129.315 157.184 127.939C157.086 127.229 157.279 126.744 156.959 125.992C156.259 124.338 152.929 124.392 152.336 126.143C152.168 126.644 152.156 128.019 152.214 128.566C152.278 129.149 152.707 129.476 153.219 129.669C155.715 130.601 159.965 130.401 160.219 133.836C160.512 137.822 159.719 140.647 155.225 140.881C151.973 141.05 149.301 139.891 149.109 136.322C149.031 134.89 149.345 133.819 151.06 134.123C152.668 134.409 151.983 135.9 152.334 136.941C152.939 138.732 156.391 138.727 157.018 136.968C157.223 136.397 157.284 134.502 157.045 133.967C156.828 133.482 156.408 133.306 155.935 133.155C154.571 132.718 153.078 132.474 151.704 132.052C148.967 131.211 148.967 129.315 149.111 126.763C149.296 123.477 151.492 122.264 154.561 122.223H154.564Z" fill="black"/>
<path d="M35.3968 122.284C36.1677 122.174 37.1167 122.301 37.3192 123.182L37.3412 136.061C37.2485 138.878 42.1668 139.037 42.34 136.3L42.3546 123.411C42.4522 121.828 45.4066 121.823 45.3993 123.472L45.3896 136.741C45.2188 142.052 35.2553 142.267 34.4453 137.28C34.2379 132.633 34.4136 127.949 34.355 123.289C34.4087 122.76 34.8844 122.355 35.3943 122.281L35.3968 122.284Z" fill="black"/>
<path d="M63.621 122.284C64.3919 122.174 65.341 122.301 65.5435 123.182L65.5654 136.061C65.4727 138.878 70.391 139.037 70.5642 136.3L70.5789 123.411C70.6765 121.828 73.6309 121.823 73.6236 123.472L73.6138 136.741C73.443 142.052 63.4795 142.267 62.6696 137.28C62.4622 132.633 62.6378 127.949 62.5793 123.289C62.633 122.76 63.1087 122.355 63.6186 122.281L63.621 122.284Z" fill="black"/>
<path d="M54.5675 122.221C57.1292 122.194 59.6566 123.038 60.1421 125.853C60.2592 126.531 60.3202 128.325 60.208 128.983C59.986 130.286 57.3707 130.376 57.1901 128.866C57.0291 127.512 57.6342 125.736 55.985 125.048C54.3358 124.36 52.1157 125.024 52.1572 127.134V139.849C51.8766 141.172 49.3345 141.135 49.1832 139.791V126.451C49.3735 123.37 51.7668 122.247 54.57 122.221H54.5675Z" fill="black"/>
<path d="M82.7942 122.221C85.3558 122.194 87.8833 123.038 88.3688 125.853C88.4859 126.531 88.5469 128.325 88.4347 128.983C88.2127 130.286 85.5974 130.376 85.4168 128.866C85.2558 127.512 85.8608 125.736 84.2116 125.048C82.5624 124.36 80.3424 125.024 80.3838 127.134V139.849C80.1033 141.172 77.5612 141.135 77.4099 139.791V126.451C77.6002 123.37 79.9935 122.247 82.7967 122.221H82.7942Z" fill="black"/>
<path d="M128.357 122.601C129.021 121.981 130.916 122.14 131.004 123.292V139.793C130.845 141.174 128.174 141.169 128.025 139.793V123.353C128.025 123.101 128.177 122.769 128.357 122.601Z" fill="black"/>
<path d="M128.357 119.951C128.189 119.795 128.05 119.49 128.025 119.261C127.859 117.712 128.128 115.843 128.052 114.265C128.315 112.984 130.811 113.006 130.997 114.367L130.975 119.42C130.716 120.437 129.021 120.573 128.357 119.954V119.951Z" fill="black"/>
<path d="M13.7396 148.997H14.773L15.768 150.877H15.8106L16.8056 148.997H17.839L16.2474 151.818V153.361H15.3312V151.818L13.7396 148.997ZM20.019 153.425C19.6881 153.425 19.4018 153.355 19.1604 153.214C18.9203 153.072 18.7349 152.875 18.6043 152.622C18.4736 152.367 18.4082 152.073 18.4082 151.737C18.4082 151.399 18.4736 151.104 18.6043 150.851C18.7349 150.597 18.9203 150.399 19.1604 150.259C19.4018 150.117 19.6881 150.046 20.019 150.046C20.35 150.046 20.6355 150.117 20.8756 150.259C21.117 150.399 21.3031 150.597 21.4338 150.851C21.5645 151.104 21.6298 151.399 21.6298 151.737C21.6298 152.073 21.5645 152.367 21.4338 152.622C21.3031 152.875 21.117 153.072 20.8756 153.214C20.6355 153.355 20.35 153.425 20.019 153.425ZM20.0233 152.722C20.1739 152.722 20.2996 152.679 20.4004 152.594C20.5013 152.507 20.5773 152.389 20.6284 152.24C20.681 152.091 20.7072 151.921 20.7072 151.731C20.7072 151.541 20.681 151.371 20.6284 151.222C20.5773 151.073 20.5013 150.955 20.4004 150.868C20.2996 150.781 20.1739 150.738 20.0233 150.738C19.8713 150.738 19.7435 150.781 19.6398 150.868C19.5375 150.955 19.4601 151.073 19.4075 151.222C19.3564 151.371 19.3308 151.541 19.3308 151.731C19.3308 151.921 19.3564 152.091 19.4075 152.24C19.4601 152.389 19.5375 152.507 19.6398 152.594C19.7435 152.679 19.8713 152.722 20.0233 152.722ZM25.2187 151.968V150.088H26.1264V153.361H25.255V152.767H25.2209C25.147 152.958 25.0241 153.112 24.8523 153.229C24.6818 153.345 24.4737 153.404 24.228 153.404C24.0092 153.404 23.8168 153.354 23.6506 153.254C23.4844 153.155 23.3544 153.014 23.2606 152.83C23.1683 152.647 23.1214 152.428 23.12 152.172V150.088H24.0277V152.01C24.0291 152.203 24.081 152.356 24.1832 152.468C24.2855 152.58 24.4226 152.637 24.5945 152.637C24.7038 152.637 24.8061 152.612 24.9013 152.562C24.9964 152.511 25.0731 152.436 25.1314 152.336C25.191 152.237 25.2202 152.114 25.2187 151.968ZM27.7524 153.361V150.088H28.6324V150.659H28.6665C28.7262 150.456 28.8263 150.303 28.9669 150.199C29.1076 150.094 29.2695 150.041 29.4527 150.041C29.4982 150.041 29.5472 150.044 29.5997 150.05C29.6523 150.056 29.6985 150.063 29.7382 150.073V150.879C29.6956 150.866 29.6367 150.855 29.5614 150.845C29.4861 150.835 29.4172 150.83 29.3547 150.83C29.2212 150.83 29.1019 150.859 28.9968 150.917C28.8931 150.974 28.8107 151.053 28.7496 151.156C28.6899 151.258 28.6601 151.376 28.6601 151.509V153.361H27.7524ZM36.1192 151.022L35.2882 151.073C35.274 151.002 35.2435 150.938 35.1966 150.881C35.1497 150.823 35.088 150.777 35.0113 150.742C34.936 150.707 34.8458 150.689 34.7407 150.689C34.6 150.689 34.4814 150.719 34.3848 150.779C34.2882 150.837 34.2399 150.915 34.2399 151.013C34.2399 151.091 34.2712 151.157 34.3337 151.211C34.3962 151.265 34.5034 151.308 34.6554 151.341L35.2478 151.46C35.5659 151.526 35.8032 151.631 35.9594 151.776C36.1157 151.921 36.1938 152.111 36.1938 152.347C36.1938 152.561 36.1306 152.75 36.0042 152.911C35.8792 153.073 35.7073 153.2 35.4885 153.291C35.2712 153.38 35.0205 153.425 34.7364 153.425C34.3032 153.425 33.958 153.335 33.7009 153.154C33.4452 152.973 33.2953 152.725 33.2513 152.413L34.1441 152.366C34.1711 152.498 34.2364 152.599 34.3401 152.669C34.4438 152.737 34.5766 152.771 34.7385 152.771C34.8976 152.771 35.0255 152.74 35.122 152.679C35.2201 152.617 35.2698 152.536 35.2712 152.438C35.2698 152.356 35.235 152.289 35.1668 152.236C35.0986 152.182 34.9935 152.141 34.8515 152.112L34.2847 152C33.9651 151.936 33.7272 151.825 33.5709 151.667C33.4161 151.509 33.3387 151.308 33.3387 151.064C33.3387 150.854 33.3955 150.673 33.5091 150.521C33.6242 150.369 33.7854 150.252 33.9928 150.169C34.2016 150.087 34.4459 150.046 34.7257 150.046C35.1391 150.046 35.4644 150.133 35.7016 150.308C35.9402 150.482 36.0794 150.72 36.1192 151.022ZM39.144 153.425C38.8088 153.425 38.5205 153.354 38.279 153.212C38.0389 153.068 37.8543 152.87 37.725 152.615C37.5972 152.361 37.5332 152.068 37.5332 151.737C37.5332 151.402 37.5979 151.108 37.7271 150.855C37.8578 150.601 38.0432 150.403 38.2832 150.261C38.5233 150.117 38.8088 150.046 39.1398 150.046C39.4253 150.046 39.6753 150.098 39.8898 150.201C40.1043 150.305 40.274 150.451 40.399 150.638C40.524 150.826 40.5929 151.046 40.6057 151.299H39.7491C39.725 151.135 39.6611 151.004 39.5574 150.904C39.4551 150.803 39.3209 150.753 39.1547 150.753C39.0141 150.753 38.8912 150.791 38.7861 150.868C38.6824 150.943 38.6014 151.053 38.5432 151.198C38.4849 151.343 38.4558 151.519 38.4558 151.725C38.4558 151.933 38.4842 152.111 38.541 152.257C38.5993 152.404 38.681 152.515 38.7861 152.592C38.8912 152.669 39.0141 152.707 39.1547 152.707C39.2584 152.707 39.3514 152.686 39.4338 152.643C39.5176 152.6 39.5865 152.539 39.6405 152.458C39.6959 152.375 39.7321 152.277 39.7491 152.161H40.6057C40.5915 152.411 40.5233 152.632 40.4011 152.822C40.2804 153.011 40.1135 153.159 39.9004 153.265C39.6874 153.372 39.4352 153.425 39.144 153.425ZM42.9945 151.469V153.361H42.0868V148.997H42.9689V150.666H43.0073C43.0811 150.473 43.2005 150.321 43.3652 150.212C43.53 150.101 43.7367 150.046 43.9853 150.046C44.2125 150.046 44.4107 150.095 44.5797 150.195C44.7502 150.293 44.8823 150.434 44.976 150.619C45.0712 150.802 45.1181 151.022 45.1167 151.277V153.361H44.209V151.439C44.2104 151.237 44.1593 151.08 44.0556 150.968C43.9533 150.856 43.8098 150.8 43.6252 150.8C43.5016 150.8 43.3922 150.826 43.297 150.879C43.2033 150.931 43.1294 151.008 43.0755 151.109C43.0229 151.208 42.9959 151.328 42.9945 151.469ZM48.2097 153.425C47.8787 153.425 47.5925 153.355 47.351 153.214C47.1109 153.072 46.9256 152.875 46.7949 152.622C46.6642 152.367 46.5989 152.073 46.5989 151.737C46.5989 151.399 46.6642 151.104 46.7949 150.851C46.9256 150.597 47.1109 150.399 47.351 150.259C47.5925 150.117 47.8787 150.046 48.2097 150.046C48.5406 150.046 48.8261 150.117 49.0662 150.259C49.3077 150.399 49.4937 150.597 49.6244 150.851C49.7551 151.104 49.8205 151.399 49.8205 151.737C49.8205 152.073 49.7551 152.367 49.6244 152.622C49.4937 152.875 49.3077 153.072 49.0662 153.214C48.8261 153.355 48.5406 153.425 48.2097 153.425ZM48.2139 152.722C48.3645 152.722 48.4902 152.679 48.591 152.594C48.6919 152.507 48.7679 152.389 48.819 152.24C48.8716 152.091 48.8979 151.921 48.8979 151.731C48.8979 151.541 48.8716 151.371 48.819 151.222C48.7679 151.073 48.6919 150.955 48.591 150.868C48.4902 150.781 48.3645 150.738 48.2139 150.738C48.0619 150.738 47.9341 150.781 47.8304 150.868C47.7281 150.955 47.6507 151.073 47.5982 151.222C47.547 151.371 47.5214 151.541 47.5214 151.731C47.5214 151.921 47.547 152.091 47.5982 152.24C47.6507 152.389 47.7281 152.507 47.8304 152.594C47.9341 152.679 48.0619 152.722 48.2139 152.722ZM52.7893 153.425C52.4584 153.425 52.1722 153.355 51.9307 153.214C51.6906 153.072 51.5053 152.875 51.3746 152.622C51.2439 152.367 51.1785 152.073 51.1785 151.737C51.1785 151.399 51.2439 151.104 51.3746 150.851C51.5053 150.597 51.6906 150.399 51.9307 150.259C52.1722 150.117 52.4584 150.046 52.7893 150.046C53.1203 150.046 53.4058 150.117 53.6459 150.259C53.8874 150.399 54.0734 150.597 54.2041 150.851C54.3348 151.104 54.4001 151.399 54.4001 151.737C54.4001 152.073 54.3348 152.367 54.2041 152.622C54.0734 152.875 53.8874 153.072 53.6459 153.214C53.4058 153.355 53.1203 153.425 52.7893 153.425ZM52.7936 152.722C52.9442 152.722 53.0699 152.679 53.1707 152.594C53.2716 152.507 53.3476 152.389 53.3987 152.24C53.4513 152.091 53.4776 151.921 53.4776 151.731C53.4776 151.541 53.4513 151.371 53.3987 151.222C53.3476 151.073 53.2716 150.955 53.1707 150.868C53.0699 150.781 52.9442 150.738 52.7936 150.738C52.6416 150.738 52.5138 150.781 52.4101 150.868C52.3078 150.955 52.2304 151.073 52.1778 151.222C52.1267 151.371 52.1011 151.541 52.1011 151.731C52.1011 151.921 52.1267 152.091 52.1778 152.24C52.2304 152.389 52.3078 152.507 52.4101 152.594C52.5138 152.679 52.6416 152.722 52.7936 152.722ZM56.798 148.997V153.361H55.8903V148.997H56.798ZM58.9556 153.416C58.815 153.416 58.6943 153.367 58.5934 153.267C58.494 153.166 58.4443 153.046 58.4443 152.905C58.4443 152.766 58.494 152.647 58.5934 152.547C58.6943 152.448 58.815 152.398 58.9556 152.398C59.092 152.398 59.2113 152.448 59.3136 152.547C59.4159 152.647 59.467 152.766 59.467 152.905C59.467 152.999 59.4429 153.085 59.3946 153.163C59.3477 153.24 59.2859 153.301 59.2092 153.348C59.1325 153.394 59.048 153.416 58.9556 153.416Z" fill="#47A0DF"/>
<path d="M67.5345 148.997H68.5679L69.5629 150.877H69.6055L70.6006 148.997H71.6339L70.0423 151.818V153.361H69.1261V151.818L67.5345 148.997ZM73.814 153.425C73.483 153.425 73.1968 153.355 72.9553 153.214C72.7152 153.072 72.5299 152.875 72.3992 152.622C72.2685 152.367 72.2032 152.073 72.2032 151.737C72.2032 151.399 72.2685 151.104 72.3992 150.851C72.5299 150.597 72.7152 150.399 72.9553 150.259C73.1968 150.117 73.483 150.046 73.814 150.046C74.1449 150.046 74.4304 150.117 74.6705 150.259C74.912 150.399 75.098 150.597 75.2287 150.851C75.3594 151.104 75.4248 151.399 75.4248 151.737C75.4248 152.073 75.3594 152.367 75.2287 152.622C75.098 152.875 74.912 153.072 74.6705 153.214C74.4304 153.355 74.1449 153.425 73.814 153.425ZM73.8182 152.722C73.9688 152.722 74.0945 152.679 74.1953 152.594C74.2962 152.507 74.3722 152.389 74.4233 152.24C74.4759 152.091 74.5022 151.921 74.5022 151.731C74.5022 151.541 74.4759 151.371 74.4233 151.222C74.3722 151.073 74.2962 150.955 74.1953 150.868C74.0945 150.781 73.9688 150.738 73.8182 150.738C73.6662 150.738 73.5384 150.781 73.4347 150.868C73.3324 150.955 73.255 151.073 73.2024 151.222C73.1513 151.371 73.1257 151.541 73.1257 151.731C73.1257 151.921 73.1513 152.091 73.2024 152.24C73.255 152.389 73.3324 152.507 73.4347 152.594C73.5384 152.679 73.6662 152.722 73.8182 152.722ZM79.0137 151.968V150.088H79.9213V153.361H79.0499V152.767H79.0158C78.9419 152.958 78.8191 153.112 78.6472 153.229C78.4767 153.345 78.2686 153.404 78.0229 153.404C77.8042 153.404 77.6117 153.354 77.4455 153.254C77.2793 153.155 77.1493 153.014 77.0556 152.83C76.9632 152.647 76.9164 152.428 76.915 152.172V150.088H77.8226V152.01C77.824 152.203 77.8759 152.356 77.9782 152.468C78.0804 152.58 78.2175 152.637 78.3894 152.637C78.4988 152.637 78.601 152.612 78.6962 152.562C78.7914 152.511 78.8681 152.436 78.9263 152.336C78.986 152.237 79.0151 152.114 79.0137 151.968ZM81.5474 153.361V150.088H82.4273V150.659H82.4614C82.5211 150.456 82.6212 150.303 82.7619 150.199C82.9025 150.094 83.0644 150.041 83.2477 150.041C83.2931 150.041 83.3421 150.044 83.3947 150.05C83.4472 150.056 83.4934 150.063 83.5332 150.073V150.879C83.4905 150.866 83.4316 150.855 83.3563 150.845C83.281 150.835 83.2121 150.83 83.1496 150.83C83.0161 150.83 82.8968 150.859 82.7917 150.917C82.688 150.974 82.6056 151.053 82.5445 151.156C82.4849 151.258 82.455 151.376 82.455 151.509V153.361H81.5474ZM88.6698 153.425C88.3346 153.425 88.0462 153.354 87.8048 153.212C87.5647 153.068 87.38 152.87 87.2508 152.615C87.1229 152.361 87.059 152.068 87.059 151.737C87.059 151.402 87.1236 151.108 87.2529 150.855C87.3836 150.601 87.569 150.403 87.809 150.261C88.0491 150.117 88.3346 150.046 88.6656 150.046C88.9511 150.046 89.2011 150.098 89.4156 150.201C89.63 150.305 89.7998 150.451 89.9248 150.638C90.0498 150.826 90.1187 151.046 90.1315 151.299H89.2749C89.2508 151.135 89.1869 151.004 89.0832 150.904C88.9809 150.803 88.8467 150.753 88.6805 150.753C88.5398 150.753 88.417 150.791 88.3119 150.868C88.2082 150.943 88.1272 151.053 88.069 151.198C88.0107 151.343 87.9816 151.519 87.9816 151.725C87.9816 151.933 88.01 152.111 88.0668 152.257C88.1251 152.404 88.2067 152.515 88.3119 152.592C88.417 152.669 88.5398 152.707 88.6805 152.707C88.7842 152.707 88.8772 152.686 88.9596 152.643C89.0434 152.6 89.1123 152.539 89.1663 152.458C89.2217 152.375 89.2579 152.277 89.2749 152.161H90.1315C90.1173 152.411 90.0491 152.632 89.9269 152.822C89.8062 153.011 89.6393 153.159 89.4262 153.265C89.2131 153.372 88.961 153.425 88.6698 153.425ZM92.5203 151.469V153.361H91.6126V148.997H92.4947V150.666H92.5331C92.6069 150.473 92.7262 150.321 92.891 150.212C93.0558 150.101 93.2625 150.046 93.511 150.046C93.7383 150.046 93.9365 150.095 94.1055 150.195C94.276 150.293 94.4081 150.434 94.5018 150.619C94.597 150.802 94.6439 151.022 94.6424 151.277V153.361H93.7348V151.439C93.7362 151.237 93.685 151.08 93.5814 150.968C93.4791 150.856 93.3356 150.8 93.151 150.8C93.0274 150.8 92.918 150.826 92.8228 150.879C92.7291 150.931 92.6552 151.008 92.6012 151.109C92.5487 151.208 92.5217 151.328 92.5203 151.469ZM96.2567 153.361V150.088H97.1644V153.361H96.2567ZM96.7127 149.666C96.5778 149.666 96.462 149.622 96.3654 149.532C96.2702 149.441 96.2227 149.333 96.2227 149.206C96.2227 149.081 96.2702 148.974 96.3654 148.884C96.462 148.794 96.5778 148.748 96.7127 148.748C96.8477 148.748 96.9627 148.794 97.0579 148.884C97.1545 148.974 97.2028 149.081 97.2028 149.206C97.2028 149.333 97.1545 149.441 97.0579 149.532C96.9627 149.622 96.8477 149.666 96.7127 149.666ZM99.6992 148.997V153.361H98.7915V148.997H99.6992ZM102.532 153.414C102.284 153.414 102.059 153.35 101.857 153.223C101.657 153.093 101.497 152.904 101.38 152.654C101.263 152.402 101.205 152.094 101.205 151.729C101.205 151.354 101.265 151.042 101.386 150.794C101.507 150.544 101.667 150.357 101.867 150.233C102.069 150.108 102.29 150.046 102.53 150.046C102.713 150.046 102.866 150.077 102.988 150.139C103.112 150.201 103.211 150.277 103.287 150.37C103.363 150.46 103.421 150.55 103.461 150.638H103.489V148.997H104.394V153.361H103.5V152.837H103.461C103.419 152.928 103.358 153.018 103.28 153.107C103.203 153.196 103.103 153.269 102.98 153.327C102.858 153.385 102.708 153.414 102.532 153.414ZM102.82 152.692C102.966 152.692 103.09 152.652 103.191 152.573C103.293 152.492 103.371 152.379 103.425 152.234C103.48 152.089 103.508 151.919 103.508 151.725C103.508 151.53 103.481 151.361 103.427 151.218C103.373 151.074 103.295 150.963 103.193 150.885C103.09 150.807 102.966 150.768 102.82 150.768C102.671 150.768 102.545 150.808 102.443 150.889C102.34 150.97 102.263 151.083 102.211 151.226C102.158 151.37 102.132 151.536 102.132 151.725C102.132 151.915 102.158 152.083 102.211 152.23C102.264 152.375 102.342 152.488 102.443 152.571C102.545 152.652 102.671 152.692 102.82 152.692ZM106.041 153.361V150.088H106.921V150.659H106.955C107.014 150.456 107.115 150.303 107.255 150.199C107.396 150.094 107.558 150.041 107.741 150.041C107.786 150.041 107.835 150.044 107.888 150.05C107.941 150.056 107.987 150.063 108.027 150.073V150.879C107.984 150.866 107.925 150.855 107.85 150.845C107.774 150.835 107.706 150.83 107.643 150.83C107.509 150.83 107.39 150.859 107.285 150.917C107.181 150.974 107.099 151.053 107.038 151.156C106.978 151.258 106.948 151.376 106.948 151.509V153.361H106.041ZM110.735 153.425C110.398 153.425 110.109 153.357 109.866 153.22C109.624 153.083 109.438 152.888 109.307 152.637C109.177 152.384 109.111 152.085 109.111 151.74C109.111 151.403 109.177 151.107 109.307 150.853C109.438 150.599 109.622 150.401 109.859 150.259C110.098 150.117 110.378 150.046 110.699 150.046C110.915 150.046 111.116 150.08 111.302 150.15C111.489 150.218 111.653 150.321 111.792 150.459C111.932 150.597 112.042 150.77 112.12 150.979C112.198 151.186 112.237 151.429 112.237 151.708V151.957H109.474V151.394H111.383C111.383 151.264 111.354 151.148 111.297 151.047C111.241 150.946 111.162 150.867 111.061 150.811C110.962 150.752 110.846 150.723 110.714 150.723C110.576 150.723 110.454 150.755 110.347 150.819C110.242 150.882 110.16 150.966 110.1 151.073C110.04 151.178 110.01 151.295 110.008 151.424V151.959C110.008 152.121 110.038 152.261 110.098 152.379C110.159 152.497 110.245 152.588 110.356 152.652C110.466 152.715 110.598 152.747 110.75 152.747C110.851 152.747 110.943 152.733 111.027 152.705C111.111 152.676 111.182 152.634 111.242 152.577C111.302 152.52 111.347 152.451 111.378 152.368L112.218 152.424C112.175 152.625 112.088 152.801 111.956 152.952C111.825 153.101 111.656 153.218 111.449 153.301C111.243 153.384 111.005 153.425 110.735 153.425ZM114.637 151.469V153.361H113.729V150.088H114.594V150.666H114.633C114.705 150.475 114.827 150.325 114.997 150.214C115.168 150.102 115.374 150.046 115.617 150.046C115.844 150.046 116.043 150.095 116.212 150.195C116.381 150.294 116.512 150.436 116.606 150.621C116.7 150.804 116.746 151.023 116.746 151.277V153.361H115.839V151.439C115.84 151.239 115.789 151.083 115.685 150.97C115.582 150.857 115.439 150.8 115.257 150.8C115.135 150.8 115.027 150.826 114.933 150.879C114.841 150.931 114.768 151.008 114.716 151.109C114.665 151.208 114.638 151.328 114.637 151.469ZM118.892 153.416C118.752 153.416 118.631 153.367 118.53 153.267C118.431 153.166 118.381 153.046 118.381 152.905C118.381 152.766 118.431 152.647 118.53 152.547C118.631 152.448 118.752 152.398 118.892 152.398C119.029 152.398 119.148 152.448 119.25 152.547C119.353 152.647 119.404 152.766 119.404 152.905C119.404 152.999 119.38 153.085 119.331 153.163C119.284 153.24 119.223 153.301 119.146 153.348C119.069 153.394 118.985 153.416 118.892 153.416Z" fill="#99CC62"/>
<path d="M131.737 151.179C131.737 151.655 131.647 152.06 131.466 152.394C131.287 152.728 131.043 152.982 130.733 153.159C130.425 153.333 130.078 153.421 129.694 153.421C129.306 153.421 128.958 153.333 128.65 153.156C128.341 152.98 128.098 152.725 127.919 152.392C127.74 152.058 127.65 151.654 127.65 151.179C127.65 150.703 127.74 150.299 127.919 149.965C128.098 149.631 128.341 149.377 128.65 149.202C128.958 149.026 129.306 148.938 129.694 148.938C130.078 148.938 130.425 149.026 130.733 149.202C131.043 149.377 131.287 149.631 131.466 149.965C131.647 150.299 131.737 150.703 131.737 151.179ZM130.801 151.179C130.801 150.871 130.755 150.611 130.663 150.399C130.572 150.188 130.444 150.027 130.277 149.918C130.111 149.808 129.917 149.754 129.694 149.754C129.471 149.754 129.276 149.808 129.11 149.918C128.944 150.027 128.814 150.188 128.722 150.399C128.631 150.611 128.586 150.871 128.586 151.179C128.586 151.487 128.631 151.747 128.722 151.959C128.814 152.171 128.944 152.331 129.11 152.441C129.276 152.55 129.471 152.605 129.694 152.605C129.917 152.605 130.111 152.55 130.277 152.441C130.444 152.331 130.572 152.171 130.663 151.959C130.755 151.747 130.801 151.487 130.801 151.179ZM134.211 151.469V153.361H133.303V150.088H134.168V150.666H134.207C134.279 150.475 134.401 150.325 134.571 150.214C134.741 150.102 134.948 150.046 135.191 150.046C135.418 150.046 135.616 150.095 135.785 150.195C135.955 150.294 136.086 150.436 136.18 150.621C136.273 150.804 136.32 151.023 136.32 151.277V153.361H135.413V151.439C135.414 151.239 135.363 151.083 135.259 150.97C135.155 150.857 135.013 150.8 134.831 150.8C134.709 150.8 134.601 150.826 134.507 150.879C134.415 150.931 134.342 151.008 134.29 151.109C134.239 151.208 134.212 151.328 134.211 151.469ZM139.427 153.425C139.09 153.425 138.801 153.357 138.558 153.22C138.316 153.083 138.13 152.888 138 152.637C137.869 152.384 137.804 152.085 137.804 151.74C137.804 151.403 137.869 151.107 138 150.853C138.13 150.599 138.314 150.401 138.551 150.259C138.79 150.117 139.07 150.046 139.391 150.046C139.607 150.046 139.808 150.08 139.994 150.15C140.181 150.218 140.345 150.321 140.484 150.459C140.625 150.597 140.734 150.77 140.812 150.979C140.89 151.186 140.929 151.429 140.929 151.708V151.957H138.166V151.394H140.075C140.075 151.264 140.046 151.148 139.99 151.047C139.933 150.946 139.854 150.867 139.753 150.811C139.654 150.752 139.538 150.723 139.406 150.723C139.268 150.723 139.146 150.755 139.039 150.819C138.934 150.882 138.852 150.966 138.792 151.073C138.733 151.178 138.702 151.295 138.701 151.424V151.959C138.701 152.121 138.73 152.261 138.79 152.379C138.851 152.497 138.937 152.588 139.048 152.652C139.159 152.715 139.29 152.747 139.442 152.747C139.543 152.747 139.635 152.733 139.719 152.705C139.803 152.676 139.875 152.634 139.934 152.577C139.994 152.52 140.039 152.451 140.071 152.368L140.91 152.424C140.867 152.625 140.78 152.801 140.648 152.952C140.517 153.101 140.348 153.218 140.141 153.301C139.935 153.384 139.697 153.425 139.427 153.425ZM144.71 154.588V150.088H145.605V150.638H145.646C145.685 150.55 145.743 150.46 145.818 150.37C145.895 150.277 145.994 150.201 146.117 150.139C146.24 150.077 146.393 150.046 146.577 150.046C146.815 150.046 147.036 150.108 147.237 150.233C147.439 150.357 147.6 150.544 147.721 150.794C147.842 151.042 147.902 151.354 147.902 151.729C147.902 152.094 147.843 152.402 147.725 152.654C147.609 152.904 147.45 153.093 147.248 153.223C147.048 153.35 146.823 153.414 146.575 153.414C146.398 153.414 146.249 153.385 146.125 153.327C146.003 153.269 145.903 153.196 145.825 153.107C145.746 153.018 145.687 152.928 145.646 152.837H145.618V154.588H144.71ZM145.599 151.725C145.599 151.919 145.626 152.089 145.68 152.234C145.734 152.379 145.812 152.492 145.914 152.573C146.016 152.652 146.141 152.692 146.287 152.692C146.435 152.692 146.56 152.652 146.662 152.571C146.764 152.488 146.842 152.375 146.894 152.23C146.948 152.083 146.975 151.915 146.975 151.725C146.975 151.536 146.949 151.37 146.896 151.226C146.844 151.083 146.766 150.97 146.664 150.889C146.562 150.808 146.436 150.768 146.287 150.768C146.139 150.768 146.014 150.807 145.912 150.885C145.811 150.963 145.734 151.074 145.68 151.218C145.626 151.361 145.599 151.53 145.599 151.725ZM150.315 148.997V153.361H149.407V148.997H150.315ZM152.875 153.423C152.666 153.423 152.48 153.387 152.317 153.314C152.154 153.24 152.024 153.132 151.929 152.988C151.835 152.843 151.788 152.663 151.788 152.447C151.788 152.265 151.822 152.112 151.889 151.989C151.955 151.865 152.046 151.766 152.161 151.691C152.276 151.615 152.407 151.558 152.553 151.52C152.701 151.482 152.856 151.455 153.018 151.439C153.208 151.419 153.362 151.401 153.478 151.384C153.595 151.365 153.679 151.338 153.732 151.303C153.784 151.267 153.811 151.215 153.811 151.145V151.132C153.811 150.997 153.768 150.893 153.683 150.819C153.599 150.745 153.48 150.708 153.325 150.708C153.161 150.708 153.031 150.745 152.935 150.817C152.838 150.888 152.774 150.978 152.743 151.085L151.904 151.017C151.946 150.818 152.03 150.647 152.155 150.502C152.28 150.355 152.441 150.243 152.639 150.165C152.837 150.085 153.068 150.046 153.329 150.046C153.511 150.046 153.685 150.067 153.851 150.11C154.019 150.152 154.167 150.218 154.296 150.308C154.427 150.397 154.53 150.512 154.605 150.653C154.681 150.792 154.718 150.959 154.718 151.154V153.361H153.857V152.907H153.832C153.779 153.009 153.709 153.1 153.621 153.178C153.533 153.254 153.427 153.315 153.303 153.359C153.18 153.402 153.037 153.423 152.875 153.423ZM153.135 152.796C153.269 152.796 153.386 152.77 153.489 152.718C153.591 152.664 153.671 152.591 153.73 152.5C153.788 152.409 153.817 152.306 153.817 152.191V151.844C153.788 151.862 153.749 151.879 153.7 151.895C153.651 151.909 153.597 151.923 153.536 151.936C153.475 151.947 153.413 151.958 153.352 151.968C153.291 151.976 153.236 151.984 153.186 151.991C153.08 152.007 152.987 152.031 152.907 152.066C152.828 152.1 152.766 152.146 152.722 152.204C152.678 152.261 152.656 152.332 152.656 152.417C152.656 152.541 152.7 152.635 152.79 152.701C152.881 152.764 152.996 152.796 153.135 152.796ZM158.063 150.088V150.77H156.092V150.088H158.063ZM156.54 149.304H157.447V152.355C157.447 152.439 157.46 152.504 157.486 152.551C157.511 152.597 157.547 152.629 157.592 152.647C157.639 152.666 157.693 152.675 157.754 152.675C157.797 152.675 157.839 152.671 157.882 152.664C157.925 152.656 157.957 152.649 157.98 152.645L158.123 153.321C158.077 153.335 158.013 153.351 157.931 153.37C157.849 153.389 157.749 153.402 157.631 153.406C157.412 153.414 157.22 153.385 157.055 153.318C156.892 153.252 156.765 153.148 156.674 153.007C156.583 152.867 156.538 152.689 156.54 152.475V149.304ZM161.314 150.088V150.77H159.294V150.088H161.314ZM159.757 153.361V149.852C159.757 149.615 159.803 149.418 159.895 149.262C159.989 149.105 160.117 148.988 160.279 148.91C160.441 148.832 160.625 148.793 160.831 148.793C160.97 148.793 161.097 148.803 161.212 148.825C161.329 148.846 161.415 148.865 161.472 148.882L161.31 149.564C161.275 149.553 161.231 149.542 161.178 149.532C161.127 149.522 161.074 149.517 161.02 149.517C160.887 149.517 160.794 149.549 160.741 149.611C160.689 149.672 160.662 149.758 160.662 149.869V153.361H159.757ZM164.13 153.425C163.799 153.425 163.513 153.355 163.272 153.214C163.032 153.072 162.846 152.875 162.716 152.622C162.585 152.367 162.52 152.073 162.52 151.737C162.52 151.399 162.585 151.104 162.716 150.851C162.846 150.597 163.032 150.399 163.272 150.259C163.513 150.117 163.799 150.046 164.13 150.046C164.461 150.046 164.747 150.117 164.987 150.259C165.228 150.399 165.414 150.597 165.545 150.851C165.676 151.104 165.741 151.399 165.741 151.737C165.741 152.073 165.676 152.367 165.545 152.622C165.414 152.875 165.228 153.072 164.987 153.214C164.747 153.355 164.461 153.425 164.13 153.425ZM164.135 152.722C164.285 152.722 164.411 152.679 164.512 152.594C164.613 152.507 164.689 152.389 164.74 152.24C164.792 152.091 164.819 151.921 164.819 151.731C164.819 151.541 164.792 151.371 164.74 151.222C164.689 151.073 164.613 150.955 164.512 150.868C164.411 150.781 164.285 150.738 164.135 150.738C163.983 150.738 163.855 150.781 163.751 150.868C163.649 150.955 163.571 151.073 163.519 151.222C163.468 151.371 163.442 151.541 163.442 151.731C163.442 151.921 163.468 152.091 163.519 152.24C163.571 152.389 163.649 152.507 163.751 152.594C163.855 152.679 163.983 152.722 164.135 152.722ZM167.231 153.361V150.088H168.111V150.659H168.145C168.205 150.456 168.305 150.303 168.446 150.199C168.586 150.094 168.748 150.041 168.932 150.041C168.977 150.041 169.026 150.044 169.079 150.05C169.131 150.056 169.177 150.063 169.217 150.073V150.879C169.175 150.866 169.116 150.855 169.04 150.845C168.965 150.835 168.896 150.83 168.834 150.83C168.7 150.83 168.581 150.859 168.476 150.917C168.372 150.974 168.29 151.053 168.229 151.156C168.169 151.258 168.139 151.376 168.139 151.509V153.361H167.231ZM170.586 153.361V150.088H171.451V150.666H171.49C171.558 150.474 171.672 150.323 171.831 150.212C171.99 150.101 172.18 150.046 172.402 150.046C172.626 150.046 172.817 150.102 172.975 150.214C173.133 150.325 173.238 150.475 173.29 150.666H173.324C173.391 150.478 173.512 150.328 173.687 150.216C173.863 150.103 174.071 150.046 174.311 150.046C174.616 150.046 174.864 150.143 175.054 150.338C175.246 150.531 175.342 150.805 175.342 151.16V153.361H174.437V151.339C174.437 151.157 174.388 151.021 174.292 150.93C174.195 150.839 174.074 150.794 173.929 150.794C173.765 150.794 173.636 150.846 173.544 150.951C173.451 151.055 173.405 151.192 173.405 151.362V153.361H172.525V151.32C172.525 151.159 172.479 151.031 172.387 150.936C172.296 150.841 172.176 150.794 172.027 150.794C171.926 150.794 171.835 150.819 171.754 150.87C171.674 150.92 171.611 150.99 171.564 151.081C171.518 151.171 171.494 151.276 171.494 151.397V153.361H170.586ZM177.49 153.416C177.349 153.416 177.228 153.367 177.127 153.267C177.028 153.166 176.978 153.046 176.978 152.905C176.978 152.766 177.028 152.647 177.127 152.547C177.228 152.448 177.349 152.398 177.49 152.398C177.626 152.398 177.745 152.448 177.848 152.547C177.95 152.647 178.001 152.766 178.001 152.905C178.001 152.999 177.977 153.085 177.929 153.163C177.882 153.24 177.82 153.301 177.743 153.348C177.666 153.394 177.582 153.416 177.49 153.416Z" fill="#EC8A3B"/>
<path d="M52.3865 37.9747V37.8625C52.3865 35.3887 54.3919 33.3809 56.8681 33.3809H93.0285C96.9344 33.3809 100.099 36.5475 100.099 40.451V42.6881C100.099 44.0372 99.5716 45.3302 98.6299 46.2963L85.3705 59.8974C83.9116 61.3953 81.5305 61.4807 79.9667 60.095L79.2787 59.4851C77.6197 58.0139 77.5099 55.4621 79.0371 53.8544L89.6179 42.7174L56.8315 42.4563C54.3699 42.4368 52.3865 40.4363 52.3865 37.9747Z" fill="#47A0DF"/>
<path d="M100.806 86.4358V86.548C100.806 89.0218 98.8007 91.0297 96.3245 91.0297H60.7764C56.5339 91.0297 53.0964 87.5898 53.0964 83.3497C53.0964 80.9612 54.0333 78.6655 55.7069 76.9602L71.7036 60.6512C73.3333 58.9898 75.9827 58.8971 77.7246 60.4414C79.5836 62.0906 79.6983 64.9547 77.9735 66.7454L65.058 80.1586C64.4993 80.7392 64.9068 81.7078 65.7118 81.7151L96.3635 81.9591C98.8251 81.9786 100.809 83.9791 100.809 86.4407L100.806 86.4358Z" fill="#99CC62"/>
<path d="M122.904 33.3809H123.595C125.839 33.3809 127.657 35.1984 127.657 37.4429V38.6066C127.657 39.4361 127.332 40.2314 126.752 40.8242L106.749 61.227C106.02 61.9711 106.027 63.164 106.766 63.8984L126.615 83.6131C127.281 84.2767 127.657 85.177 127.657 86.1162V86.9969C127.657 89.0535 125.991 90.7223 123.931 90.7223H122.587C121.658 90.7223 120.765 90.3563 120.104 89.7025L98.0566 67.8848C95.0924 64.9499 95.0656 60.1682 98.0005 57.2015L120.65 34.3201C121.245 33.72 122.055 33.3809 122.902 33.3809H122.904Z" fill="#EC8A3B"/>
</svg>
