<svg xmlns="http://www.w3.org/2000/svg" xmlns:xlink="http://www.w3.org/1999/xlink" width="96" zoomAndPan="magnify" viewBox="0 0 72 72" height="96" preserveAspectRatio="xMidYMid meet" version="1.0"><path fill="#47a0df" d="M 5.539062 17.5625 L 5.539062 17.472656 C 5.539062 15.464844 7.164062 13.835938 9.175781 13.835938 L 38.507812 13.835938 C 41.679688 13.835938 44.246094 16.40625 44.246094 19.570312 L 44.246094 21.386719 C 44.246094 22.480469 43.816406 23.53125 43.054688 24.3125 L 32.296875 35.347656 C 31.113281 36.5625 29.179688 36.632812 27.914062 35.507812 L 27.355469 35.011719 C 26.007812 33.820312 25.917969 31.75 27.160156 30.445312 L 35.742188 21.410156 L 9.144531 21.199219 C 7.148438 21.183594 5.539062 19.558594 5.539062 17.5625 Z M 5.539062 17.5625 " fill-opacity="1" fill-rule="nonzero"/><path fill="#99cc62" d="M 44.820312 56.875 L 44.820312 56.96875 C 44.820312 58.976562 43.191406 60.601562 41.183594 60.601562 L 12.34375 60.601562 C 8.902344 60.601562 6.113281 57.8125 6.113281 54.375 C 6.113281 52.433594 6.875 50.574219 8.230469 49.191406 L 21.210938 35.957031 C 22.53125 34.609375 24.679688 34.535156 26.09375 35.789062 C 27.601562 37.125 27.695312 39.449219 26.296875 40.902344 L 15.816406 51.785156 C 15.363281 52.253906 15.695312 53.042969 16.347656 53.046875 L 41.214844 53.246094 C 43.210938 53.261719 44.820312 54.882812 44.820312 56.878906 Z M 44.820312 56.875 " fill-opacity="1" fill-rule="nonzero"/><path fill="#ec8a3b" d="M 62.746094 13.835938 L 63.304688 13.835938 C 65.128906 13.835938 66.601562 15.308594 66.601562 17.132812 L 66.601562 18.074219 C 66.601562 18.746094 66.339844 19.394531 65.867188 19.875 L 49.640625 36.425781 C 49.046875 37.03125 49.054688 37.996094 49.652344 38.59375 L 65.757812 54.585938 C 66.296875 55.125 66.601562 55.855469 66.601562 56.617188 L 66.601562 57.332031 C 66.601562 59 65.25 60.355469 63.578125 60.355469 L 62.488281 60.355469 C 61.734375 60.355469 61.011719 60.058594 60.472656 59.527344 L 42.589844 41.828125 C 40.183594 39.445312 40.160156 35.566406 42.542969 33.160156 L 60.917969 14.597656 C 61.402344 14.109375 62.058594 13.835938 62.746094 13.835938 Z M 62.746094 13.835938 " fill-opacity="1" fill-rule="nonzero"/></svg>