<svg xmlns="http://www.w3.org/2000/svg" xmlns:xlink="http://www.w3.org/1999/xlink" width="48" zoomAndPan="magnify" viewBox="0 0 36 36.000001" height="48" preserveAspectRatio="xMidYMid meet" version="1.0"><path fill="#47a0df" d="M 3.171875 8.535156 L 3.171875 8.488281 C 3.171875 7.515625 3.960938 6.726562 4.933594 6.726562 L 19.15625 6.726562 C 20.691406 6.726562 21.9375 7.972656 21.9375 9.507812 L 21.9375 10.386719 C 21.9375 10.917969 21.730469 11.425781 21.359375 11.808594 L 16.144531 17.15625 C 15.570312 17.746094 14.632812 17.777344 14.019531 17.234375 L 13.75 16.992188 C 13.097656 16.414062 13.054688 15.410156 13.652344 14.78125 L 17.816406 10.398438 L 4.921875 10.296875 C 3.953125 10.289062 3.171875 9.503906 3.171875 8.535156 Z M 3.171875 8.535156 " fill-opacity="1" fill-rule="nonzero"/><path fill="#99cc62" d="M 22.214844 27.59375 L 22.214844 27.636719 C 22.214844 28.609375 21.425781 29.398438 20.453125 29.398438 L 6.472656 29.398438 C 4.804688 29.398438 3.453125 28.046875 3.453125 26.378906 C 3.453125 25.441406 3.820312 24.535156 4.480469 23.867188 L 10.769531 17.453125 C 11.410156 16.800781 12.453125 16.761719 13.136719 17.371094 C 13.867188 18.019531 13.914062 19.144531 13.234375 19.847656 L 8.15625 25.125 C 7.9375 25.351562 8.097656 25.734375 8.414062 25.738281 L 20.46875 25.832031 C 21.4375 25.839844 22.214844 26.625 22.214844 27.59375 Z M 22.214844 27.59375 " fill-opacity="1" fill-rule="nonzero"/><path fill="#ec8a3b" d="M 30.90625 6.726562 L 31.175781 6.726562 C 32.058594 6.726562 32.773438 7.441406 32.773438 8.324219 L 32.773438 8.78125 C 32.773438 9.109375 32.648438 9.421875 32.417969 9.65625 L 24.550781 17.679688 C 24.265625 17.972656 24.269531 18.441406 24.558594 18.730469 L 32.367188 26.484375 C 32.628906 26.742188 32.773438 27.097656 32.773438 27.46875 L 32.773438 27.8125 C 32.773438 28.621094 32.121094 29.277344 31.308594 29.277344 L 30.78125 29.277344 C 30.414062 29.277344 30.066406 29.136719 29.804688 28.878906 L 21.132812 20.296875 C 19.96875 19.144531 19.957031 17.261719 21.113281 16.097656 L 30.019531 7.097656 C 30.253906 6.859375 30.570312 6.726562 30.90625 6.726562 Z M 30.90625 6.726562 " fill-opacity="1" fill-rule="nonzero"/></svg>