<svg width="96" height="96" viewBox="0 0 96 96" fill="none" xmlns="http://www.w3.org/2000/svg">
<path d="M58.0891 63.3059C58.9747 63.2608 59.7957 62.8912 60.3043 62.1556C60.813 61.4201 60.9716 60.3893 61.0057 59.4769C61.0228 59.0451 60.9521 58.4913 61.007 58.0826C61.0997 57.4032 62.3292 57.3715 62.5098 58.0009C62.6366 58.4437 62.55 59.777 62.489 60.2783C62.2707 62.0873 61.157 63.5731 59.3297 63.9585C59.3346 64.0073 59.3773 64.0049 59.409 64.0183C59.6042 64.0951 59.8396 64.1378 60.0421 64.222C61.4924 64.827 62.3109 66.1676 62.489 67.6997C62.5488 68.2096 62.6391 69.5258 62.5098 69.9771C62.3353 70.587 61.085 70.5822 61.0045 69.8673C60.9362 69.266 61.0301 68.545 60.9728 67.9132C60.8191 66.1884 59.9884 64.7246 58.0891 64.6721V69.9295C58.0891 69.9552 57.9916 70.1455 57.9659 70.1784C57.6781 70.5309 56.7083 70.5102 56.568 69.993C56.5009 66.0298 56.5546 62.0519 56.5412 58.0839C56.6058 57.4532 57.7061 57.4032 57.9915 57.8375C58.0086 57.8643 58.0891 58.0363 58.0891 58.0497V63.3071V63.3059Z" fill="black"/>
<path d="M71.2705 62.0654V57.3044C71.2705 57.2922 71.3083 57.0934 71.3157 57.0702C71.5047 56.4664 72.8063 56.5079 72.8173 57.2458L72.8221 68.1303C72.9624 71.0603 67.6074 71.2348 67.3037 68.4975C67.3207 66.7397 67.1634 64.8539 67.2671 63.1034C67.3622 61.5091 68.5601 60.8565 70.0544 61.1871C70.5801 61.303 70.9765 61.6287 71.2693 62.0666L71.2705 62.0654ZM69.0797 68.8159C69.6323 69.355 71.2376 69.2221 71.2681 68.2181L71.2632 63.5779C71.2413 62.1776 68.9455 61.9092 68.7943 63.3559C68.8784 64.8941 68.6686 66.5775 68.7894 68.0986C68.8089 68.3426 68.9028 68.6426 69.0809 68.8159H69.0797Z" fill="black"/>
<path d="M11.8433 68.6707H15.3015C15.321 68.6707 15.5101 68.7268 15.5418 68.7402C16.0919 68.9818 16.0407 70.1491 15.3869 70.2443L10.5259 70.2516C10.094 70.1955 9.84399 69.9076 9.89278 69.4648L13.9828 59.3037H10.4319C10.4002 59.3037 10.2282 59.2293 10.1892 59.2061C9.71956 58.9158 9.79275 57.8631 10.4088 57.7606L15.3015 57.7533C15.8638 57.8094 15.9955 58.2315 15.8772 58.7316L11.8433 68.6707Z" fill="black"/>
<path d="M48.9697 65.1661V63.2901C48.9697 62.8778 48.5806 62.5313 48.2012 62.4459C47.5681 62.3044 46.8362 62.4594 46.6825 63.1742C46.5801 63.6536 46.8167 64.4147 46.097 64.5123C45.1431 64.6416 45.0724 64.0244 45.1212 63.2571C45.2358 61.4725 46.7374 60.9797 48.3012 61.1346C49.6406 61.2664 50.4054 61.997 50.4884 63.3523C50.5909 65.0283 50.4433 66.841 50.4494 68.5231C50.2749 70.8859 46.0885 71.0396 45.1883 69.2416C44.8577 68.5816 44.8162 66.7812 45.1309 66.1213C45.3603 65.6407 46.0238 65.1661 46.5642 65.1661H48.9685H48.9697ZM48.9697 66.4689H47.0936C47.0509 66.4689 46.8375 66.5665 46.7887 66.5982C46.6118 66.7129 46.5105 66.8958 46.4886 67.1057C46.4508 67.4838 46.441 68.3706 46.6484 68.6817C47.0753 69.3233 48.5257 69.2989 48.8514 68.5682C48.8794 68.5036 48.9697 68.2425 48.9697 68.1901V66.4689Z" fill="black"/>
<path d="M77.2818 61.1115C79.0896 61.0871 80.3107 61.9714 80.1057 63.9061C80.0203 64.716 78.6858 64.6575 78.5919 63.9695C78.5431 63.6145 78.6395 63.3718 78.4797 62.9961C78.1296 62.169 76.4646 62.1959 76.1681 63.0717C76.084 63.3218 76.0779 64.0097 76.1071 64.283C76.1389 64.5745 76.3535 64.738 76.6097 64.8343C77.8576 65.3003 79.9825 65.2003 80.1094 66.9178C80.2558 68.911 79.8593 70.3235 77.6124 70.4406C75.9864 70.5248 74.6507 69.9454 74.5543 68.1608C74.5153 67.4448 74.6726 66.9093 75.5302 67.0617C76.334 67.2045 75.9913 67.9498 76.1669 68.4706C76.4694 69.366 78.1955 69.3635 78.509 68.4841C78.6114 68.1986 78.6419 67.2508 78.5224 66.9837C78.4138 66.7409 78.204 66.6531 77.9674 66.5775C77.2855 66.3591 76.539 66.2371 75.8522 66.0261C74.4836 65.6053 74.4836 64.6575 74.5555 63.3815C74.6482 61.7384 75.7461 61.1322 77.2806 61.1115H77.2818Z" fill="black"/>
<path d="M17.6984 61.142C18.0839 61.0871 18.5584 61.1505 18.6596 61.5908L18.6706 68.0303C18.6242 69.4392 21.0834 69.5185 21.17 68.1498L21.1773 61.7055C21.2261 60.9138 22.7033 60.9114 22.6997 61.736L22.6948 68.3706C22.6094 71.0262 17.6276 71.1335 17.2227 68.6402C17.119 66.3164 17.2068 63.9744 17.1775 61.6445C17.2044 61.3798 17.4422 61.1773 17.6972 61.1407L17.6984 61.142Z" fill="black"/>
<path d="M31.8105 61.142C32.196 61.0871 32.6705 61.1505 32.7717 61.5908L32.7827 68.0303C32.7364 69.4392 35.1955 69.5185 35.2821 68.1498L35.2894 61.7055C35.3382 60.9138 36.8154 60.9114 36.8118 61.736L36.8069 68.3706C36.7215 71.0262 31.7398 71.1335 31.3348 68.6402C31.2311 66.3164 31.3189 63.9744 31.2896 61.6445C31.3165 61.3798 31.5543 61.1773 31.8093 61.1407L31.8105 61.142Z" fill="black"/>
<path d="M27.2838 61.1102C28.5646 61.0968 29.8283 61.5189 30.0711 62.9266C30.1296 63.2657 30.1601 64.1622 30.104 64.4916C29.993 65.143 28.6853 65.1881 28.5951 64.433C28.5146 63.756 28.8171 62.868 27.9925 62.524C27.1679 62.18 26.0578 62.5118 26.0786 63.567V69.9247C25.9383 70.5858 24.6672 70.5675 24.5916 69.8954V63.2254C24.6868 61.6848 25.8834 61.1237 27.285 61.1102H27.2838Z" fill="black"/>
<path d="M41.3971 61.1102C42.6779 61.0968 43.9417 61.5189 44.1844 62.9266C44.2429 63.2657 44.2734 64.1622 44.2173 64.4916C44.1063 65.143 42.7987 65.1881 42.7084 64.433C42.6279 63.756 42.9304 62.868 42.1058 62.524C41.2812 62.18 40.1712 62.5118 40.1919 63.567V69.9247C40.0516 70.5858 38.7806 70.5675 38.705 69.8954V63.2254C38.8001 61.6848 39.9967 61.1237 41.3983 61.1102H41.3971Z" fill="black"/>
<path d="M64.1785 61.3005C64.5103 60.9907 65.4581 61.07 65.502 61.6457V69.8966C65.4227 70.587 64.087 70.5846 64.0126 69.8966V61.6762C64.0126 61.5506 64.0883 61.3847 64.1785 61.3005Z" fill="black"/>
<path d="M64.1785 59.9757C64.0943 59.8976 64.0248 59.7451 64.0126 59.6305C63.9296 58.8559 64.0638 57.9215 64.026 57.1323C64.1577 56.4919 65.4056 56.5029 65.4983 57.1835L65.4873 59.7098C65.358 60.2184 64.5103 60.2867 64.1785 59.9769V59.9757Z" fill="black"/>
<path d="M6.8698 74.4987H7.38649L7.884 75.4383H7.90531L8.40282 74.4987H8.91951L8.1237 75.9092V76.6805H7.66561V75.9092L6.8698 74.4987ZM10.0095 76.7125C9.84403 76.7125 9.70092 76.6773 9.58018 76.607C9.46015 76.536 9.36747 76.4373 9.30213 76.3108C9.23679 76.1837 9.20412 76.0363 9.20412 75.8687C9.20412 75.6997 9.23679 75.552 9.30213 75.4255C9.36747 75.2984 9.46015 75.1997 9.58018 75.1294C9.70092 75.0584 9.84403 75.0228 10.0095 75.0228C10.175 75.0228 10.3178 75.0584 10.4378 75.1294C10.5585 75.1997 10.6516 75.2984 10.7169 75.4255C10.7822 75.552 10.8149 75.6997 10.8149 75.8687C10.8149 76.0363 10.7822 76.1837 10.7169 76.3108C10.6516 76.4373 10.5585 76.536 10.4378 76.607C10.3178 76.6773 10.175 76.7125 10.0095 76.7125ZM10.0116 76.3609C10.0869 76.3609 10.1498 76.3396 10.2002 76.297C10.2506 76.2537 10.2886 76.1947 10.3142 76.1201C10.3405 76.0456 10.3536 75.9607 10.3536 75.8655C10.3536 75.7704 10.3405 75.6855 10.3142 75.6109C10.2886 75.5363 10.2506 75.4774 10.2002 75.4341C10.1498 75.3907 10.0869 75.3691 10.0116 75.3691C9.93565 75.3691 9.87173 75.3907 9.81988 75.4341C9.76875 75.4774 9.73004 75.5363 9.70376 75.6109C9.67819 75.6855 9.66541 75.7704 9.66541 75.8655C9.66541 75.9607 9.67819 76.0456 9.70376 76.1201C9.73004 76.1947 9.76875 76.2537 9.81988 76.297C9.87173 76.3396 9.93565 76.3609 10.0116 76.3609ZM12.6094 75.9838V75.0441H13.0632V76.6805H12.6275V76.3833H12.6104C12.5735 76.4792 12.5121 76.5562 12.4261 76.6145C12.3409 76.6727 12.2369 76.7018 12.114 76.7018C12.0046 76.7018 11.9084 76.677 11.8253 76.6272C11.7422 76.5775 11.6772 76.5069 11.6303 76.4152C11.5842 76.3236 11.5607 76.2139 11.56 76.0861V75.0441H12.0138V76.0051C12.0146 76.1017 12.0405 76.178 12.0916 76.2341C12.1428 76.2902 12.2113 76.3183 12.2972 76.3183C12.3519 76.3183 12.4031 76.3059 12.4506 76.281C12.4982 76.2554 12.5366 76.2178 12.5657 76.1681C12.5955 76.1184 12.6101 76.0569 12.6094 75.9838ZM13.8762 76.6805V75.0441H14.3162V75.3297H14.3333C14.3631 75.2281 14.4132 75.1514 14.4835 75.0995C14.5538 75.047 14.6347 75.0207 14.7264 75.0207C14.7491 75.0207 14.7736 75.0221 14.7999 75.025C14.8262 75.0278 14.8492 75.0317 14.8691 75.0367V75.4394C14.8478 75.433 14.8183 75.4273 14.7807 75.4223C14.7431 75.4174 14.7086 75.4149 14.6774 75.4149C14.6106 75.4149 14.5509 75.4294 14.4984 75.4586C14.4465 75.487 14.4053 75.5267 14.3748 75.5779C14.345 75.629 14.3301 75.688 14.3301 75.7547V76.6805H13.8762ZM18.0596 75.5108L17.6441 75.5363C17.637 75.5008 17.6217 75.4689 17.5983 75.4405C17.5749 75.4113 17.544 75.3883 17.5056 75.3712C17.468 75.3535 17.4229 75.3446 17.3703 75.3446C17.3 75.3446 17.2407 75.3595 17.1924 75.3893C17.1441 75.4184 17.12 75.4575 17.12 75.5065C17.12 75.5456 17.1356 75.5786 17.1668 75.6056C17.1981 75.6326 17.2517 75.6542 17.3277 75.6706L17.6239 75.7302C17.783 75.7629 17.9016 75.8155 17.9797 75.8879C18.0578 75.9603 18.0969 76.0555 18.0969 76.1734C18.0969 76.2807 18.0653 76.3748 18.0021 76.4557C17.9396 76.5367 17.8536 76.5999 17.7443 76.6454C17.6356 76.6901 17.5102 76.7125 17.3682 76.7125C17.1516 76.7125 16.979 76.6674 16.8504 76.5772C16.7226 76.4863 16.6477 76.3627 16.6257 76.2064L17.072 76.183C17.0855 76.249 17.1182 76.2995 17.17 76.3343C17.2219 76.3684 17.2883 76.3854 17.3693 76.3854C17.4488 76.3854 17.5127 76.3701 17.561 76.3396C17.61 76.3084 17.6349 76.2682 17.6356 76.2192C17.6349 76.178 17.6175 76.1443 17.5834 76.118C17.5493 76.091 17.4967 76.0704 17.4257 76.0562L17.1423 75.9998C16.9825 75.9678 16.8636 75.9124 16.7855 75.8336C16.708 75.7547 16.6693 75.6542 16.6693 75.5321C16.6693 75.427 16.6977 75.3364 16.7546 75.2604C16.8121 75.1844 16.8927 75.1258 16.9964 75.0846C17.1008 75.0434 17.223 75.0228 17.3629 75.0228C17.5695 75.0228 17.7322 75.0665 17.8508 75.1539C17.9701 75.2412 18.0397 75.3602 18.0596 75.5108ZM19.572 76.7125C19.4044 76.7125 19.2602 76.677 19.1395 76.6059C19.0195 76.5342 18.9271 76.4348 18.8625 76.3076C18.7986 76.1805 18.7666 76.0342 18.7666 75.8687C18.7666 75.7011 18.7989 75.5541 18.8636 75.4277C18.9289 75.3005 19.0216 75.2015 19.1416 75.1304C19.2616 75.0587 19.4044 75.0228 19.5699 75.0228C19.7126 75.0228 19.8376 75.0488 19.9449 75.1006C20.0521 75.1525 20.137 75.2253 20.1995 75.319C20.262 75.4128 20.2964 75.5228 20.3028 75.6493H19.8746C19.8625 75.5676 19.8305 75.5019 19.7787 75.4522C19.7276 75.4017 19.6604 75.3765 19.5773 75.3765C19.507 75.3765 19.4456 75.3957 19.393 75.4341C19.3412 75.4717 19.3007 75.5267 19.2716 75.5992C19.2425 75.6716 19.2279 75.7593 19.2279 75.8623C19.2279 75.9667 19.2421 76.0555 19.2705 76.1287C19.2996 76.2018 19.3405 76.2576 19.393 76.2959C19.4456 76.3343 19.507 76.3535 19.5773 76.3535C19.6292 76.3535 19.6757 76.3428 19.7169 76.3215C19.7588 76.3002 19.7933 76.2693 19.8202 76.2288C19.8479 76.1876 19.8661 76.1383 19.8746 76.0807H20.3028C20.2957 76.2057 20.2616 76.3158 20.2006 76.411C20.1402 76.5054 20.0567 76.5793 19.9502 76.6326C19.8437 76.6858 19.7176 76.7125 19.572 76.7125ZM21.4972 75.7345V76.6805H21.0434V74.4987H21.4845V75.3329H21.5036C21.5406 75.2363 21.6002 75.1606 21.6826 75.1059C21.765 75.0505 21.8683 75.0228 21.9926 75.0228C22.1063 75.0228 22.2053 75.0477 22.2899 75.0974C22.3751 75.1464 22.4411 75.2171 22.488 75.3094C22.5356 75.401 22.559 75.5108 22.5583 75.6386V76.6805H22.1045V75.7196C22.1052 75.6187 22.0796 75.5402 22.0278 75.4841C21.9766 75.428 21.9049 75.4 21.8126 75.4C21.7508 75.4 21.6961 75.4131 21.6485 75.4394C21.6016 75.4657 21.5647 75.504 21.5377 75.5544C21.5115 75.6042 21.498 75.6642 21.4972 75.7345ZM24.1048 76.7125C23.9393 76.7125 23.7962 76.6773 23.6755 76.607C23.5555 76.536 23.4628 76.4373 23.3974 76.3108C23.3321 76.1837 23.2994 76.0363 23.2994 75.8687C23.2994 75.6997 23.3321 75.552 23.3974 75.4255C23.4628 75.2984 23.5555 75.1997 23.6755 75.1294C23.7962 75.0584 23.9393 75.0228 24.1048 75.0228C24.2703 75.0228 24.4131 75.0584 24.5331 75.1294C24.6538 75.1997 24.7469 75.2984 24.8122 75.4255C24.8776 75.552 24.9102 75.6997 24.9102 75.8687C24.9102 76.0363 24.8776 76.1837 24.8122 76.3108C24.7469 76.4373 24.6538 76.536 24.5331 76.607C24.4131 76.6773 24.2703 76.7125 24.1048 76.7125ZM24.107 76.3609C24.1822 76.3609 24.2451 76.3396 24.2955 76.297C24.346 76.2537 24.3839 76.1947 24.4095 76.1201C24.4358 76.0456 24.4489 75.9607 24.4489 75.8655C24.4489 75.7704 24.4358 75.6855 24.4095 75.6109C24.3839 75.5363 24.346 75.4774 24.2955 75.4341C24.2451 75.3907 24.1822 75.3691 24.107 75.3691C24.031 75.3691 23.967 75.3907 23.9152 75.4341C23.8641 75.4774 23.8254 75.5363 23.7991 75.6109C23.7735 75.6855 23.7607 75.7704 23.7607 75.8655C23.7607 75.9607 23.7735 76.0456 23.7991 76.1201C23.8254 76.1947 23.8641 76.2537 23.9152 76.297C23.967 76.3396 24.031 76.3609 24.107 76.3609ZM26.3947 76.7125C26.2292 76.7125 26.0861 76.6773 25.9653 76.607C25.8453 76.536 25.7526 76.4373 25.6873 76.3108C25.6219 76.1837 25.5893 76.0363 25.5893 75.8687C25.5893 75.6997 25.6219 75.552 25.6873 75.4255C25.7526 75.2984 25.8453 75.1997 25.9653 75.1294C26.0861 75.0584 26.2292 75.0228 26.3947 75.0228C26.5602 75.0228 26.7029 75.0584 26.8229 75.1294C26.9437 75.1997 27.0367 75.2984 27.1021 75.4255C27.1674 75.552 27.2001 75.6997 27.2001 75.8687C27.2001 76.0363 27.1674 76.1837 27.1021 76.3108C27.0367 76.4373 26.9437 76.536 26.8229 76.607C26.7029 76.6773 26.5602 76.7125 26.3947 76.7125ZM26.3968 76.3609C26.4721 76.3609 26.5349 76.3396 26.5854 76.297C26.6358 76.2537 26.6738 76.1947 26.6994 76.1201C26.7256 76.0456 26.7388 75.9607 26.7388 75.8655C26.7388 75.7704 26.7256 75.6855 26.6994 75.6109C26.6738 75.5363 26.6358 75.4774 26.5854 75.4341C26.5349 75.3907 26.4721 75.3691 26.3968 75.3691C26.3208 75.3691 26.2569 75.3907 26.205 75.4341C26.1539 75.4774 26.1152 75.5363 26.0889 75.6109C26.0634 75.6855 26.0506 75.7704 26.0506 75.8655C26.0506 75.9607 26.0634 76.0456 26.0889 76.1201C26.1152 76.1947 26.1539 76.2537 26.205 76.297C26.2569 76.3396 26.3208 76.3609 26.3968 76.3609ZM28.399 74.4987V76.6805H27.9452V74.4987H28.399ZM29.4778 76.7082C29.4075 76.7082 29.3471 76.6834 29.2967 76.6336C29.247 76.5832 29.2221 76.5228 29.2221 76.4525C29.2221 76.3829 29.247 76.3233 29.2967 76.2736C29.3471 76.2238 29.4075 76.199 29.4778 76.199C29.546 76.199 29.6057 76.2238 29.6568 76.2736C29.7079 76.3233 29.7335 76.3829 29.7335 76.4525C29.7335 76.4994 29.7214 76.5424 29.6973 76.5814C29.6738 76.6198 29.643 76.6507 29.6046 76.6741C29.5662 76.6968 29.524 76.7082 29.4778 76.7082Z" fill="#47A0DF"/>
<path d="M33.7673 74.4987H34.2839L34.7815 75.4383H34.8028L35.3003 74.4987H35.817L35.0212 75.9092V76.6805H34.5631V75.9092L33.7673 74.4987ZM36.907 76.7125C36.7415 76.7125 36.5984 76.6773 36.4776 76.607C36.3576 76.536 36.2649 76.4373 36.1996 76.3108C36.1342 76.1837 36.1016 76.0363 36.1016 75.8687C36.1016 75.6997 36.1342 75.552 36.1996 75.4255C36.2649 75.2984 36.3576 75.1997 36.4776 75.1294C36.5984 75.0584 36.7415 75.0228 36.907 75.0228C37.0725 75.0228 37.2152 75.0584 37.3352 75.1294C37.456 75.1997 37.549 75.2984 37.6144 75.4255C37.6797 75.552 37.7124 75.6997 37.7124 75.8687C37.7124 76.0363 37.6797 76.1837 37.6144 76.3108C37.549 76.4373 37.456 76.536 37.3352 76.607C37.2152 76.6773 37.0725 76.7125 36.907 76.7125ZM36.9091 76.3609C36.9844 76.3609 37.0472 76.3396 37.0977 76.297C37.1481 76.2537 37.1861 76.1947 37.2117 76.1201C37.2379 76.0456 37.2511 75.9607 37.2511 75.8655C37.2511 75.7704 37.2379 75.6855 37.2117 75.6109C37.1861 75.5363 37.1481 75.4774 37.0977 75.4341C37.0472 75.3907 36.9844 75.3691 36.9091 75.3691C36.8331 75.3691 36.7692 75.3907 36.7173 75.4341C36.6662 75.4774 36.6275 75.5363 36.6012 75.6109C36.5757 75.6855 36.5629 75.7704 36.5629 75.8655C36.5629 75.9607 36.5757 76.0456 36.6012 76.1201C36.6275 76.1947 36.6662 76.2537 36.7173 76.297C36.7692 76.3396 36.8331 76.3609 36.9091 76.3609ZM39.5068 75.9838V75.0441H39.9607V76.6805H39.5249V76.3833H39.5079C39.471 76.4792 39.4095 76.5562 39.3236 76.6145C39.2384 76.6727 39.1343 76.7018 39.0115 76.7018C38.9021 76.7018 38.8058 76.677 38.7227 76.6272C38.6396 76.5775 38.5747 76.5069 38.5278 76.4152C38.4816 76.3236 38.4582 76.2139 38.4575 76.0861V75.0441H38.9113V76.0051C38.912 76.1017 38.9379 76.178 38.9891 76.2341C39.0402 76.2902 39.1088 76.3183 39.1947 76.3183C39.2494 76.3183 39.3005 76.3059 39.3481 76.281C39.3957 76.2554 39.434 76.2178 39.4632 76.1681C39.493 76.1184 39.5075 76.0569 39.5068 75.9838ZM40.7737 76.6805V75.0441H41.2137V75.3297H41.2307C41.2605 75.2281 41.3106 75.1514 41.3809 75.0995C41.4512 75.047 41.5322 75.0207 41.6238 75.0207C41.6466 75.0207 41.6711 75.0221 41.6973 75.025C41.7236 75.0278 41.7467 75.0317 41.7666 75.0367V75.4394C41.7453 75.433 41.7158 75.4273 41.6782 75.4223C41.6405 75.4174 41.6061 75.4149 41.5748 75.4149C41.5081 75.4149 41.4484 75.4294 41.3958 75.4586C41.344 75.487 41.3028 75.5267 41.2723 75.5779C41.2424 75.629 41.2275 75.688 41.2275 75.7547V76.6805H40.7737ZM44.3349 76.7125C44.1673 76.7125 44.0231 76.677 43.9024 76.6059C43.7823 76.5342 43.69 76.4348 43.6254 76.3076C43.5615 76.1805 43.5295 76.0342 43.5295 75.8687C43.5295 75.7011 43.5618 75.5541 43.6265 75.4277C43.6918 75.3005 43.7845 75.2015 43.9045 75.1304C44.0245 75.0587 44.1673 75.0228 44.3328 75.0228C44.4755 75.0228 44.6005 75.0488 44.7078 75.1006C44.815 75.1525 44.8999 75.2253 44.9624 75.319C45.0249 75.4128 45.0593 75.5228 45.0657 75.6493H44.6375C44.6254 75.5676 44.5934 75.5019 44.5416 75.4522C44.4904 75.4017 44.4233 75.3765 44.3402 75.3765C44.2699 75.3765 44.2085 75.3957 44.1559 75.4341C44.1041 75.4717 44.0636 75.5267 44.0345 75.5992C44.0054 75.6716 43.9908 75.7593 43.9908 75.8623C43.9908 75.9667 44.005 76.0555 44.0334 76.1287C44.0625 76.2018 44.1034 76.2576 44.1559 76.2959C44.2085 76.3343 44.2699 76.3535 44.3402 76.3535C44.3921 76.3535 44.4386 76.3428 44.4798 76.3215C44.5217 76.3002 44.5561 76.2693 44.5831 76.2288C44.6108 76.1876 44.6289 76.1383 44.6375 76.0807H45.0657C45.0586 76.2057 45.0245 76.3158 44.9635 76.411C44.9031 76.5054 44.8196 76.5793 44.7131 76.6326C44.6066 76.6858 44.4805 76.7125 44.3349 76.7125ZM46.2601 75.7345V76.6805H45.8063V74.4987H46.2474V75.3329H46.2665C46.3035 75.2363 46.3631 75.1606 46.4455 75.1059C46.5279 75.0505 46.6312 75.0228 46.7555 75.0228C46.8692 75.0228 46.9682 75.0477 47.0528 75.0974C47.138 75.1464 47.204 75.2171 47.2509 75.3094C47.2985 75.401 47.3219 75.5108 47.3212 75.6386V76.6805H46.8674V75.7196C46.8681 75.6187 46.8425 75.5402 46.7907 75.4841C46.7395 75.428 46.6678 75.4 46.5755 75.4C46.5137 75.4 46.459 75.4131 46.4114 75.4394C46.3645 75.4657 46.3276 75.504 46.3006 75.5544C46.2743 75.6042 46.2608 75.6642 46.2601 75.7345ZM48.1284 76.6805V75.0441H48.5822V76.6805H48.1284ZM48.3564 74.8332C48.2889 74.8332 48.231 74.8108 48.1827 74.7661C48.1351 74.7206 48.1113 74.6663 48.1113 74.6031C48.1113 74.5406 48.1351 74.487 48.1827 74.4422C48.231 74.3968 48.2889 74.374 48.3564 74.374C48.4238 74.374 48.4814 74.3968 48.5289 74.4422C48.5772 74.487 48.6014 74.5406 48.6014 74.6031C48.6014 74.6663 48.5772 74.7206 48.5289 74.7661C48.4814 74.8108 48.4238 74.8332 48.3564 74.8332ZM49.8496 74.4987V76.6805H49.3958V74.4987H49.8496ZM51.2661 76.7071C51.1418 76.7071 51.0293 76.6752 50.9284 76.6113C50.8283 76.5466 50.7487 76.4518 50.6898 76.3268C50.6315 76.2011 50.6024 76.047 50.6024 75.8645C50.6024 75.677 50.6326 75.5211 50.693 75.3968C50.7533 75.2718 50.8336 75.1784 50.9337 75.1166C51.0346 75.0541 51.145 75.0228 51.2651 75.0228C51.3567 75.0228 51.433 75.0385 51.4941 75.0697C51.5559 75.1003 51.6056 75.1386 51.6433 75.1848C51.6816 75.2302 51.7107 75.275 51.7306 75.319H51.7445V74.4987H52.1972V76.6805H51.7498V76.4184H51.7306C51.7093 76.4639 51.6791 76.509 51.6401 76.5537C51.6017 76.5978 51.5516 76.6343 51.4898 76.6635C51.4288 76.6926 51.3542 76.7071 51.2661 76.7071ZM51.4099 76.346C51.4831 76.346 51.5449 76.3261 51.5953 76.2863C51.6464 76.2459 51.6855 76.1894 51.7125 76.1169C51.7402 76.0445 51.754 75.9596 51.754 75.8623C51.754 75.765 51.7406 75.6805 51.7136 75.6088C51.6866 75.537 51.6475 75.4816 51.5964 75.4426C51.5452 75.4035 51.4831 75.384 51.4099 75.384C51.3354 75.384 51.2725 75.4042 51.2214 75.4447C51.1702 75.4852 51.1315 75.5413 51.1053 75.613C51.079 75.6848 51.0658 75.7679 51.0658 75.8623C51.0658 75.9575 51.079 76.0417 51.1053 76.1148C51.1322 76.1873 51.1709 76.2441 51.2214 76.2853C51.2725 76.3258 51.3354 76.346 51.4099 76.346ZM53.0204 76.6805V75.0441H53.4604V75.3297H53.4774C53.5072 75.2281 53.5573 75.1514 53.6276 75.0995C53.6979 75.047 53.7789 75.0207 53.8705 75.0207C53.8932 75.0207 53.9177 75.0221 53.944 75.025C53.9703 75.0278 53.9934 75.0317 54.0133 75.0367V75.4394C53.992 75.433 53.9625 75.4273 53.9248 75.4223C53.8872 75.4174 53.8528 75.4149 53.8215 75.4149C53.7547 75.4149 53.6951 75.4294 53.6425 75.4586C53.5907 75.487 53.5495 75.5267 53.5189 75.5779C53.4891 75.629 53.4742 75.688 53.4742 75.7547V76.6805H53.0204ZM55.3675 76.7125C55.1991 76.7125 55.0543 76.6784 54.9328 76.6102C54.8121 76.5413 54.719 76.444 54.6537 76.3183C54.5884 76.1919 54.5557 76.0424 54.5557 75.8698C54.5557 75.7015 54.5884 75.5537 54.6537 75.4266C54.719 75.2995 54.811 75.2004 54.9296 75.1294C55.0489 75.0584 55.1888 75.0228 55.3494 75.0228C55.4573 75.0228 55.5578 75.0402 55.6509 75.075C55.7446 75.1091 55.8263 75.1606 55.8959 75.2295C55.9662 75.2984 56.0209 75.3851 56.0599 75.4895C56.099 75.5932 56.1185 75.7146 56.1185 75.8538V75.9785H54.7368V75.6972H55.6913C55.6913 75.6319 55.6771 75.574 55.6487 75.5236C55.6203 75.4731 55.5809 75.4337 55.5305 75.4053C55.4808 75.3762 55.4229 75.3616 55.3568 75.3616C55.2879 75.3616 55.2268 75.3776 55.1736 75.4096C55.121 75.4408 55.0798 75.4831 55.05 75.5363C55.0202 75.5889 55.0049 75.6475 55.0042 75.7121V75.9795C55.0042 76.0605 55.0191 76.1304 55.0489 76.1894C55.0795 76.2483 55.1224 76.2938 55.1778 76.3258C55.2332 76.3577 55.2989 76.3737 55.3749 76.3737C55.4254 76.3737 55.4715 76.3666 55.5134 76.3524C55.5553 76.3382 55.5912 76.3169 55.621 76.2885C55.6509 76.2601 55.6736 76.2253 55.6892 76.1841L56.1089 76.2118C56.0876 76.3126 56.044 76.4007 55.9779 76.476C55.9126 76.5505 55.8281 76.6088 55.7244 76.6507C55.6214 76.6919 55.5024 76.7125 55.3675 76.7125ZM57.3185 75.7345V76.6805H56.8647V75.0441H57.2972V75.3329H57.3164C57.3526 75.2377 57.4134 75.1624 57.4986 75.107C57.5838 75.0509 57.6871 75.0228 57.8086 75.0228C57.9222 75.0228 58.0213 75.0477 58.1058 75.0974C58.1903 75.1471 58.256 75.2182 58.3029 75.3105C58.3498 75.4021 58.3732 75.5115 58.3732 75.6386V76.6805H57.9194V75.7196C57.9201 75.6194 57.8945 75.5413 57.8427 75.4852C57.7908 75.4284 57.7195 75.4 57.6286 75.4C57.5675 75.4 57.5135 75.4131 57.4666 75.4394C57.4205 75.4657 57.3842 75.504 57.358 75.5544C57.3324 75.6042 57.3192 75.6642 57.3185 75.7345ZM59.4462 76.7082C59.3759 76.7082 59.3155 76.6834 59.2651 76.6336C59.2154 76.5832 59.1905 76.5228 59.1905 76.4525C59.1905 76.3829 59.2154 76.3233 59.2651 76.2736C59.3155 76.2238 59.3759 76.199 59.4462 76.199C59.5144 76.199 59.574 76.2238 59.6252 76.2736C59.6763 76.3233 59.7019 76.3829 59.7019 76.4525C59.7019 76.4994 59.6898 76.5424 59.6656 76.5814C59.6422 76.6198 59.6113 76.6507 59.573 76.6741C59.5346 76.6968 59.4923 76.7082 59.4462 76.7082Z" fill="#99CC62"/>
<path d="M65.8684 75.5896C65.8684 75.8275 65.8233 76.0299 65.7331 76.1968C65.6436 76.3638 65.5215 76.4912 65.3667 76.5793C65.2125 76.6667 65.0392 76.7103 64.8468 76.7103C64.6529 76.7103 64.4789 76.6663 64.3248 76.5782C64.1706 76.4902 64.0488 76.3627 63.9593 76.1958C63.8699 76.0289 63.8251 75.8268 63.8251 75.5896C63.8251 75.3517 63.8699 75.1493 63.9593 74.9824C64.0488 74.8155 64.1706 74.6883 64.3248 74.601C64.4789 74.5129 64.6529 74.4689 64.8468 74.4689C65.0392 74.4689 65.2125 74.5129 65.3667 74.601C65.5215 74.6883 65.6436 74.8155 65.7331 74.9824C65.8233 75.1493 65.8684 75.3517 65.8684 75.5896ZM65.4007 75.5896C65.4007 75.4355 65.3777 75.3055 65.3315 75.1997C65.286 75.0939 65.2218 75.0136 65.1387 74.9589C65.0556 74.9042 64.9583 74.8769 64.8468 74.8769C64.7353 74.8769 64.638 74.9042 64.5549 74.9589C64.4718 75.0136 64.4071 75.0939 64.361 75.1997C64.3155 75.3055 64.2928 75.4355 64.2928 75.5896C64.2928 75.7437 64.3155 75.8737 64.361 75.9795C64.4071 76.0853 64.4718 76.1656 64.5549 76.2203C64.638 76.275 64.7353 76.3023 64.8468 76.3023C64.9583 76.3023 65.0556 76.275 65.1387 76.2203C65.2218 76.1656 65.286 76.0853 65.3315 75.9795C65.3777 75.8737 65.4007 75.7437 65.4007 75.5896ZM67.1054 75.7345V76.6805H66.6516V75.0441H67.0841V75.3329H67.1033C67.1395 75.2377 67.2003 75.1624 67.2855 75.107C67.3707 75.0509 67.4741 75.0228 67.5955 75.0228C67.7091 75.0228 67.8082 75.0477 67.8927 75.0974C67.9773 75.1471 68.0429 75.2182 68.0898 75.3105C68.1367 75.4021 68.1601 75.5115 68.1601 75.6386V76.6805H67.7063V75.7196C67.707 75.6194 67.6814 75.5413 67.6296 75.4852C67.5777 75.4284 67.5064 75.4 67.4155 75.4C67.3544 75.4 67.3004 75.4131 67.2535 75.4394C67.2074 75.4657 67.1711 75.504 67.1449 75.5544C67.1193 75.6042 67.1062 75.6642 67.1054 75.7345ZM69.7136 76.7125C69.5452 76.7125 69.4003 76.6784 69.2789 76.6102C69.1582 76.5413 69.0651 76.444 68.9998 76.3183C68.9344 76.1919 68.9018 76.0424 68.9018 75.8698C68.9018 75.7015 68.9344 75.5537 68.9998 75.4266C69.0651 75.2995 69.1571 75.2004 69.2757 75.1294C69.395 75.0584 69.5349 75.0228 69.6954 75.0228C69.8034 75.0228 69.9039 75.0402 69.9969 75.075C70.0907 75.1091 70.1724 75.1606 70.242 75.2295C70.3123 75.2984 70.367 75.3851 70.406 75.4895C70.4451 75.5932 70.4646 75.7146 70.4646 75.8538V75.9785H69.0829V75.6972H70.0374C70.0374 75.6319 70.0232 75.574 69.9948 75.5236C69.9664 75.4731 69.927 75.4337 69.8766 75.4053C69.8268 75.3762 69.769 75.3616 69.7029 75.3616C69.634 75.3616 69.5729 75.3776 69.5197 75.4096C69.4671 75.4408 69.4259 75.4831 69.3961 75.5363C69.3663 75.5889 69.351 75.6475 69.3503 75.7121V75.9795C69.3503 76.0605 69.3652 76.1304 69.395 76.1894C69.4256 76.2483 69.4685 76.2938 69.5239 76.3258C69.5793 76.3577 69.645 76.3737 69.721 76.3737C69.7714 76.3737 69.8176 76.3666 69.8595 76.3524C69.9014 76.3382 69.9373 76.3169 69.9671 76.2885C69.9969 76.2601 70.0197 76.2253 70.0353 76.1841L70.455 76.2118C70.4337 76.3126 70.3901 76.4007 70.324 76.476C70.2587 76.5505 70.1741 76.6088 70.0704 76.6507C69.9675 76.6919 69.8485 76.7125 69.7136 76.7125ZM72.3551 77.2941V75.0441H72.8026V75.319H72.8228C72.8427 75.275 72.8715 75.2302 72.9091 75.1848C72.9475 75.1386 72.9972 75.1003 73.0583 75.0697C73.12 75.0385 73.1967 75.0228 73.2884 75.0228C73.4077 75.0228 73.5178 75.0541 73.6186 75.1166C73.7195 75.1784 73.8001 75.2718 73.8605 75.3968C73.9208 75.5211 73.951 75.677 73.951 75.8645C73.951 76.047 73.9215 76.2011 73.8626 76.3268C73.8043 76.4518 73.7248 76.5466 73.6239 76.6113C73.5238 76.6752 73.4116 76.7071 73.2873 76.7071C73.1992 76.7071 73.1243 76.6926 73.0625 76.6635C73.0014 76.6343 72.9514 76.5978 72.9123 76.5537C72.8732 76.509 72.8434 76.4639 72.8228 76.4184H72.809V77.2941H72.3551ZM72.7994 75.8623C72.7994 75.9596 72.8129 76.0445 72.8399 76.1169C72.8668 76.1894 72.9059 76.2459 72.957 76.2863C73.0082 76.3261 73.0703 76.346 73.1435 76.346C73.2173 76.346 73.2798 76.3258 73.331 76.2853C73.3821 76.2441 73.4208 76.1873 73.4471 76.1148C73.4741 76.0417 73.4876 75.9575 73.4876 75.8623C73.4876 75.7679 73.4744 75.6848 73.4482 75.613C73.4219 75.5413 73.3832 75.4852 73.332 75.4447C73.2809 75.4042 73.2181 75.384 73.1435 75.384C73.0696 75.384 73.0071 75.4035 72.956 75.4426C72.9056 75.4816 72.8668 75.537 72.8399 75.6088C72.8129 75.6805 72.7994 75.765 72.7994 75.8623ZM75.1574 74.4987V76.6805H74.7036V74.4987H75.1574ZM76.4376 76.7114C76.3332 76.7114 76.2401 76.6933 76.1584 76.6571C76.0768 76.6201 76.0121 76.5658 75.9646 76.4941C75.9177 76.4216 75.8942 76.3314 75.8942 76.2235C75.8942 76.1326 75.9109 76.0562 75.9443 75.9944C75.9777 75.9326 76.0232 75.8829 76.0807 75.8453C76.1382 75.8076 76.2035 75.7792 76.2767 75.7601C76.3506 75.7409 76.428 75.7274 76.5089 75.7196C76.6041 75.7096 76.6808 75.7004 76.7391 75.6919C76.7973 75.6826 76.8396 75.6691 76.8658 75.6514C76.8921 75.6336 76.9053 75.6074 76.9053 75.5726V75.5662C76.9053 75.4987 76.8839 75.4465 76.8413 75.4096C76.7994 75.3726 76.7398 75.3542 76.6624 75.3542C76.5807 75.3542 76.5157 75.3723 76.4674 75.4085C76.4191 75.444 76.3871 75.4888 76.3715 75.5427L75.9518 75.5086C75.9731 75.4092 76.015 75.3233 76.0775 75.2508C76.14 75.1777 76.2206 75.1216 76.3193 75.0825C76.4187 75.0427 76.5338 75.0228 76.6645 75.0228C76.7554 75.0228 76.8424 75.0335 76.9255 75.0548C77.0093 75.0761 77.0835 75.1091 77.1482 75.1539C77.2135 75.1986 77.265 75.2562 77.3026 75.3265C77.3403 75.3961 77.3591 75.4795 77.3591 75.5768V76.6805H76.9287V76.4536H76.9159C76.8896 76.5047 76.8545 76.5498 76.8104 76.5889C76.7664 76.6272 76.7135 76.6574 76.6517 76.6794C76.5899 76.7008 76.5185 76.7114 76.4376 76.7114ZM76.5675 76.3982C76.6343 76.3982 76.6932 76.3851 76.7444 76.3588C76.7955 76.3318 76.8357 76.2956 76.8648 76.2501C76.8939 76.2047 76.9084 76.1532 76.9084 76.0956V75.922C76.8942 75.9312 76.8747 75.9397 76.8499 75.9476C76.8257 75.9547 76.7984 75.9614 76.7678 75.9678C76.7373 75.9735 76.7067 75.9788 76.6762 75.9838C76.6457 75.988 76.618 75.9919 76.5931 75.9955C76.5398 76.0033 76.4933 76.0157 76.4535 76.0328C76.4138 76.0498 76.3829 76.0729 76.3609 76.102C76.3388 76.1304 76.3278 76.166 76.3278 76.2086C76.3278 76.2704 76.3502 76.3176 76.395 76.3503C76.4404 76.3822 76.4979 76.3982 76.5675 76.3982ZM79.0316 75.0441V75.3851H78.0461V75.0441H79.0316ZM78.2699 74.6521H78.7237V76.1777C78.7237 76.2196 78.7301 76.2522 78.7429 76.2757C78.7556 76.2984 78.7734 76.3144 78.7961 76.3236C78.8196 76.3329 78.8466 76.3375 78.8771 76.3375C78.8984 76.3375 78.9197 76.3357 78.941 76.3321C78.9623 76.3279 78.9787 76.3247 78.99 76.3226L79.0614 76.6603C79.0387 76.6674 79.0067 76.6755 78.9655 76.6848C78.9243 76.6947 78.8743 76.7008 78.8153 76.7029C78.7059 76.7071 78.6101 76.6926 78.5277 76.6592C78.446 76.6258 78.3824 76.574 78.337 76.5037C78.2915 76.4334 78.2691 76.3446 78.2699 76.2373V74.6521ZM80.6572 75.0441V75.3851H79.6472V75.0441H80.6572ZM79.8784 76.6805V74.9259C79.8784 74.8073 79.9015 74.7089 79.9477 74.6308C79.9945 74.5527 80.0585 74.4941 80.1394 74.455C80.2204 74.416 80.3124 74.3964 80.4153 74.3964C80.4849 74.3964 80.5485 74.4017 80.606 74.4124C80.6643 74.4231 80.7076 74.4326 80.736 74.4412L80.655 74.7821C80.6373 74.7764 80.6153 74.7711 80.589 74.7661C80.5634 74.7611 80.5371 74.7586 80.5102 74.7586C80.4434 74.7586 80.3969 74.7743 80.3706 74.8055C80.3443 74.8361 80.3312 74.879 80.3312 74.9344V76.6805H79.8784ZM82.0652 76.7125C81.8997 76.7125 81.7566 76.6773 81.6358 76.607C81.5158 76.536 81.4231 76.4373 81.3578 76.3108C81.2924 76.1837 81.2598 76.0363 81.2598 75.8687C81.2598 75.6997 81.2924 75.552 81.3578 75.4255C81.4231 75.2984 81.5158 75.1997 81.6358 75.1294C81.7566 75.0584 81.8997 75.0228 82.0652 75.0228C82.2307 75.0228 82.3734 75.0584 82.4934 75.1294C82.6142 75.1997 82.7072 75.2984 82.7726 75.4255C82.8379 75.552 82.8706 75.6997 82.8706 75.8687C82.8706 76.0363 82.8379 76.1837 82.7726 76.3108C82.7072 76.4373 82.6142 76.536 82.4934 76.607C82.3734 76.6773 82.2307 76.7125 82.0652 76.7125ZM82.0673 76.3609C82.1426 76.3609 82.2054 76.3396 82.2559 76.297C82.3063 76.2537 82.3443 76.1947 82.3699 76.1201C82.3961 76.0456 82.4093 75.9607 82.4093 75.8655C82.4093 75.7704 82.3961 75.6855 82.3699 75.6109C82.3443 75.5363 82.3063 75.4774 82.2559 75.4341C82.2054 75.3907 82.1426 75.3691 82.0673 75.3691C81.9913 75.3691 81.9274 75.3907 81.8755 75.4341C81.8244 75.4774 81.7857 75.5363 81.7594 75.6109C81.7339 75.6855 81.7211 75.7704 81.7211 75.8655C81.7211 75.9607 81.7339 76.0456 81.7594 76.1201C81.7857 76.1947 81.8244 76.2537 81.8755 76.297C81.9274 76.3396 81.9913 76.3609 82.0673 76.3609ZM83.6157 76.6805V75.0441H84.0557V75.3297H84.0727C84.1025 75.2281 84.1526 75.1514 84.2229 75.0995C84.2932 75.047 84.3742 75.0207 84.4658 75.0207C84.4885 75.0207 84.5131 75.0221 84.5393 75.025C84.5656 75.0278 84.5887 75.0317 84.6086 75.0367V75.4394C84.5873 75.433 84.5578 75.4273 84.5202 75.4223C84.4825 75.4174 84.4481 75.4149 84.4168 75.4149C84.3501 75.4149 84.2904 75.4294 84.2378 75.4586C84.186 75.487 84.1448 75.5267 84.1143 75.5779C84.0844 75.629 84.0695 75.688 84.0695 75.7547V76.6805H83.6157ZM85.2932 76.6805V75.0441H85.7257V75.3329H85.7449C85.779 75.237 85.8358 75.1613 85.9154 75.1059C85.9949 75.0505 86.0901 75.0228 86.2009 75.0228C86.3131 75.0228 86.4086 75.0509 86.4875 75.107C86.5663 75.1624 86.6189 75.2377 86.6451 75.3329H86.6622C86.6956 75.2391 86.7559 75.1642 86.8433 75.1081C86.9314 75.0513 87.0354 75.0228 87.1554 75.0228C87.3081 75.0228 87.4321 75.0715 87.5272 75.1688C87.6231 75.2654 87.6711 75.4025 87.6711 75.58V76.6805H87.2183V75.6695C87.2183 75.5786 87.1941 75.5104 87.1458 75.465C87.0975 75.4195 87.0372 75.3968 86.9647 75.3968C86.8823 75.3968 86.8181 75.4231 86.7719 75.4756C86.7257 75.5275 86.7027 75.596 86.7027 75.6812V76.6805H86.2627V75.6599C86.2627 75.5797 86.2396 75.5157 86.1934 75.4682C86.148 75.4206 86.088 75.3968 86.0134 75.3968C85.963 75.3968 85.9175 75.4096 85.877 75.4351C85.8372 75.46 85.8056 75.4951 85.7822 75.5406C85.7588 75.5853 85.747 75.6379 85.747 75.6983V76.6805H85.2932ZM88.7448 76.7082C88.6745 76.7082 88.6141 76.6834 88.5637 76.6336C88.514 76.5832 88.4891 76.5228 88.4891 76.4525C88.4891 76.3829 88.514 76.3233 88.5637 76.2736C88.6141 76.2238 88.6745 76.199 88.7448 76.199C88.813 76.199 88.8727 76.2238 88.9238 76.2736C88.9749 76.3233 89.0005 76.3829 89.0005 76.4525C89.0005 76.4994 88.9884 76.5424 88.9643 76.5814C88.9408 76.6198 88.9099 76.6507 88.8716 76.6741C88.8332 76.6968 88.791 76.7082 88.7448 76.7082Z" fill="#EC8A3B"/>
<path d="M26.1932 18.9873V18.9312C26.1932 17.6943 27.1959 16.6904 28.4341 16.6904H46.5143C48.4672 16.6904 50.0493 18.2737 50.0493 20.2255V21.344C50.0493 22.0186 49.7858 22.6651 49.315 23.1482L42.6852 29.9487C41.9558 30.6976 40.7652 30.7403 39.9833 30.0475L39.6393 29.7425C38.8099 29.007 38.755 27.731 39.5186 26.9272L44.8089 21.3587L28.4158 21.2282C27.185 21.2184 26.1932 20.2181 26.1932 18.9873Z" fill="#47A0DF"/>
<path d="M50.4031 43.2179V43.274C50.4031 44.5109 49.4004 45.5148 48.1622 45.5148H30.3882C28.2669 45.5148 26.5482 43.7949 26.5482 41.6748C26.5482 40.4806 27.0166 39.3328 27.8534 38.4801L35.8518 30.3256C36.6666 29.4949 37.9914 29.4485 38.8623 30.2207C39.7918 31.0453 39.8492 32.4774 38.9867 33.3727L32.529 40.0793C32.2497 40.3696 32.4534 40.8539 32.8559 40.8575L48.1818 40.9795C49.4126 40.9893 50.4043 41.9895 50.4043 43.2203L50.4031 43.2179Z" fill="#99CC62"/>
<path d="M61.4522 16.6904H61.7974C62.9196 16.6904 63.8284 17.5992 63.8284 18.7214V19.3033C63.8284 19.718 63.6662 20.1157 63.3758 20.4121L53.3745 30.6135C53.0098 30.9855 53.0135 31.582 53.3831 31.9492L63.3075 41.8066C63.6405 42.1383 63.8284 42.5885 63.8284 43.0581V43.4984C63.8284 44.5268 62.9953 45.3611 61.9657 45.3611H61.2936C60.8289 45.3611 60.3824 45.1781 60.0518 44.8512L49.0283 33.9424C47.5462 32.4749 47.5328 30.0841 49.0002 28.6008L60.3251 17.16C60.6227 16.86 61.0277 16.6904 61.451 16.6904H61.4522Z" fill="#EC8A3B"/>
</svg>
