<svg width="384" height="384" viewBox="0 0 384 384" fill="none" xmlns="http://www.w3.org/2000/svg">
<path d="M232.357 253.224C235.899 253.043 239.183 251.565 241.217 248.623C243.252 245.68 243.886 241.557 244.023 237.908C244.091 236.18 243.808 233.965 244.028 232.331C244.399 229.613 249.317 229.486 250.039 232.004C250.547 233.775 250.2 239.108 249.956 241.113C249.083 248.349 244.628 254.292 237.319 255.834C237.338 256.029 237.509 256.02 237.636 256.073C238.417 256.381 239.358 256.551 240.168 256.888C245.97 259.308 249.244 264.671 249.956 270.799C250.195 272.838 250.556 278.103 250.039 279.909C249.341 282.348 244.34 282.329 244.018 279.469C243.745 277.064 244.12 274.18 243.891 271.653C243.276 264.753 239.954 258.898 232.357 258.689V279.718C232.357 279.821 231.966 280.582 231.864 280.714C230.712 282.124 226.833 282.041 226.272 279.972C226.004 264.119 226.218 248.208 226.165 232.336C226.423 229.813 230.824 229.613 231.966 231.35C232.034 231.457 232.357 232.145 232.357 232.199V253.229V253.224Z" fill="black"/>
<path d="M285.082 248.261V229.218C285.082 229.169 285.233 228.373 285.263 228.281C286.019 225.866 291.225 226.031 291.269 228.983L291.289 272.521C291.85 284.241 270.43 284.939 269.215 273.99C269.283 266.959 268.654 259.416 269.068 252.414C269.449 246.037 274.24 243.426 280.217 244.748C282.32 245.212 283.906 246.515 285.077 248.266L285.082 248.261ZM276.319 275.263C278.529 277.42 284.95 276.888 285.072 272.873L285.053 254.312C284.965 248.71 275.782 247.637 275.177 253.424C275.514 259.577 274.675 266.31 275.158 272.394C275.236 273.37 275.611 274.571 276.324 275.263H276.319Z" fill="black"/>
<path d="M47.3731 274.683H61.2059C61.2839 274.683 62.0402 274.907 62.1671 274.961C64.3677 275.927 64.1627 280.597 61.5474 280.977L42.1035 281.006C40.3762 280.782 39.3759 279.63 39.5711 277.859L55.9314 237.215H41.7277C41.6009 237.215 40.9129 236.917 40.7568 236.824C38.8782 235.663 39.171 231.452 41.635 231.042L61.2059 231.013C63.4552 231.238 63.9822 232.926 63.5089 234.926L47.3731 274.683Z" fill="black"/>
<path d="M195.879 260.665V253.16C195.879 251.511 194.322 250.125 192.805 249.784C190.273 249.218 187.345 249.838 186.73 252.697C186.32 254.614 187.267 257.659 184.388 258.049C180.573 258.567 180.29 256.098 180.485 253.029C180.943 245.89 186.95 243.919 193.205 244.539C198.562 245.066 201.622 247.988 201.954 253.409C202.363 260.113 201.773 267.364 201.797 274.092C201.1 283.544 184.354 284.158 180.753 276.966C179.431 274.327 179.265 267.125 180.524 264.485C181.441 262.563 184.095 260.665 186.257 260.665H195.874H195.879ZM195.879 265.876H188.374C188.204 265.876 187.35 266.266 187.155 266.393C186.447 266.852 186.042 267.583 185.954 268.423C185.803 269.935 185.764 273.483 186.594 274.727C188.301 277.293 194.103 277.196 195.406 274.273C195.518 274.014 195.879 272.97 195.879 272.76V265.876Z" fill="black"/>
<path d="M309.127 244.446C316.358 244.348 321.243 247.886 320.423 255.624C320.081 258.864 314.743 258.63 314.368 255.878C314.173 254.458 314.558 253.487 313.919 251.984C312.518 248.676 305.858 248.784 304.673 252.287C304.336 253.287 304.311 256.039 304.429 257.132C304.555 258.298 305.414 258.952 306.439 259.337C311.43 261.201 319.93 260.801 320.438 267.671C321.023 275.644 319.437 281.294 310.45 281.763C303.946 282.099 298.603 279.782 298.217 272.643C298.061 269.779 298.691 267.637 302.121 268.247C305.336 268.818 303.965 271.799 304.668 273.883C305.878 277.464 312.782 277.454 314.036 273.936C314.446 272.794 314.568 269.003 314.09 267.935C313.655 266.964 312.816 266.612 311.869 266.31C309.142 265.437 306.156 264.949 303.409 264.104C297.934 262.421 297.934 258.63 298.222 253.526C298.593 246.954 302.984 244.529 309.122 244.446H309.127Z" fill="black"/>
<path d="M70.7935 244.568C72.3354 244.348 74.2335 244.602 74.6384 246.363L74.6823 272.121C74.4969 277.757 84.3336 278.074 84.68 272.599L84.7093 246.822C84.9044 243.655 90.8133 243.646 90.7986 246.944L90.7791 273.482C90.4376 284.105 70.5106 284.534 68.8906 274.561C68.4759 265.266 68.8272 255.898 68.7101 246.578C68.8174 245.519 69.7689 244.709 70.7887 244.563L70.7935 244.568Z" fill="black"/>
<path d="M127.242 244.568C128.784 244.348 130.682 244.602 131.087 246.363L131.131 272.121C130.945 277.757 140.782 278.074 141.128 272.599L141.158 246.822C141.353 243.655 147.262 243.646 147.247 246.944L147.228 273.482C146.886 284.105 126.959 284.534 125.339 274.561C124.924 265.266 125.276 255.898 125.159 246.578C125.266 245.519 126.217 244.709 127.237 244.563L127.242 244.568Z" fill="black"/>
<path d="M109.135 244.441C114.258 244.387 119.313 246.076 120.284 251.706C120.518 253.063 120.64 256.649 120.416 257.966C119.972 260.572 114.741 260.753 114.38 257.732C114.058 255.024 115.268 251.472 111.97 250.096C108.672 248.72 104.231 250.047 104.314 254.268V279.699C103.753 282.343 98.669 282.27 98.3665 279.582V252.902C98.747 246.739 103.534 244.495 109.14 244.441H109.135Z" fill="black"/>
<path d="M165.588 244.441C170.712 244.387 175.767 246.076 176.738 251.706C176.972 253.063 177.094 256.649 176.869 257.966C176.425 260.572 171.195 260.753 170.834 257.732C170.512 255.024 171.722 251.472 168.423 250.096C165.125 248.72 160.685 250.047 160.768 254.268V279.699C160.207 282.343 155.122 282.27 154.82 279.582V252.902C155.2 246.739 159.987 244.495 165.593 244.441H165.588Z" fill="black"/>
<path d="M256.714 245.202C258.041 243.963 261.832 244.28 262.008 246.583V279.587C261.691 282.348 256.348 282.338 256.051 279.587V246.705C256.051 246.202 256.353 245.539 256.714 245.202Z" fill="black"/>
<path d="M256.714 239.903C256.377 239.591 256.099 238.981 256.05 238.522C255.719 235.424 256.255 231.686 256.104 228.529C256.631 225.968 261.622 226.011 261.993 228.734L261.949 238.839C261.432 240.874 258.041 241.147 256.714 239.908V239.903Z" fill="black"/>
<path d="M27.4792 297.995H29.5459L31.536 301.753H31.6212L33.6113 297.995H35.678L32.4948 303.637V306.722H30.6624V303.637L27.4792 297.995ZM40.0381 306.85C39.3761 306.85 38.8037 306.709 38.3207 306.428C37.8406 306.144 37.4699 305.749 37.2085 305.243C36.9472 304.735 36.8165 304.145 36.8165 303.475C36.8165 302.799 36.9472 302.208 37.2085 301.702C37.4699 301.194 37.8406 300.799 38.3207 300.517C38.8037 300.233 39.3761 300.091 40.0381 300.091C40.7 300.091 41.271 300.233 41.7511 300.517C42.2341 300.799 42.6062 301.194 42.8676 301.702C43.129 302.208 43.2597 302.799 43.2597 303.475C43.2597 304.145 43.129 304.735 42.8676 305.243C42.6062 305.749 42.2341 306.144 41.7511 306.428C41.271 306.709 40.7 306.85 40.0381 306.85ZM40.0466 305.444C40.3477 305.444 40.5991 305.358 40.8008 305.188C41.0026 305.015 41.1545 304.779 41.2568 304.481C41.3619 304.182 41.4145 303.843 41.4145 303.462C41.4145 303.081 41.3619 302.742 41.2568 302.444C41.1545 302.145 41.0026 301.91 40.8008 301.736C40.5991 301.563 40.3477 301.476 40.0466 301.476C39.7426 301.476 39.4869 301.563 39.2795 301.736C39.075 301.91 38.9202 302.145 38.8151 302.444C38.7128 302.742 38.6616 303.081 38.6616 303.462C38.6616 303.843 38.7128 304.182 38.8151 304.481C38.9202 304.779 39.075 305.015 39.2795 305.188C39.4869 305.358 39.7426 305.444 40.0466 305.444ZM50.4375 303.935V300.177H52.2528V306.722H50.5099V305.533H50.4418C50.294 305.917 50.0483 306.225 49.7045 306.458C49.3636 306.691 48.9474 306.807 48.456 306.807C48.0185 306.807 47.6335 306.708 47.3011 306.509C46.9687 306.31 46.7088 306.027 46.5213 305.661C46.3366 305.294 46.2429 304.856 46.24 304.344V300.177H48.0554V304.02C48.0582 304.407 48.1619 304.712 48.3665 304.937C48.571 305.161 48.8452 305.273 49.1889 305.273C49.4077 305.273 49.6122 305.223 49.8025 305.124C49.9929 305.022 50.1463 304.871 50.2628 304.672C50.3821 304.473 50.4403 304.228 50.4375 303.935ZM55.5049 306.722V300.177H57.2648V301.319H57.333C57.4523 300.912 57.6526 300.606 57.9339 300.398C58.2151 300.188 58.539 300.083 58.9055 300.083C58.9964 300.083 59.0944 300.089 59.1995 300.1C59.3046 300.111 59.3969 300.127 59.4765 300.147V301.758C59.3913 301.732 59.2734 301.709 59.1228 301.689C58.9722 301.669 58.8344 301.66 58.7094 301.66C58.4424 301.66 58.2038 301.718 57.9935 301.834C57.7861 301.948 57.6214 302.107 57.4992 302.312C57.3799 302.516 57.3202 302.752 57.3202 303.019V306.722H55.5049ZM72.2384 302.043L70.5765 302.145C70.5481 302.003 70.487 301.875 70.3932 301.762C70.2995 301.645 70.1759 301.553 70.0225 301.485C69.8719 301.414 69.6915 301.378 69.4813 301.378C69.2001 301.378 68.9628 301.438 68.7697 301.557C68.5765 301.674 68.4799 301.83 68.4799 302.026C68.4799 302.182 68.5424 302.314 68.6674 302.422C68.7924 302.53 69.0069 302.617 69.3109 302.682L70.4955 302.921C71.1319 303.052 71.6063 303.262 71.9188 303.552C72.2313 303.841 72.3876 304.222 72.3876 304.694C72.3876 305.123 72.2611 305.499 72.0083 305.823C71.7583 306.147 71.4146 306.4 70.9771 306.581C70.5424 306.76 70.041 306.85 69.4728 306.85C68.6063 306.85 67.916 306.669 67.4018 306.309C66.8904 305.945 66.5907 305.451 66.5026 304.826L68.2881 304.732C68.3421 304.996 68.4728 305.198 68.6802 305.337C68.8876 305.473 69.1532 305.542 69.4771 305.542C69.7952 305.542 70.0509 305.481 70.2441 305.358C70.4401 305.233 70.5396 305.073 70.5424 304.877C70.5396 304.712 70.47 304.577 70.3336 304.472C70.1972 304.364 69.987 304.282 69.7029 304.225L68.5694 303.999C67.9302 303.871 67.4543 303.65 67.1418 303.334C66.8322 303.019 66.6773 302.617 66.6773 302.128C66.6773 301.708 66.791 301.346 67.0182 301.042C67.2484 300.738 67.5708 300.503 67.9856 300.339C68.4032 300.174 68.8918 300.091 69.4515 300.091C70.2782 300.091 70.9288 300.266 71.4032 300.616C71.8805 300.965 72.1589 301.441 72.2384 302.043ZM78.2881 306.85C77.6176 306.85 77.0409 306.708 76.558 306.424C76.0778 306.137 75.7085 305.739 75.45 305.231C75.1943 304.722 75.0665 304.137 75.0665 303.475C75.0665 302.804 75.1957 302.216 75.4543 301.711C75.7156 301.202 76.0864 300.806 76.5665 300.522C77.0466 300.235 77.6176 300.091 78.2795 300.091C78.8506 300.091 79.3506 300.195 79.7795 300.402C80.2085 300.61 80.548 300.901 80.798 301.276C81.048 301.651 81.1858 302.091 81.2114 302.597H79.4983C79.45 302.27 79.3222 302.008 79.1148 301.809C78.9102 301.607 78.6418 301.506 78.3094 301.506C78.0281 301.506 77.7824 301.583 77.5722 301.736C77.3648 301.887 77.2028 302.107 77.0864 302.397C76.9699 302.687 76.9116 303.037 76.9116 303.449C76.9116 303.867 76.9685 304.222 77.0821 304.515C77.1986 304.807 77.3619 305.03 77.5722 305.184C77.7824 305.337 78.0281 305.414 78.3094 305.414C78.5168 305.414 78.7028 305.371 78.8676 305.286C79.0352 305.201 79.173 305.077 79.281 304.915C79.3918 304.75 79.4642 304.553 79.4983 304.323H81.2114C81.183 304.823 81.0466 305.263 80.8023 305.644C80.5608 306.022 80.227 306.317 79.8008 306.53C79.3747 306.743 78.8705 306.85 78.2881 306.85ZM85.989 302.938V306.722H84.1736V297.995H85.9378V301.331H86.0146C86.1623 300.945 86.4009 300.643 86.7305 300.424C87.06 300.202 87.4734 300.091 87.9705 300.091C88.4251 300.091 88.8214 300.191 89.1594 300.39C89.5003 300.586 89.7646 300.868 89.9521 301.238C90.1424 301.604 90.2361 302.043 90.2333 302.554V306.722H88.418V302.878C88.4208 302.475 88.3185 302.161 88.1111 301.937C87.9066 301.712 87.6197 301.6 87.2503 301.6C87.0032 301.6 86.7844 301.652 86.5941 301.758C86.4066 301.863 86.2589 302.016 86.1509 302.218C86.0458 302.417 85.9918 302.657 85.989 302.938ZM96.4193 306.85C95.7574 306.85 95.1849 306.709 94.702 306.428C94.2219 306.144 93.8511 305.749 93.5898 305.243C93.3284 304.735 93.1977 304.145 93.1977 303.475C93.1977 302.799 93.3284 302.208 93.5898 301.702C93.8511 301.194 94.2219 300.799 94.702 300.517C95.1849 300.233 95.7574 300.091 96.4193 300.091C97.0812 300.091 97.6523 300.233 98.1324 300.517C98.6153 300.799 98.9875 301.194 99.2489 301.702C99.5102 302.208 99.6409 302.799 99.6409 303.475C99.6409 304.145 99.5102 304.735 99.2489 305.243C98.9875 305.749 98.6153 306.144 98.1324 306.428C97.6523 306.709 97.0812 306.85 96.4193 306.85ZM96.4278 305.444C96.729 305.444 96.9804 305.358 97.1821 305.188C97.3838 305.015 97.5358 304.779 97.6381 304.481C97.7432 304.182 97.7957 303.843 97.7957 303.462C97.7957 303.081 97.7432 302.742 97.6381 302.444C97.5358 302.145 97.3838 301.91 97.1821 301.736C96.9804 301.563 96.729 301.476 96.4278 301.476C96.1239 301.476 95.8682 301.563 95.6608 301.736C95.4562 301.91 95.3014 302.145 95.1963 302.444C95.094 302.742 95.0429 303.081 95.0429 303.462C95.0429 303.843 95.094 304.182 95.1963 304.481C95.3014 304.779 95.4562 305.015 95.6608 305.188C95.8682 305.358 96.1239 305.444 96.4278 305.444ZM105.579 306.85C104.917 306.85 104.344 306.709 103.861 306.428C103.381 306.144 103.011 305.749 102.749 305.243C102.488 304.735 102.357 304.145 102.357 303.475C102.357 302.799 102.488 302.208 102.749 301.702C103.011 301.194 103.381 300.799 103.861 300.517C104.344 300.233 104.917 300.091 105.579 300.091C106.241 300.091 106.812 300.233 107.292 300.517C107.775 300.799 108.147 301.194 108.408 301.702C108.67 302.208 108.8 302.799 108.8 303.475C108.8 304.145 108.67 304.735 108.408 305.243C108.147 305.749 107.775 306.144 107.292 306.428C106.812 306.709 106.241 306.85 105.579 306.85ZM105.587 305.444C105.888 305.444 106.14 305.358 106.341 305.188C106.543 305.015 106.695 304.779 106.797 304.481C106.903 304.182 106.955 303.843 106.955 303.462C106.955 303.081 106.903 302.742 106.797 302.444C106.695 302.145 106.543 301.91 106.341 301.736C106.14 301.563 105.888 301.476 105.587 301.476C105.283 301.476 105.028 301.563 104.82 301.736C104.616 301.91 104.461 302.145 104.356 302.444C104.253 302.742 104.202 303.081 104.202 303.462C104.202 303.843 104.253 304.182 104.356 304.481C104.461 304.779 104.616 305.015 104.82 305.188C105.028 305.358 105.283 305.444 105.587 305.444ZM113.596 297.995V306.722H111.781V297.995H113.596ZM117.911 306.833C117.63 306.833 117.389 306.733 117.187 306.535C116.988 306.333 116.889 306.091 116.889 305.81C116.889 305.532 116.988 305.293 117.187 305.094C117.389 304.895 117.63 304.796 117.911 304.796C118.184 304.796 118.423 304.895 118.627 305.094C118.832 305.293 118.934 305.532 118.934 305.81C118.934 305.998 118.886 306.169 118.789 306.326C118.695 306.479 118.572 306.603 118.418 306.696C118.265 306.787 118.096 306.833 117.911 306.833Z" fill="#47A0DF"/>
<path d="M135.069 297.995H137.136L139.126 301.753H139.211L141.201 297.995H143.268L140.085 303.637V306.722H138.252V303.637L135.069 297.995ZM147.628 306.85C146.966 306.85 146.394 306.709 145.911 306.428C145.43 306.144 145.06 305.749 144.798 305.243C144.537 304.735 144.406 304.145 144.406 303.475C144.406 302.799 144.537 302.208 144.798 301.702C145.06 301.194 145.43 300.799 145.911 300.517C146.394 300.233 146.966 300.091 147.628 300.091C148.29 300.091 148.861 300.233 149.341 300.517C149.824 300.799 150.196 301.194 150.457 301.702C150.719 302.208 150.85 302.799 150.85 303.475C150.85 304.145 150.719 304.735 150.457 305.243C150.196 305.749 149.824 306.144 149.341 306.428C148.861 306.709 148.29 306.85 147.628 306.85ZM147.636 305.444C147.938 305.444 148.189 305.358 148.391 305.188C148.592 305.015 148.744 304.779 148.847 304.481C148.952 304.182 149.004 303.843 149.004 303.462C149.004 303.081 148.952 302.742 148.847 302.444C148.744 302.145 148.592 301.91 148.391 301.736C148.189 301.563 147.938 301.476 147.636 301.476C147.332 301.476 147.077 301.563 146.869 301.736C146.665 301.91 146.51 302.145 146.405 302.444C146.303 302.742 146.251 303.081 146.251 303.462C146.251 303.843 146.303 304.182 146.405 304.481C146.51 304.779 146.665 305.015 146.869 305.188C147.077 305.358 147.332 305.444 147.636 305.444ZM158.027 303.935V300.177H159.843V306.722H158.1V305.533H158.032C157.884 305.917 157.638 306.225 157.294 306.458C156.953 306.691 156.537 306.807 156.046 306.807C155.608 306.807 155.223 306.708 154.891 306.509C154.559 306.31 154.299 306.027 154.111 305.661C153.926 305.294 153.833 304.856 153.83 304.344V300.177H155.645V304.02C155.648 304.407 155.752 304.712 155.956 304.937C156.161 305.161 156.435 305.273 156.779 305.273C156.998 305.273 157.202 305.223 157.392 305.124C157.583 305.022 157.736 304.871 157.853 304.672C157.972 304.473 158.03 304.228 158.027 303.935ZM163.095 306.722V300.177H164.855V301.319H164.923C165.042 300.912 165.242 300.606 165.524 300.398C165.805 300.188 166.129 300.083 166.495 300.083C166.586 300.083 166.684 300.089 166.789 300.1C166.894 300.111 166.987 300.127 167.066 300.147V301.758C166.981 301.732 166.863 301.709 166.713 301.689C166.562 301.669 166.424 301.66 166.299 301.66C166.032 301.66 165.794 301.718 165.583 301.834C165.376 301.948 165.211 302.107 165.089 302.312C164.97 302.516 164.91 302.752 164.91 303.019V306.722H163.095ZM177.34 306.85C176.669 306.85 176.092 306.708 175.61 306.424C175.129 306.137 174.76 305.739 174.502 305.231C174.246 304.722 174.118 304.137 174.118 303.475C174.118 302.804 174.247 302.216 174.506 301.711C174.767 301.202 175.138 300.806 175.618 300.522C176.098 300.235 176.669 300.091 177.331 300.091C177.902 300.091 178.402 300.195 178.831 300.402C179.26 300.61 179.6 300.901 179.85 301.276C180.1 301.651 180.237 302.091 180.263 302.597H178.55C178.502 302.27 178.374 302.008 178.166 301.809C177.962 301.607 177.693 301.506 177.361 301.506C177.08 301.506 176.834 301.583 176.624 301.736C176.416 301.887 176.254 302.107 176.138 302.397C176.021 302.687 175.963 303.037 175.963 303.449C175.963 303.867 176.02 304.222 176.134 304.515C176.25 304.807 176.413 305.03 176.624 305.184C176.834 305.337 177.08 305.414 177.361 305.414C177.568 305.414 177.754 305.371 177.919 305.286C178.087 305.201 178.225 305.077 178.333 304.915C178.443 304.75 178.516 304.553 178.55 304.323H180.263C180.235 304.823 180.098 305.263 179.854 305.644C179.612 306.022 179.279 306.317 178.852 306.53C178.426 306.743 177.922 306.85 177.34 306.85ZM185.041 302.938V306.722H183.225V297.995H184.989V301.331H185.066C185.214 300.945 185.452 300.643 185.782 300.424C186.112 300.202 186.525 300.091 187.022 300.091C187.477 300.091 187.873 300.191 188.211 300.39C188.552 300.586 188.816 300.868 189.004 301.238C189.194 301.604 189.288 302.043 189.285 302.554V306.722H187.47V302.878C187.472 302.475 187.37 302.161 187.163 301.937C186.958 301.712 186.671 301.6 186.302 301.6C186.055 301.6 185.836 301.652 185.646 301.758C185.458 301.863 185.31 302.016 185.202 302.218C185.097 302.417 185.043 302.657 185.041 302.938ZM192.513 306.722V300.177H194.329V306.722H192.513ZM193.425 299.333C193.156 299.333 192.924 299.243 192.731 299.064C192.54 298.883 192.445 298.665 192.445 298.412C192.445 298.162 192.54 297.948 192.731 297.769C192.924 297.587 193.156 297.496 193.425 297.496C193.695 297.496 193.925 297.587 194.116 297.769C194.309 297.948 194.406 298.162 194.406 298.412C194.406 298.665 194.309 298.883 194.116 299.064C193.925 299.243 193.695 299.333 193.425 299.333ZM199.398 297.995V306.722H197.583V297.995H199.398ZM205.064 306.829C204.567 306.829 204.117 306.701 203.714 306.445C203.313 306.187 202.995 305.807 202.759 305.307C202.526 304.804 202.41 304.188 202.41 303.458C202.41 302.708 202.53 302.084 202.772 301.587C203.013 301.087 203.334 300.714 203.735 300.466C204.138 300.216 204.58 300.091 205.06 300.091C205.427 300.091 205.732 300.154 205.976 300.279C206.224 300.401 206.422 300.554 206.573 300.739C206.726 300.921 206.843 301.1 206.922 301.276H206.978V297.995H208.789V306.722H206.999V305.674H206.922C206.837 305.856 206.716 306.036 206.56 306.215C206.407 306.391 206.207 306.537 205.959 306.654C205.715 306.77 205.417 306.829 205.064 306.829ZM205.64 305.384C205.932 305.384 206.18 305.304 206.381 305.145C206.586 304.983 206.742 304.758 206.85 304.468C206.961 304.178 207.016 303.839 207.016 303.449C207.016 303.06 206.962 302.722 206.854 302.435C206.746 302.148 206.59 301.927 206.386 301.77C206.181 301.614 205.932 301.536 205.64 301.536C205.341 301.536 205.09 301.617 204.886 301.779C204.681 301.941 204.526 302.165 204.421 302.452C204.316 302.739 204.263 303.071 204.263 303.449C204.263 303.83 204.316 304.167 204.421 304.459C204.529 304.749 204.684 304.976 204.886 305.141C205.09 305.303 205.341 305.384 205.64 305.384ZM212.081 306.722V300.177H213.841V301.319H213.91C214.029 300.912 214.229 300.606 214.51 300.398C214.792 300.188 215.116 300.083 215.482 300.083C215.573 300.083 215.671 300.089 215.776 300.1C215.881 300.111 215.974 300.127 216.053 300.147V301.758C215.968 301.732 215.85 301.709 215.699 301.689C215.549 301.669 215.411 301.66 215.286 301.66C215.019 301.66 214.78 301.718 214.57 301.834C214.363 301.948 214.198 302.107 214.076 302.312C213.956 302.516 213.897 302.752 213.897 303.019V306.722H212.081ZM221.47 306.85C220.797 306.85 220.217 306.714 219.731 306.441C219.248 306.165 218.876 305.776 218.615 305.273C218.353 304.768 218.223 304.169 218.223 303.479C218.223 302.806 218.353 302.215 218.615 301.706C218.876 301.198 219.244 300.802 219.718 300.517C220.196 300.233 220.755 300.091 221.397 300.091C221.829 300.091 222.231 300.161 222.603 300.3C222.978 300.437 223.305 300.643 223.584 300.918C223.865 301.194 224.084 301.54 224.24 301.958C224.396 302.373 224.474 302.858 224.474 303.415V303.914H218.947V302.789H222.765C222.765 302.527 222.709 302.296 222.595 302.094C222.481 301.893 222.324 301.735 222.122 301.621C221.923 301.505 221.691 301.446 221.427 301.446C221.152 301.446 220.907 301.51 220.694 301.638C220.484 301.763 220.319 301.932 220.2 302.145C220.081 302.356 220.02 302.59 220.017 302.848V303.918C220.017 304.242 220.076 304.522 220.196 304.758C220.318 304.993 220.49 305.175 220.711 305.303C220.933 305.431 221.196 305.495 221.5 305.495C221.701 305.495 221.886 305.466 222.054 305.41C222.221 305.353 222.365 305.268 222.484 305.154C222.603 305.04 222.694 304.901 222.757 304.736L224.436 304.847C224.351 305.25 224.176 305.603 223.912 305.904C223.65 306.202 223.312 306.435 222.897 306.603C222.486 306.768 222.01 306.85 221.47 306.85ZM229.274 302.938V306.722H227.459V300.177H229.189V301.331H229.266C229.411 300.951 229.653 300.65 229.994 300.428C230.335 300.204 230.749 300.091 231.234 300.091C231.689 300.091 232.085 300.191 232.423 300.39C232.761 300.589 233.024 300.873 233.212 301.242C233.399 301.608 233.493 302.046 233.493 302.554V306.722H231.678V302.878C231.68 302.478 231.578 302.165 231.371 301.941C231.163 301.714 230.878 301.6 230.514 301.6C230.27 301.6 230.054 301.652 229.866 301.758C229.682 301.863 229.537 302.016 229.432 302.218C229.33 302.417 229.277 302.657 229.274 302.938ZM237.785 306.833C237.503 306.833 237.262 306.733 237.06 306.535C236.861 306.333 236.762 306.091 236.762 305.81C236.762 305.532 236.861 305.293 237.06 305.094C237.262 304.895 237.503 304.796 237.785 304.796C238.057 304.796 238.296 304.895 238.501 305.094C238.705 305.293 238.807 305.532 238.807 305.81C238.807 305.998 238.759 306.169 238.663 306.326C238.569 306.479 238.445 306.603 238.292 306.696C238.138 306.787 237.969 306.833 237.785 306.833Z" fill="#99CC62"/>
<path d="M263.474 302.358C263.474 303.31 263.293 304.12 262.933 304.787C262.575 305.455 262.086 305.965 261.467 306.317C260.85 306.667 260.157 306.841 259.387 306.841C258.612 306.841 257.915 306.665 257.299 306.313C256.683 305.961 256.195 305.451 255.837 304.783C255.479 304.116 255.3 303.307 255.3 302.358C255.3 301.407 255.479 300.597 255.837 299.929C256.195 299.262 256.683 298.753 257.299 298.404C257.915 298.052 258.612 297.875 259.387 297.875C260.157 297.875 260.85 298.052 261.467 298.404C262.086 298.753 262.575 299.262 262.933 299.929C263.293 300.597 263.474 301.407 263.474 302.358ZM261.603 302.358C261.603 301.742 261.511 301.222 261.326 300.799C261.144 300.375 260.887 300.054 260.555 299.836C260.222 299.617 259.833 299.508 259.387 299.508C258.941 299.508 258.552 299.617 258.219 299.836C257.887 300.054 257.629 300.375 257.444 300.799C257.262 301.222 257.171 301.742 257.171 302.358C257.171 302.975 257.262 303.495 257.444 303.918C257.629 304.341 257.887 304.662 258.219 304.881C258.552 305.1 258.941 305.209 259.387 305.209C259.833 305.209 260.222 305.1 260.555 304.881C260.887 304.662 261.144 304.341 261.326 303.918C261.511 303.495 261.603 302.975 261.603 302.358ZM268.422 302.938V306.722H266.606V300.177H268.337V301.331H268.413C268.558 300.951 268.801 300.65 269.142 300.428C269.483 300.204 269.896 300.091 270.382 300.091C270.837 300.091 271.233 300.191 271.571 300.39C271.909 300.589 272.172 300.873 272.359 301.242C272.547 301.608 272.641 302.046 272.641 302.554V306.722H270.825V302.878C270.828 302.478 270.726 302.165 270.518 301.941C270.311 301.714 270.025 301.6 269.662 301.6C269.418 301.6 269.202 301.652 269.014 301.758C268.829 301.863 268.685 302.016 268.579 302.218C268.477 302.417 268.425 302.657 268.422 302.938ZM278.854 306.85C278.181 306.85 277.601 306.714 277.116 306.441C276.633 306.165 276.26 305.776 275.999 305.273C275.738 304.768 275.607 304.169 275.607 303.479C275.607 302.806 275.738 302.215 275.999 301.706C276.26 301.198 276.628 300.802 277.103 300.517C277.58 300.233 278.14 300.091 278.782 300.091C279.214 300.091 279.616 300.161 279.988 300.3C280.363 300.437 280.689 300.643 280.968 300.918C281.249 301.194 281.468 301.54 281.624 301.958C281.78 302.373 281.858 302.858 281.858 303.415V303.914H276.332V302.789H280.15C280.15 302.527 280.093 302.296 279.979 302.094C279.866 301.893 279.708 301.735 279.506 301.621C279.307 301.505 279.076 301.446 278.812 301.446C278.536 301.446 278.292 301.51 278.079 301.638C277.868 301.763 277.704 301.932 277.584 302.145C277.465 302.356 277.404 302.59 277.401 302.848V303.918C277.401 304.242 277.461 304.522 277.58 304.758C277.702 304.993 277.874 305.175 278.096 305.303C278.317 305.431 278.58 305.495 278.884 305.495C279.086 305.495 279.27 305.466 279.438 305.41C279.606 305.353 279.749 305.268 279.868 305.154C279.988 305.04 280.079 304.901 280.141 304.736L281.82 304.847C281.735 305.25 281.56 305.603 281.296 305.904C281.035 306.202 280.697 306.435 280.282 306.603C279.87 306.768 279.394 306.85 278.854 306.85ZM289.421 309.177V300.177H291.21V301.276H291.291C291.371 301.1 291.486 300.921 291.636 300.739C291.79 300.554 291.989 300.401 292.233 300.279C292.48 300.154 292.787 300.091 293.153 300.091C293.631 300.091 294.071 300.216 294.474 300.466C294.878 300.714 295.2 301.087 295.442 301.587C295.683 302.084 295.804 302.708 295.804 303.458C295.804 304.188 295.686 304.804 295.45 305.307C295.217 305.807 294.899 306.187 294.496 306.445C294.095 306.701 293.646 306.829 293.149 306.829C292.797 306.829 292.497 306.77 292.25 306.654C292.006 306.537 291.805 306.391 291.649 306.215C291.493 306.036 291.374 305.856 291.291 305.674H291.236V309.177H289.421ZM291.197 303.449C291.197 303.839 291.251 304.178 291.359 304.468C291.467 304.758 291.624 304.983 291.828 305.145C292.033 305.304 292.281 305.384 292.574 305.384C292.869 305.384 293.119 305.303 293.324 305.141C293.528 304.976 293.683 304.749 293.788 304.459C293.896 304.167 293.95 303.83 293.95 303.449C293.95 303.071 293.898 302.739 293.793 302.452C293.688 302.165 293.533 301.941 293.328 301.779C293.124 301.617 292.872 301.536 292.574 301.536C292.278 301.536 292.028 301.614 291.824 301.77C291.622 301.927 291.467 302.148 291.359 302.435C291.251 302.722 291.197 303.06 291.197 303.449ZM300.63 297.995V306.722H298.814V297.995H300.63ZM305.75 306.846C305.333 306.846 304.96 306.773 304.634 306.628C304.307 306.481 304.049 306.263 303.858 305.976C303.671 305.687 303.577 305.326 303.577 304.894C303.577 304.53 303.644 304.225 303.777 303.978C303.911 303.731 304.093 303.532 304.323 303.381C304.553 303.231 304.814 303.117 305.107 303.04C305.402 302.964 305.712 302.91 306.036 302.878C306.416 302.839 306.723 302.802 306.956 302.768C307.189 302.731 307.358 302.677 307.463 302.606C307.568 302.535 307.621 302.429 307.621 302.29V302.265C307.621 301.995 307.536 301.786 307.365 301.638C307.198 301.491 306.959 301.417 306.649 301.417C306.323 301.417 306.063 301.489 305.87 301.634C305.676 301.776 305.549 301.955 305.486 302.171L303.807 302.035C303.892 301.637 304.06 301.293 304.31 301.003C304.56 300.711 304.882 300.486 305.277 300.33C305.675 300.171 306.135 300.091 306.658 300.091C307.022 300.091 307.37 300.134 307.702 300.219C308.037 300.304 308.334 300.437 308.593 300.616C308.854 300.794 309.06 301.025 309.21 301.306C309.361 301.584 309.436 301.918 309.436 302.307V306.722H307.715V305.814H307.664C307.559 306.019 307.418 306.199 307.242 306.356C307.066 306.509 306.854 306.63 306.607 306.718C306.36 306.803 306.074 306.846 305.75 306.846ZM306.27 305.593C306.537 305.593 306.773 305.54 306.978 305.435C307.182 305.327 307.343 305.182 307.459 305C307.576 304.819 307.634 304.613 307.634 304.383V303.688C307.577 303.725 307.499 303.759 307.399 303.79C307.303 303.819 307.193 303.846 307.071 303.871C306.949 303.894 306.827 303.915 306.705 303.935C306.583 303.952 306.472 303.968 306.372 303.982C306.159 304.013 305.973 304.063 305.814 304.131C305.655 304.199 305.532 304.292 305.443 304.408C305.355 304.522 305.311 304.664 305.311 304.834C305.311 305.081 305.401 305.27 305.58 305.401C305.762 305.529 305.992 305.593 306.27 305.593ZM316.126 300.177V301.54H312.185V300.177H316.126ZM313.079 298.608H314.895V304.711C314.895 304.878 314.92 305.009 314.971 305.103C315.023 305.194 315.094 305.258 315.185 305.294C315.278 305.331 315.386 305.35 315.508 305.35C315.594 305.35 315.679 305.343 315.764 305.329C315.849 305.312 315.915 305.299 315.96 305.29L316.246 306.641C316.155 306.669 316.027 306.702 315.862 306.739C315.697 306.779 315.497 306.803 315.261 306.812C314.824 306.829 314.44 306.77 314.111 306.637C313.784 306.503 313.53 306.296 313.348 306.015C313.166 305.733 313.077 305.378 313.079 304.949V298.608ZM322.629 300.177V301.54H318.589V300.177H322.629ZM319.514 306.722V299.704C319.514 299.229 319.606 298.836 319.791 298.523C319.978 298.211 320.234 297.976 320.558 297.82C320.882 297.664 321.249 297.586 321.661 297.586C321.94 297.586 322.194 297.607 322.424 297.65C322.657 297.692 322.83 297.731 322.944 297.765L322.62 299.128C322.549 299.106 322.461 299.084 322.356 299.064C322.254 299.044 322.149 299.035 322.041 299.035C321.774 299.035 321.587 299.097 321.482 299.222C321.377 299.344 321.325 299.516 321.325 299.738V306.722H319.514ZM328.261 306.85C327.599 306.85 327.026 306.709 326.543 306.428C326.063 306.144 325.693 305.749 325.431 305.243C325.17 304.735 325.039 304.145 325.039 303.475C325.039 302.799 325.17 302.208 325.431 301.702C325.693 301.194 326.063 300.799 326.543 300.517C327.026 300.233 327.599 300.091 328.261 300.091C328.923 300.091 329.494 300.233 329.974 300.517C330.457 300.799 330.829 301.194 331.09 301.702C331.352 302.208 331.482 302.799 331.482 303.475C331.482 304.145 331.352 304.735 331.09 305.243C330.829 305.749 330.457 306.144 329.974 306.428C329.494 306.709 328.923 306.85 328.261 306.85ZM328.269 305.444C328.57 305.444 328.822 305.358 329.023 305.188C329.225 305.015 329.377 304.779 329.479 304.481C329.585 304.182 329.637 303.843 329.637 303.462C329.637 303.081 329.585 302.742 329.479 302.444C329.377 302.145 329.225 301.91 329.023 301.736C328.822 301.563 328.57 301.476 328.269 301.476C327.965 301.476 327.71 301.563 327.502 301.736C327.298 301.91 327.143 302.145 327.038 302.444C326.935 302.742 326.884 303.081 326.884 303.462C326.884 303.843 326.935 304.182 327.038 304.481C327.143 304.779 327.298 305.015 327.502 305.188C327.71 305.358 327.965 305.444 328.269 305.444ZM334.463 306.722V300.177H336.223V301.319H336.291C336.41 300.912 336.61 300.606 336.892 300.398C337.173 300.188 337.497 300.083 337.863 300.083C337.954 300.083 338.052 300.089 338.157 300.1C338.262 300.111 338.355 300.127 338.434 300.147V301.758C338.349 301.732 338.231 301.709 338.081 301.689C337.93 301.669 337.792 301.66 337.667 301.66C337.4 301.66 337.162 301.718 336.951 301.834C336.744 301.948 336.579 302.107 336.457 302.312C336.338 302.516 336.278 302.752 336.278 303.019V306.722H334.463ZM341.173 306.722V300.177H342.903V301.331H342.98C343.116 300.948 343.343 300.645 343.661 300.424C343.98 300.202 344.36 300.091 344.804 300.091C345.252 300.091 345.635 300.204 345.95 300.428C346.265 300.65 346.475 300.951 346.581 301.331H346.649C346.782 300.956 347.024 300.657 347.373 300.432C347.725 300.205 348.142 300.091 348.622 300.091C349.233 300.091 349.728 300.286 350.109 300.675C350.492 301.062 350.684 301.61 350.684 302.32V306.722H348.873V302.678C348.873 302.314 348.777 302.042 348.583 301.86C348.39 301.678 348.149 301.587 347.859 301.587C347.529 301.587 347.272 301.692 347.088 301.902C346.903 302.11 346.811 302.384 346.811 302.725V306.722H345.051V302.64C345.051 302.319 344.958 302.063 344.774 301.873C344.592 301.682 344.352 301.587 344.054 301.587C343.852 301.587 343.67 301.638 343.508 301.741C343.349 301.84 343.223 301.981 343.129 302.162C343.035 302.341 342.988 302.552 342.988 302.793V306.722H341.173ZM354.979 306.833C354.698 306.833 354.457 306.733 354.255 306.535C354.056 306.333 353.957 306.091 353.957 305.81C353.957 305.532 354.056 305.293 354.255 305.094C354.457 304.895 354.698 304.796 354.979 304.796C355.252 304.796 355.491 304.895 355.695 305.094C355.9 305.293 356.002 305.532 356.002 305.81C356.002 305.998 355.954 306.169 355.857 306.326C355.763 306.479 355.64 306.603 355.486 306.696C355.333 306.787 355.164 306.833 354.979 306.833Z" fill="#EC8A3B"/>
<path d="M104.773 75.9494V75.725C104.773 70.7774 108.784 66.7617 113.736 66.7617H186.057C193.869 66.7617 200.197 73.095 200.197 80.9019V85.3762C200.197 88.0745 199.143 90.6605 197.26 92.5927L170.741 119.795C167.823 122.791 163.061 122.961 159.933 120.19L158.557 118.97C155.239 116.028 155.02 110.924 158.074 107.709L179.236 85.4348L113.663 84.9127C108.74 84.8736 104.773 80.8726 104.773 75.9494Z" fill="#47A0DF"/>
<path d="M201.612 172.872V173.096C201.612 178.044 197.601 182.059 192.649 182.059H121.553C113.068 182.059 106.193 175.18 106.193 166.699C106.193 161.922 108.067 157.331 111.414 153.92L143.407 121.302C146.667 117.98 151.965 117.794 155.449 120.883C159.167 124.181 159.397 129.909 155.947 133.491L130.116 160.317C128.999 161.478 129.814 163.416 131.424 163.43L192.727 163.918C197.65 163.957 201.617 167.958 201.617 172.881L201.612 172.872Z" fill="#99CC62"/>
<path d="M245.809 66.7617H247.19C251.679 66.7617 255.314 70.3968 255.314 74.8857V77.2132C255.314 78.8721 254.665 80.4628 253.503 81.6484L213.498 122.454C212.039 123.942 212.054 126.328 213.532 127.797L253.23 167.226C254.562 168.553 255.314 170.354 255.314 172.232V173.994C255.314 178.107 251.981 181.445 247.863 181.445H245.174C243.315 181.445 241.53 180.713 240.207 179.405L196.113 135.77C190.185 129.9 190.131 120.336 196.001 114.403L241.3 68.6402C242.491 67.4399 244.111 66.7617 245.804 66.7617H245.809Z" fill="#EC8A3B"/>
</svg>
