<svg xmlns="http://www.w3.org/2000/svg" xmlns:xlink="http://www.w3.org/1999/xlink" width="192" zoomAndPan="magnify" viewBox="0 0 144 143.999998" height="192" preserveAspectRatio="xMidYMid meet" version="1.0"><path fill="#47a0df" d="M 10.5625 34.683594 L 10.5625 34.503906 C 10.5625 30.496094 13.808594 27.242188 17.820312 27.242188 L 76.386719 27.242188 C 82.714844 27.242188 87.839844 32.371094 87.839844 38.695312 L 87.839844 42.320312 C 87.839844 44.503906 86.984375 46.597656 85.460938 48.164062 L 63.984375 70.191406 C 61.621094 72.617188 57.765625 72.757812 55.230469 70.511719 L 54.117188 69.523438 C 51.429688 67.140625 51.253906 63.007812 53.726562 60.402344 L 70.863281 42.367188 L 17.761719 41.941406 C 13.773438 41.910156 10.5625 38.671875 10.5625 34.683594 Z M 10.5625 34.683594 " fill-opacity="1" fill-rule="nonzero"/><path fill="#99cc62" d="M 88.984375 113.175781 L 88.984375 113.355469 C 88.984375 117.363281 85.734375 120.613281 81.726562 120.613281 L 24.148438 120.613281 C 17.277344 120.613281 11.710938 115.042969 11.710938 108.175781 C 11.710938 104.308594 13.226562 100.589844 15.9375 97.828125 L 41.847656 71.414062 C 44.488281 68.722656 48.777344 68.570312 51.601562 71.074219 C 54.609375 73.742188 54.796875 78.382812 52.003906 81.28125 L 31.085938 103.007812 C 30.179688 103.949219 30.839844 105.515625 32.144531 105.527344 L 81.789062 105.925781 C 85.777344 105.957031 88.988281 109.195312 88.988281 113.183594 Z M 88.984375 113.175781 " fill-opacity="1" fill-rule="nonzero"/><path fill="#ec8a3b" d="M 124.777344 27.242188 L 125.894531 27.242188 C 129.53125 27.242188 132.472656 30.1875 132.472656 33.824219 L 132.472656 35.707031 C 132.472656 37.050781 131.949219 38.339844 131.007812 39.300781 L 98.609375 72.34375 C 97.429688 73.550781 97.441406 75.480469 98.636719 76.671875 L 130.785156 108.601562 C 131.863281 109.675781 132.472656 111.136719 132.472656 112.65625 L 132.472656 114.082031 C 132.472656 117.414062 129.773438 120.117188 126.441406 120.117188 L 124.261719 120.117188 C 122.757812 120.117188 121.3125 119.523438 120.238281 118.464844 L 84.53125 83.128906 C 79.730469 78.375 79.6875 70.628906 84.441406 65.824219 L 121.125 28.765625 C 122.089844 27.792969 123.402344 27.242188 124.773438 27.242188 Z M 124.777344 27.242188 " fill-opacity="1" fill-rule="nonzero"/></svg>