<svg xmlns="http://www.w3.org/2000/svg" xmlns:xlink="http://www.w3.org/1999/xlink" width="500" zoomAndPan="magnify" viewBox="0 0 375 374.999991" height="500" preserveAspectRatio="xMidYMid meet" version="1.0"><path fill="#47a0df" d="M 28.136719 90.863281 L 28.136719 90.390625 C 28.136719 79.949219 36.601562 71.472656 47.054688 71.472656 L 199.703125 71.472656 C 216.1875 71.472656 229.546875 84.839844 229.546875 101.316406 L 229.546875 110.761719 C 229.546875 116.457031 227.320312 121.914062 223.347656 125.992188 L 167.375 183.40625 C 161.214844 189.730469 151.164062 190.089844 144.5625 184.242188 L 141.660156 181.667969 C 134.65625 175.457031 134.191406 164.683594 140.640625 157.898438 L 185.304688 110.886719 L 46.902344 109.785156 C 36.507812 109.699219 28.136719 101.257812 28.136719 90.863281 Z M 28.136719 90.863281 " fill-opacity="1" fill-rule="nonzero"/><path fill="#99cc62" d="M 232.535156 295.4375 L 232.535156 295.910156 C 232.535156 306.351562 224.066406 314.828125 213.613281 314.828125 L 63.554688 314.828125 C 45.644531 314.828125 31.132812 300.308594 31.132812 282.410156 C 31.132812 272.328125 35.089844 262.636719 42.152344 255.4375 L 109.679688 186.589844 C 116.5625 179.578125 127.746094 179.1875 135.097656 185.703125 C 142.945312 192.667969 143.429688 204.757812 136.148438 212.316406 L 81.628906 268.9375 C 79.269531 271.390625 80.988281 275.476562 84.386719 275.507812 L 213.78125 276.539062 C 224.171875 276.621094 232.542969 285.066406 232.542969 295.457031 Z M 232.535156 295.4375 " fill-opacity="1" fill-rule="nonzero"/><path fill="#ec8a3b" d="M 325.816406 71.472656 L 328.734375 71.472656 C 338.207031 71.472656 345.878906 79.144531 345.878906 88.621094 L 345.878906 93.53125 C 345.878906 97.035156 344.511719 100.390625 342.058594 102.894531 L 257.621094 189.019531 C 254.542969 192.160156 254.574219 197.199219 257.691406 200.296875 L 341.480469 283.519531 C 344.292969 286.320312 345.878906 290.121094 345.878906 294.085938 L 345.878906 297.804688 C 345.878906 306.488281 338.847656 313.53125 330.152344 313.53125 L 324.480469 313.53125 C 320.554688 313.53125 316.785156 311.984375 313.996094 309.226562 L 220.925781 217.125 C 208.414062 204.738281 208.300781 184.550781 220.691406 172.027344 L 316.300781 75.4375 C 318.816406 72.902344 322.234375 71.472656 325.808594 71.472656 Z M 325.816406 71.472656 " fill-opacity="1" fill-rule="nonzero"/></svg>