<svg width="692" height="692" viewBox="0 0 692 692" fill="none" xmlns="http://www.w3.org/2000/svg">
<path d="M418.726 456.33C425.11 456.005 431.027 453.341 434.694 448.039C438.36 442.736 439.503 435.306 439.75 428.729C439.873 425.617 439.363 421.625 439.758 418.679C440.427 413.781 449.29 413.553 450.591 418.09C451.506 421.282 450.882 430.892 450.442 434.506C448.868 447.546 440.84 458.256 427.668 461.034C427.703 461.386 428.011 461.369 428.24 461.465C429.647 462.019 431.344 462.327 432.803 462.934C443.258 467.295 449.158 476.958 450.442 488.002C450.873 491.678 451.523 501.165 450.591 504.419C449.334 508.815 440.321 508.78 439.741 503.627C439.248 499.292 439.926 494.096 439.512 489.541C438.404 477.108 432.416 466.556 418.726 466.178V504.076C418.726 504.26 418.022 505.632 417.838 505.869C415.763 508.41 408.772 508.261 407.761 504.533C407.278 475.965 407.664 447.291 407.568 418.688C408.034 414.142 415.965 413.781 418.022 416.912C418.146 417.105 418.726 418.345 418.726 418.442V456.339V456.33Z" fill="black"/>
<path d="M513.742 447.388V413.069C513.742 412.981 514.014 411.548 514.067 411.381C515.43 407.029 524.812 407.327 524.891 412.647L524.926 491.106C525.938 512.227 487.337 513.484 485.147 493.753C485.27 481.082 484.136 467.488 484.884 454.871C485.569 443.378 494.204 438.674 504.975 441.057C508.765 441.892 511.623 444.24 513.733 447.397L513.742 447.388ZM497.95 496.048C501.933 499.934 513.504 498.976 513.724 491.739L513.689 458.291C513.531 448.197 496.983 446.262 495.892 456.691C496.499 467.779 494.987 479.913 495.857 490.877C495.998 492.636 496.675 494.799 497.959 496.048H497.95Z" fill="black"/>
<path d="M85.3701 495.001H110.298C110.439 495.001 111.802 495.406 112.03 495.502C115.996 497.243 115.626 505.658 110.913 506.344L75.8738 506.397C72.7611 505.992 70.9586 503.917 71.3103 500.725L100.793 427.481H75.1967C74.9681 427.481 73.7283 426.944 73.447 426.777C70.0617 424.685 70.5893 417.096 75.0297 416.358L110.298 416.305C114.351 416.709 115.301 419.752 114.448 423.357L85.3701 495.001Z" fill="black"/>
<path d="M352.99 469.739V456.216C352.99 453.244 350.185 450.747 347.451 450.131C342.887 449.111 337.612 450.228 336.504 455.381C335.765 458.836 337.471 464.323 332.283 465.026C325.407 465.958 324.897 461.509 325.249 455.978C326.075 443.114 336.899 439.562 348.172 440.679C357.826 441.628 363.34 446.895 363.938 456.664C364.676 468.746 363.612 481.812 363.656 493.937C362.399 510.969 332.222 512.077 325.732 499.116C323.35 494.359 323.051 481.381 325.319 476.624C326.972 473.16 331.756 469.739 335.651 469.739H352.982H352.99ZM352.99 479.13H339.467C339.159 479.13 337.62 479.834 337.269 480.062C335.994 480.889 335.264 482.208 335.106 483.72C334.833 486.446 334.763 492.838 336.257 495.08C339.335 499.705 349.79 499.53 352.137 494.263C352.34 493.797 352.99 491.915 352.99 491.537V479.13Z" fill="black"/>
<path d="M557.073 440.512C570.104 440.336 578.906 446.711 577.429 460.656C576.813 466.495 567.194 466.073 566.517 461.113C566.165 458.555 566.86 456.805 565.708 454.097C563.184 448.135 551.182 448.329 549.045 454.642C548.439 456.444 548.395 461.404 548.606 463.373C548.834 465.475 550.382 466.653 552.228 467.348C561.223 470.706 576.541 469.985 577.455 482.366C578.51 496.733 575.653 506.916 559.456 507.76C547.735 508.366 538.107 504.19 537.412 491.326C537.131 486.164 538.265 482.304 544.447 483.403C550.241 484.432 547.77 489.805 549.036 493.559C551.217 500.013 563.659 499.996 565.919 493.656C566.657 491.598 566.877 484.766 566.016 482.841C565.233 481.091 563.721 480.458 562.015 479.913C557.1 478.339 551.718 477.459 546.768 475.938C536.902 472.905 536.902 466.073 537.421 456.875C538.089 445.031 546.003 440.661 557.064 440.512H557.073Z" fill="black"/>
<path d="M127.576 440.732C130.354 440.336 133.775 440.793 134.505 443.967L134.584 490.385C134.25 500.541 151.976 501.112 152.6 491.247L152.653 444.794C153.005 439.087 163.653 439.07 163.627 445.014L163.592 492.838C162.976 511.98 127.066 512.754 124.147 494.781C123.399 478.031 124.032 461.149 123.821 444.354C124.015 442.446 125.729 440.987 127.567 440.723L127.576 440.732Z" fill="black"/>
<path d="M229.301 440.732C232.079 440.336 235.5 440.793 236.23 443.967L236.309 490.385C235.975 500.541 253.701 501.112 254.325 491.247L254.378 444.794C254.73 439.087 265.378 439.07 265.352 445.014L265.316 492.838C264.701 511.98 228.791 512.754 225.872 494.781C225.124 478.031 225.757 461.149 225.546 444.354C225.74 442.446 227.454 440.987 229.292 440.723L229.301 440.732Z" fill="black"/>
<path d="M196.67 440.503C205.903 440.406 215.012 443.449 216.762 453.596C217.184 456.04 217.404 462.503 217 464.877C216.199 469.572 206.773 469.898 206.123 464.455C205.542 459.575 207.723 453.174 201.779 450.694C195.835 448.214 187.834 450.606 187.983 458.212V504.04C186.972 508.806 177.81 508.674 177.265 503.829V455.75C177.95 444.644 186.576 440.6 196.679 440.503H196.67Z" fill="black"/>
<path d="M298.404 440.503C307.637 440.406 316.746 443.449 318.496 453.596C318.918 456.04 319.138 462.503 318.733 464.877C317.933 469.572 308.507 469.898 307.856 464.455C307.276 459.575 309.457 453.174 303.513 450.694C297.569 448.214 289.567 450.606 289.717 458.212V504.04C288.706 508.806 279.543 508.674 278.998 503.829V455.75C279.684 444.644 288.31 440.6 298.413 440.503H298.404Z" fill="black"/>
<path d="M462.62 441.875C465.012 439.641 471.844 440.213 472.16 444.363V503.838C471.589 508.815 461.961 508.797 461.424 503.838V444.583C461.424 443.677 461.969 442.481 462.62 441.875Z" fill="black"/>
<path d="M462.62 432.326C462.013 431.763 461.512 430.664 461.424 429.837C460.826 424.254 461.794 417.518 461.521 411.829C462.471 407.213 471.466 407.292 472.134 412.199L472.055 430.409C471.123 434.075 465.012 434.568 462.62 432.334V432.326Z" fill="black"/>
<path d="M16.9584 536.659H21.0919L25.072 544.176H25.2425L29.2226 536.659H33.3561L26.9896 547.943V554.114H23.3248V547.943L16.9584 536.659ZM42.0761 554.369C40.7523 554.369 39.6074 554.088 38.6415 553.526C37.6812 552.957 36.9398 552.168 36.417 551.156C35.8943 550.139 35.6329 548.96 35.6329 547.619C35.6329 546.267 35.8943 545.085 36.417 544.074C36.9398 543.057 37.6812 542.267 38.6415 541.705C39.6074 541.136 40.7523 540.852 42.0761 540.852C43.4 540.852 44.542 541.136 45.5023 541.705C46.4682 542.267 47.2125 543.057 47.7352 544.074C48.2579 545.085 48.5193 546.267 48.5193 547.619C48.5193 548.96 48.2579 550.139 47.7352 551.156C47.2125 552.168 46.4682 552.957 45.5023 553.526C44.542 554.088 43.4 554.369 42.0761 554.369ZM42.0932 551.557C42.6954 551.557 43.1983 551.386 43.6017 551.045C44.0051 550.699 44.3091 550.227 44.5136 549.631C44.7239 549.034 44.829 548.355 44.829 547.594C44.829 546.832 44.7239 546.153 44.5136 545.557C44.3091 544.96 44.0051 544.489 43.6017 544.142C43.1983 543.795 42.6954 543.622 42.0932 543.622C41.4852 543.622 40.9739 543.795 40.5591 544.142C40.15 544.489 39.8403 544.96 39.6301 545.557C39.4256 546.153 39.3233 546.832 39.3233 547.594C39.3233 548.355 39.4256 549.034 39.6301 549.631C39.8403 550.227 40.15 550.699 40.5591 551.045C40.9739 551.386 41.4852 551.557 42.0932 551.557ZM62.875 548.54V541.023H66.5057V554.114H63.0199V551.736H62.8835C62.5881 552.503 62.0966 553.119 61.4091 553.585C60.7273 554.051 59.8949 554.284 58.9119 554.284C58.0369 554.284 57.267 554.085 56.6023 553.688C55.9375 553.29 55.4176 552.724 55.0426 551.992C54.6733 551.259 54.4858 550.381 54.4801 549.358V541.023H58.1108V548.71C58.1165 549.483 58.3239 550.094 58.7329 550.543C59.142 550.992 59.6903 551.216 60.3778 551.216C60.8153 551.216 61.2244 551.117 61.6051 550.918C61.9858 550.713 62.2926 550.412 62.5256 550.014C62.7642 549.617 62.8807 549.125 62.875 548.54ZM73.0098 554.114V541.023H76.5297V543.307H76.666C76.9047 542.494 77.3052 541.881 77.8677 541.466C78.4302 541.045 79.078 540.835 79.8109 540.835C79.9927 540.835 80.1888 540.847 80.399 540.869C80.6092 540.892 80.7939 540.923 80.953 540.963V544.185C80.7825 544.134 80.5467 544.088 80.2456 544.048C79.9445 544.009 79.6689 543.989 79.4189 543.989C78.8848 543.989 78.4075 544.105 77.9871 544.338C77.5723 544.565 77.2427 544.884 76.9984 545.293C76.7598 545.702 76.6405 546.173 76.6405 546.707V554.114H73.0098ZM106.477 544.756L103.153 544.96C103.096 544.676 102.974 544.42 102.786 544.193C102.599 543.96 102.352 543.776 102.045 543.639C101.744 543.497 101.383 543.426 100.963 543.426C100.4 543.426 99.9257 543.545 99.5393 543.784C99.153 544.017 98.9598 544.33 98.9598 544.722C98.9598 545.034 99.0848 545.298 99.3348 545.514C99.5848 545.73 100.014 545.903 100.622 546.034L102.991 546.511C104.264 546.773 105.213 547.193 105.838 547.773C106.463 548.352 106.775 549.114 106.775 550.057C106.775 550.915 106.522 551.668 106.017 552.315C105.517 552.963 104.829 553.469 103.954 553.832C103.085 554.19 102.082 554.369 100.946 554.369C99.2126 554.369 97.8319 554.009 96.8035 553.287C95.7808 552.56 95.1814 551.571 95.0052 550.321L98.5763 550.134C98.6842 550.662 98.9456 551.065 99.3604 551.344C99.7751 551.617 100.306 551.753 100.954 551.753C101.59 551.753 102.102 551.631 102.488 551.386C102.88 551.136 103.079 550.815 103.085 550.423C103.079 550.094 102.94 549.824 102.667 549.614C102.394 549.398 101.974 549.233 101.406 549.119L99.1388 548.668C97.8604 548.412 96.9087 547.969 96.2837 547.338C95.6643 546.707 95.3547 545.903 95.3547 544.926C95.3547 544.085 95.5819 543.361 96.0365 542.753C96.4967 542.145 97.1416 541.676 97.9712 541.347C98.8064 541.017 99.7837 540.852 100.903 540.852C102.556 540.852 103.858 541.202 104.806 541.901C105.761 542.599 106.318 543.551 106.477 544.756ZM118.576 554.369C117.235 554.369 116.082 554.085 115.116 553.517C114.156 552.943 113.417 552.148 112.9 551.131C112.389 550.114 112.133 548.943 112.133 547.619C112.133 546.278 112.391 545.102 112.909 544.091C113.431 543.074 114.173 542.281 115.133 541.713C116.093 541.139 117.235 540.852 118.559 540.852C119.701 540.852 120.701 541.06 121.559 541.474C122.417 541.889 123.096 542.472 123.596 543.222C124.096 543.972 124.372 544.852 124.423 545.864H120.997C120.9 545.21 120.644 544.685 120.23 544.287C119.82 543.884 119.284 543.682 118.619 543.682C118.056 543.682 117.565 543.835 117.144 544.142C116.73 544.443 116.406 544.884 116.173 545.463C115.94 546.043 115.823 546.744 115.823 547.568C115.823 548.403 115.937 549.114 116.164 549.699C116.397 550.284 116.724 550.73 117.144 551.037C117.565 551.344 118.056 551.497 118.619 551.497C119.034 551.497 119.406 551.412 119.735 551.242C120.07 551.071 120.346 550.824 120.562 550.5C120.784 550.17 120.928 549.776 120.997 549.315H124.423C124.366 550.315 124.093 551.196 123.605 551.957C123.122 552.713 122.454 553.304 121.602 553.73C120.749 554.156 119.741 554.369 118.576 554.369ZM133.978 546.545V554.114H130.347V536.659H133.876V543.332H134.029C134.325 542.56 134.802 541.955 135.461 541.517C136.12 541.074 136.947 540.852 137.941 540.852C138.85 540.852 139.643 541.051 140.319 541.449C141.001 541.841 141.529 542.406 141.904 543.145C142.285 543.878 142.472 544.756 142.467 545.778V554.114H138.836V546.426C138.842 545.619 138.637 544.992 138.222 544.543C137.813 544.094 137.239 543.869 136.501 543.869C136.006 543.869 135.569 543.974 135.188 544.185C134.813 544.395 134.518 544.702 134.302 545.105C134.092 545.503 133.984 545.983 133.978 546.545ZM154.839 554.369C153.515 554.369 152.37 554.088 151.404 553.526C150.444 552.957 149.702 552.168 149.18 551.156C148.657 550.139 148.395 548.96 148.395 547.619C148.395 546.267 148.657 545.085 149.18 544.074C149.702 543.057 150.444 542.267 151.404 541.705C152.37 541.136 153.515 540.852 154.839 540.852C156.162 540.852 157.305 541.136 158.265 541.705C159.231 542.267 159.975 543.057 160.498 544.074C161.02 545.085 161.282 546.267 161.282 547.619C161.282 548.96 161.02 550.139 160.498 551.156C159.975 552.168 159.231 552.957 158.265 553.526C157.305 554.088 156.162 554.369 154.839 554.369ZM154.856 551.557C155.458 551.557 155.961 551.386 156.364 551.045C156.768 550.699 157.072 550.227 157.276 549.631C157.486 549.034 157.591 548.355 157.591 547.594C157.591 546.832 157.486 546.153 157.276 545.557C157.072 544.96 156.768 544.489 156.364 544.142C155.961 543.795 155.458 543.622 154.856 543.622C154.248 543.622 153.736 543.795 153.322 544.142C152.912 544.489 152.603 544.96 152.393 545.557C152.188 546.153 152.086 546.832 152.086 547.594C152.086 548.355 152.188 549.034 152.393 549.631C152.603 550.227 152.912 550.699 153.322 551.045C153.736 551.386 154.248 551.557 154.856 551.557ZM173.157 554.369C171.834 554.369 170.689 554.088 169.723 553.526C168.762 552.957 168.021 552.168 167.498 551.156C166.976 550.139 166.714 548.96 166.714 547.619C166.714 546.267 166.976 545.085 167.498 544.074C168.021 543.057 168.762 542.267 169.723 541.705C170.689 541.136 171.834 540.852 173.157 540.852C174.481 540.852 175.623 541.136 176.584 541.705C177.549 542.267 178.294 543.057 178.816 544.074C179.339 545.085 179.601 546.267 179.601 547.619C179.601 548.96 179.339 550.139 178.816 551.156C178.294 552.168 177.549 552.957 176.584 553.526C175.623 554.088 174.481 554.369 173.157 554.369ZM173.174 551.557C173.777 551.557 174.28 551.386 174.683 551.045C175.086 550.699 175.39 550.227 175.595 549.631C175.805 549.034 175.91 548.355 175.91 547.594C175.91 546.832 175.805 546.153 175.595 545.557C175.39 544.96 175.086 544.489 174.683 544.142C174.28 543.795 173.777 543.622 173.174 543.622C172.566 543.622 172.055 543.795 171.64 544.142C171.231 544.489 170.922 544.96 170.711 545.557C170.507 546.153 170.405 546.832 170.405 547.594C170.405 548.355 170.507 549.034 170.711 549.631C170.922 550.227 171.231 550.699 171.64 551.045C172.055 551.386 172.566 551.557 173.174 551.557ZM189.192 536.659V554.114H185.561V536.659H189.192ZM197.823 554.335C197.26 554.335 196.777 554.136 196.374 553.739C195.976 553.335 195.777 552.852 195.777 552.29C195.777 551.733 195.976 551.256 196.374 550.858C196.777 550.46 197.26 550.261 197.823 550.261C198.368 550.261 198.845 550.46 199.254 550.858C199.663 551.256 199.868 551.733 199.868 552.29C199.868 552.665 199.771 553.009 199.578 553.321C199.391 553.628 199.144 553.875 198.837 554.063C198.53 554.244 198.192 554.335 197.823 554.335Z" fill="#47A0DF"/>
<path d="M232.138 536.659H236.272L240.252 544.176H240.422L244.402 536.659H248.536L242.169 547.943V554.114H238.505V547.943L232.138 536.659ZM257.256 554.369C255.932 554.369 254.787 554.088 253.821 553.526C252.861 552.957 252.119 552.168 251.597 551.156C251.074 550.139 250.813 548.96 250.813 547.619C250.813 546.267 251.074 545.085 251.597 544.074C252.119 543.057 252.861 542.267 253.821 541.705C254.787 541.136 255.932 540.852 257.256 540.852C258.58 540.852 259.722 541.136 260.682 541.705C261.648 542.267 262.392 543.057 262.915 544.074C263.438 545.085 263.699 546.267 263.699 547.619C263.699 548.96 263.438 550.139 262.915 551.156C262.392 552.168 261.648 552.957 260.682 553.526C259.722 554.088 258.58 554.369 257.256 554.369ZM257.273 551.557C257.875 551.557 258.378 551.386 258.781 551.045C259.185 550.699 259.489 550.227 259.693 549.631C259.904 549.034 260.009 548.355 260.009 547.594C260.009 546.832 259.904 546.153 259.693 545.557C259.489 544.96 259.185 544.489 258.781 544.142C258.378 543.795 257.875 543.622 257.273 543.622C256.665 543.622 256.154 543.795 255.739 544.142C255.33 544.489 255.02 544.96 254.81 545.557C254.605 546.153 254.503 546.832 254.503 547.594C254.503 548.355 254.605 549.034 254.81 549.631C255.02 550.227 255.33 550.699 255.739 551.045C256.154 551.386 256.665 551.557 257.273 551.557ZM278.055 548.54V541.023H281.685V554.114H278.2V551.736H278.063C277.768 552.503 277.276 553.119 276.589 553.585C275.907 554.051 275.075 554.284 274.092 554.284C273.217 554.284 272.447 554.085 271.782 553.688C271.117 553.29 270.597 552.724 270.222 551.992C269.853 551.259 269.665 550.381 269.66 549.358V541.023H273.29V548.71C273.296 549.483 273.504 550.094 273.913 550.543C274.322 550.992 274.87 551.216 275.558 551.216C275.995 551.216 276.404 551.117 276.785 550.918C277.165 550.713 277.472 550.412 277.705 550.014C277.944 549.617 278.06 549.125 278.055 548.54ZM288.189 554.114V541.023H291.709V543.307H291.846C292.084 542.494 292.485 541.881 293.047 541.466C293.61 541.045 294.258 540.835 294.991 540.835C295.172 540.835 295.368 540.847 295.579 540.869C295.789 540.892 295.974 540.923 296.133 540.963V544.185C295.962 544.134 295.726 544.088 295.425 544.048C295.124 544.009 294.849 543.989 294.599 543.989C294.064 543.989 293.587 544.105 293.167 544.338C292.752 544.565 292.422 544.884 292.178 545.293C291.939 545.702 291.82 546.173 291.82 546.707V554.114H288.189ZM316.679 554.369C315.338 554.369 314.185 554.085 313.219 553.517C312.259 552.943 311.52 552.148 311.003 551.131C310.492 550.114 310.236 548.943 310.236 547.619C310.236 546.278 310.495 545.102 311.012 544.091C311.534 543.074 312.276 542.281 313.236 541.713C314.196 541.139 315.338 540.852 316.662 540.852C317.804 540.852 318.804 541.06 319.662 541.474C320.52 541.889 321.199 542.472 321.699 543.222C322.199 543.972 322.475 544.852 322.526 545.864H319.1C319.003 545.21 318.747 544.685 318.333 544.287C317.924 543.884 317.387 543.682 316.722 543.682C316.159 543.682 315.668 543.835 315.247 544.142C314.833 544.443 314.509 544.884 314.276 545.463C314.043 546.043 313.926 546.744 313.926 547.568C313.926 548.403 314.04 549.114 314.267 549.699C314.5 550.284 314.827 550.73 315.247 551.037C315.668 551.344 316.159 551.497 316.722 551.497C317.137 551.497 317.509 551.412 317.838 551.242C318.174 551.071 318.449 550.824 318.665 550.5C318.887 550.17 319.032 549.776 319.1 549.315H322.526C322.469 550.315 322.196 551.196 321.708 551.957C321.225 552.713 320.557 553.304 319.705 553.73C318.853 554.156 317.844 554.369 316.679 554.369ZM332.081 546.545V554.114H328.45V536.659H331.979V543.332H332.132C332.428 542.56 332.905 541.955 333.564 541.517C334.223 541.074 335.05 540.852 336.044 540.852C336.953 540.852 337.746 541.051 338.422 541.449C339.104 541.841 339.632 542.406 340.007 543.145C340.388 543.878 340.575 544.756 340.57 545.778V554.114H336.939V546.426C336.945 545.619 336.74 544.992 336.325 544.543C335.916 544.094 335.342 543.869 334.604 543.869C334.11 543.869 333.672 543.974 333.291 544.185C332.916 544.395 332.621 544.702 332.405 545.105C332.195 545.503 332.087 545.983 332.081 546.545ZM347.027 554.114V541.023H350.658V554.114H347.027ZM348.851 539.335C348.311 539.335 347.848 539.156 347.462 538.798C347.081 538.435 346.891 538 346.891 537.494C346.891 536.994 347.081 536.565 347.462 536.207C347.848 535.844 348.311 535.662 348.851 535.662C349.391 535.662 349.851 535.844 350.232 536.207C350.618 536.565 350.811 536.994 350.811 537.494C350.811 538 350.618 538.435 350.232 538.798C349.851 539.156 349.391 539.335 348.851 539.335ZM360.797 536.659V554.114H357.166V536.659H360.797ZM372.129 554.327C371.135 554.327 370.234 554.071 369.427 553.56C368.626 553.043 367.99 552.284 367.518 551.284C367.052 550.278 366.819 549.045 366.819 547.585C366.819 546.085 367.061 544.838 367.544 543.844C368.027 542.844 368.669 542.097 369.47 541.602C370.277 541.102 371.16 540.852 372.12 540.852C372.853 540.852 373.464 540.977 373.953 541.227C374.447 541.472 374.845 541.778 375.146 542.148C375.453 542.511 375.686 542.869 375.845 543.222H375.956V536.659H379.578V554.114H375.998V552.017H375.845C375.674 552.381 375.433 552.742 375.12 553.099C374.814 553.452 374.413 553.744 373.919 553.977C373.43 554.21 372.834 554.327 372.129 554.327ZM373.28 551.438C373.865 551.438 374.359 551.278 374.762 550.96C375.172 550.636 375.484 550.185 375.7 549.605C375.922 549.026 376.032 548.347 376.032 547.568C376.032 546.79 375.924 546.114 375.709 545.54C375.493 544.966 375.18 544.523 374.771 544.21C374.362 543.898 373.865 543.742 373.28 543.742C372.683 543.742 372.18 543.903 371.771 544.227C371.362 544.551 371.052 545 370.842 545.574C370.632 546.148 370.527 546.813 370.527 547.568C370.527 548.33 370.632 549.003 370.842 549.588C371.058 550.168 371.368 550.622 371.771 550.952C372.18 551.276 372.683 551.438 373.28 551.438ZM386.163 554.114V541.023H389.683V543.307H389.819C390.058 542.494 390.458 541.881 391.021 541.466C391.583 541.045 392.231 540.835 392.964 540.835C393.146 540.835 393.342 540.847 393.552 540.869C393.762 540.892 393.947 540.923 394.106 540.963V544.185C393.936 544.134 393.7 544.088 393.399 544.048C393.098 544.009 392.822 543.989 392.572 543.989C392.038 543.989 391.561 544.105 391.14 544.338C390.725 544.565 390.396 544.884 390.152 545.293C389.913 545.702 389.794 546.173 389.794 546.707V554.114H386.163ZM404.94 554.369C403.593 554.369 402.434 554.097 401.462 553.551C400.497 553 399.752 552.222 399.23 551.216C398.707 550.205 398.445 549.009 398.445 547.628C398.445 546.281 398.707 545.099 399.23 544.082C399.752 543.065 400.488 542.273 401.437 541.705C402.391 541.136 403.511 540.852 404.795 540.852C405.659 540.852 406.462 540.992 407.207 541.27C407.957 541.543 408.61 541.955 409.167 542.506C409.73 543.057 410.167 543.75 410.48 544.585C410.792 545.415 410.948 546.386 410.948 547.5V548.497H399.894V546.247H407.531C407.531 545.724 407.417 545.261 407.19 544.858C406.962 544.455 406.647 544.139 406.244 543.912C405.846 543.679 405.383 543.563 404.855 543.563C404.303 543.563 403.815 543.69 403.389 543.946C402.968 544.196 402.639 544.534 402.4 544.96C402.161 545.381 402.039 545.849 402.034 546.367V548.506C402.034 549.153 402.153 549.713 402.391 550.185C402.636 550.656 402.98 551.02 403.423 551.276C403.866 551.531 404.391 551.659 404.999 551.659C405.403 551.659 405.772 551.602 406.107 551.489C406.443 551.375 406.73 551.205 406.968 550.977C407.207 550.75 407.389 550.472 407.514 550.142L410.872 550.364C410.701 551.17 410.352 551.875 409.823 552.477C409.301 553.074 408.624 553.54 407.795 553.875C406.971 554.205 406.019 554.369 404.94 554.369ZM420.548 546.545V554.114H416.918V541.023H420.378V543.332H420.531C420.821 542.571 421.307 541.969 421.989 541.526C422.67 541.077 423.497 540.852 424.469 540.852C425.378 540.852 426.17 541.051 426.847 541.449C427.523 541.847 428.048 542.415 428.423 543.153C428.798 543.886 428.986 544.761 428.986 545.778V554.114H425.355V546.426C425.361 545.625 425.156 545 424.741 544.551C424.327 544.097 423.756 543.869 423.028 543.869C422.54 543.869 422.108 543.974 421.733 544.185C421.364 544.395 421.074 544.702 420.864 545.105C420.659 545.503 420.554 545.983 420.548 546.545ZM437.569 554.335C437.007 554.335 436.524 554.136 436.121 553.739C435.723 553.335 435.524 552.852 435.524 552.29C435.524 551.733 435.723 551.256 436.121 550.858C436.524 550.46 437.007 550.261 437.569 550.261C438.115 550.261 438.592 550.46 439.001 550.858C439.41 551.256 439.615 551.733 439.615 552.29C439.615 552.665 439.518 553.009 439.325 553.321C439.138 553.628 438.89 553.875 438.584 554.063C438.277 554.244 437.939 554.335 437.569 554.335Z" fill="#99CC62"/>
<path d="M488.947 545.386C488.947 547.29 488.587 548.909 487.865 550.244C487.149 551.58 486.172 552.599 484.933 553.304C483.7 554.003 482.314 554.352 480.774 554.352C479.223 554.352 477.831 554 476.598 553.295C475.365 552.591 474.391 551.571 473.675 550.236C472.959 548.901 472.601 547.284 472.601 545.386C472.601 543.483 472.959 541.864 473.675 540.528C474.391 539.193 475.365 538.176 476.598 537.477C477.831 536.773 479.223 536.42 480.774 536.42C482.314 536.42 483.7 536.773 484.933 537.477C486.172 538.176 487.149 539.193 487.865 540.528C488.587 541.864 488.947 543.483 488.947 545.386ZM485.206 545.386C485.206 544.153 485.021 543.114 484.652 542.267C484.288 541.42 483.774 540.778 483.109 540.341C482.445 539.903 481.666 539.685 480.774 539.685C479.882 539.685 479.104 539.903 478.439 540.341C477.774 540.778 477.257 541.42 476.888 542.267C476.524 543.114 476.342 544.153 476.342 545.386C476.342 546.619 476.524 547.659 476.888 548.506C477.257 549.352 477.774 549.994 478.439 550.432C479.104 550.869 479.882 551.088 480.774 551.088C481.666 551.088 482.445 550.869 483.109 550.432C483.774 549.994 484.288 549.352 484.652 548.506C485.021 547.659 485.206 546.619 485.206 545.386ZM498.844 546.545V554.114H495.213V541.023H498.673V543.332H498.827C499.116 542.571 499.602 541.969 500.284 541.526C500.966 541.077 501.792 540.852 502.764 540.852C503.673 540.852 504.466 541.051 505.142 541.449C505.818 541.847 506.344 542.415 506.719 543.153C507.094 543.886 507.281 544.761 507.281 545.778V554.114H503.65V546.426C503.656 545.625 503.452 545 503.037 544.551C502.622 544.097 502.051 543.869 501.324 543.869C500.835 543.869 500.403 543.974 500.028 544.185C499.659 544.395 499.369 544.702 499.159 545.105C498.954 545.503 498.849 545.983 498.844 546.545ZM519.708 554.369C518.362 554.369 517.203 554.097 516.231 553.551C515.265 553 514.521 552.222 513.998 551.216C513.476 550.205 513.214 549.009 513.214 547.628C513.214 546.281 513.476 545.099 513.998 544.082C514.521 543.065 515.257 542.273 516.206 541.705C517.16 541.136 518.279 540.852 519.564 540.852C520.427 540.852 521.231 540.992 521.976 541.27C522.726 541.543 523.379 541.955 523.936 542.506C524.498 543.057 524.936 543.75 525.248 544.585C525.561 545.415 525.717 546.386 525.717 547.5V548.497H514.663V546.247H522.299C522.299 545.724 522.186 545.261 521.958 544.858C521.731 544.455 521.416 544.139 521.012 543.912C520.615 543.679 520.152 543.563 519.623 543.563C519.072 543.563 518.583 543.69 518.157 543.946C517.737 544.196 517.407 544.534 517.169 544.96C516.93 545.381 516.808 545.849 516.802 546.367V548.506C516.802 549.153 516.922 549.713 517.16 550.185C517.404 550.656 517.748 551.02 518.191 551.276C518.635 551.531 519.16 551.659 519.768 551.659C520.172 551.659 520.541 551.602 520.876 551.489C521.211 551.375 521.498 551.205 521.737 550.977C521.976 550.75 522.157 550.472 522.282 550.142L525.64 550.364C525.47 551.17 525.12 551.875 524.592 552.477C524.069 553.074 523.393 553.54 522.564 553.875C521.74 554.205 520.788 554.369 519.708 554.369ZM540.841 559.023V541.023H544.421V543.222H544.582C544.742 542.869 544.972 542.511 545.273 542.148C545.58 541.778 545.977 541.472 546.466 541.227C546.96 540.977 547.574 540.852 548.307 540.852C549.261 540.852 550.142 541.102 550.949 541.602C551.756 542.097 552.401 542.844 552.884 543.844C553.367 544.838 553.608 546.085 553.608 547.585C553.608 549.045 553.372 550.278 552.901 551.284C552.435 552.284 551.798 553.043 550.992 553.56C550.19 554.071 549.293 554.327 548.298 554.327C547.594 554.327 546.994 554.21 546.5 553.977C546.011 553.744 545.611 553.452 545.298 553.099C544.986 552.742 544.747 552.381 544.582 552.017H544.472V559.023H540.841ZM544.395 547.568C544.395 548.347 544.503 549.026 544.719 549.605C544.935 550.185 545.247 550.636 545.656 550.96C546.065 551.278 546.563 551.438 547.148 551.438C547.739 551.438 548.239 551.276 548.648 550.952C549.057 550.622 549.367 550.168 549.577 549.588C549.793 549.003 549.901 548.33 549.901 547.568C549.901 546.813 549.796 546.148 549.585 545.574C549.375 545 549.065 544.551 548.656 544.227C548.247 543.903 547.744 543.742 547.148 543.742C546.557 543.742 546.057 543.898 545.648 544.21C545.244 544.523 544.935 544.966 544.719 545.54C544.503 546.114 544.395 546.79 544.395 547.568ZM563.259 536.659V554.114H559.629V536.659H563.259ZM573.501 554.361C572.665 554.361 571.921 554.216 571.268 553.926C570.614 553.631 570.097 553.196 569.716 552.622C569.341 552.043 569.154 551.321 569.154 550.457C569.154 549.73 569.287 549.119 569.555 548.625C569.822 548.131 570.185 547.733 570.645 547.432C571.106 547.131 571.628 546.903 572.214 546.75C572.805 546.597 573.424 546.489 574.072 546.426C574.833 546.347 575.447 546.273 575.912 546.205C576.378 546.131 576.716 546.023 576.927 545.881C577.137 545.739 577.242 545.528 577.242 545.25V545.199C577.242 544.659 577.072 544.242 576.731 543.946C576.395 543.651 575.918 543.503 575.299 543.503C574.645 543.503 574.126 543.648 573.739 543.938C573.353 544.222 573.097 544.58 572.972 545.011L569.614 544.739C569.785 543.943 570.12 543.256 570.62 542.676C571.12 542.091 571.765 541.642 572.555 541.33C573.35 541.011 574.27 540.852 575.316 540.852C576.043 540.852 576.739 540.938 577.404 541.108C578.074 541.278 578.668 541.543 579.185 541.901C579.708 542.259 580.12 542.719 580.421 543.281C580.722 543.838 580.873 544.506 580.873 545.284V554.114H577.43V552.298H577.327C577.117 552.707 576.836 553.068 576.483 553.381C576.131 553.688 575.708 553.929 575.214 554.105C574.719 554.276 574.148 554.361 573.501 554.361ZM574.54 551.855C575.074 551.855 575.546 551.75 575.955 551.54C576.364 551.324 576.685 551.034 576.918 550.67C577.151 550.307 577.268 549.895 577.268 549.435V548.045C577.154 548.119 576.998 548.188 576.799 548.25C576.606 548.307 576.387 548.361 576.143 548.412C575.898 548.457 575.654 548.5 575.41 548.54C575.165 548.574 574.944 548.605 574.745 548.634C574.319 548.696 573.947 548.795 573.628 548.932C573.31 549.068 573.063 549.253 572.887 549.486C572.711 549.713 572.623 549.997 572.623 550.338C572.623 550.832 572.802 551.21 573.16 551.472C573.523 551.727 573.983 551.855 574.54 551.855ZM594.253 541.023V543.75H586.369V541.023H594.253ZM588.159 537.886H591.79V550.091C591.79 550.426 591.841 550.688 591.943 550.875C592.045 551.057 592.187 551.185 592.369 551.259C592.557 551.332 592.772 551.369 593.017 551.369C593.187 551.369 593.358 551.355 593.528 551.327C593.699 551.293 593.829 551.267 593.92 551.25L594.491 553.952C594.309 554.009 594.054 554.074 593.724 554.148C593.395 554.227 592.994 554.276 592.522 554.293C591.647 554.327 590.88 554.21 590.221 553.943C589.568 553.676 589.059 553.261 588.696 552.699C588.332 552.136 588.153 551.426 588.159 550.568V537.886ZM607.257 541.023V543.75H599.178V541.023H607.257ZM601.027 554.114V540.077C601.027 539.128 601.212 538.341 601.581 537.716C601.956 537.091 602.468 536.622 603.115 536.31C603.763 535.997 604.499 535.841 605.323 535.841C605.88 535.841 606.388 535.884 606.848 535.969C607.314 536.054 607.661 536.131 607.888 536.199L607.24 538.926C607.098 538.881 606.922 538.838 606.712 538.798C606.507 538.759 606.297 538.739 606.081 538.739C605.547 538.739 605.175 538.864 604.965 539.114C604.755 539.358 604.649 539.702 604.649 540.145V554.114H601.027ZM618.521 554.369C617.198 554.369 616.053 554.088 615.087 553.526C614.127 552.957 613.385 552.168 612.862 551.156C612.34 550.139 612.078 548.96 612.078 547.619C612.078 546.267 612.34 545.085 612.862 544.074C613.385 543.057 614.127 542.267 615.087 541.705C616.053 541.136 617.198 540.852 618.521 540.852C619.845 540.852 620.987 541.136 621.948 541.705C622.913 542.267 623.658 543.057 624.181 544.074C624.703 545.085 624.965 546.267 624.965 547.619C624.965 548.96 624.703 550.139 624.181 551.156C623.658 552.168 622.913 552.957 621.948 553.526C620.987 554.088 619.845 554.369 618.521 554.369ZM618.538 551.557C619.141 551.557 619.644 551.386 620.047 551.045C620.45 550.699 620.754 550.227 620.959 549.631C621.169 549.034 621.274 548.355 621.274 547.594C621.274 546.832 621.169 546.153 620.959 545.557C620.754 544.96 620.45 544.489 620.047 544.142C619.644 543.795 619.141 543.622 618.538 543.622C617.931 543.622 617.419 543.795 617.004 544.142C616.595 544.489 616.286 544.96 616.075 545.557C615.871 546.153 615.769 546.832 615.769 547.594C615.769 548.355 615.871 549.034 616.075 549.631C616.286 550.227 616.595 550.699 617.004 551.045C617.419 551.386 617.931 551.557 618.538 551.557ZM630.925 554.114V541.023H634.445V543.307H634.582C634.82 542.494 635.221 541.881 635.783 541.466C636.346 541.045 636.994 540.835 637.727 540.835C637.908 540.835 638.104 540.847 638.315 540.869C638.525 540.892 638.71 540.923 638.869 540.963V544.185C638.698 544.134 638.462 544.088 638.161 544.048C637.86 544.009 637.585 543.989 637.335 543.989C636.8 543.989 636.323 544.105 635.903 544.338C635.488 544.565 635.158 544.884 634.914 545.293C634.675 545.702 634.556 546.173 634.556 546.707V554.114H630.925ZM644.346 554.114V541.023H647.806V543.332H647.959C648.232 542.565 648.687 541.96 649.323 541.517C649.959 541.074 650.721 540.852 651.607 540.852C652.505 540.852 653.269 541.077 653.9 541.526C654.53 541.969 654.951 542.571 655.161 543.332H655.297C655.564 542.582 656.047 541.983 656.746 541.534C657.451 541.08 658.283 540.852 659.243 540.852C660.465 540.852 661.457 541.242 662.218 542.02C662.985 542.793 663.368 543.889 663.368 545.31V554.114H659.746V546.026C659.746 545.298 659.553 544.753 659.167 544.389C658.78 544.026 658.297 543.844 657.718 543.844C657.059 543.844 656.545 544.054 656.175 544.474C655.806 544.889 655.621 545.438 655.621 546.119V554.114H652.101V545.949C652.101 545.307 651.917 544.795 651.547 544.415C651.184 544.034 650.704 543.844 650.107 543.844C649.704 543.844 649.34 543.946 649.016 544.151C648.698 544.349 648.445 544.631 648.258 544.994C648.07 545.352 647.976 545.773 647.976 546.256V554.114H644.346ZM671.959 554.335C671.396 554.335 670.913 554.136 670.51 553.739C670.112 553.335 669.913 552.852 669.913 552.29C669.913 551.733 670.112 551.256 670.51 550.858C670.913 550.46 671.396 550.261 671.959 550.261C672.504 550.261 672.981 550.46 673.39 550.858C673.799 551.256 674.004 551.733 674.004 552.29C674.004 552.665 673.907 553.009 673.714 553.321C673.527 553.628 673.28 553.875 672.973 554.063C672.666 554.244 672.328 554.335 671.959 554.335Z" fill="#EC8A3B"/>
<path d="M188.81 136.867V136.463C188.81 127.547 196.037 120.31 204.962 120.31H335.29C349.368 120.31 360.772 131.723 360.772 145.792V153.855C360.772 158.717 358.873 163.378 355.479 166.86L307.689 215.88C302.431 221.279 293.849 221.587 288.213 216.592L285.734 214.394C279.754 209.092 279.359 199.895 284.863 194.1L322.998 153.96L204.83 153.02C195.958 152.949 188.81 145.739 188.81 136.867Z" fill="#47A0DF"/>
<path d="M363.322 311.529V311.933C363.322 320.849 356.094 328.086 347.169 328.086H219.048C203.758 328.086 191.368 315.688 191.368 300.406C191.368 291.798 194.745 283.524 200.777 277.377L258.432 218.597C264.305 212.609 273.854 212.275 280.132 217.841C286.833 223.785 287.246 234.108 281.029 240.562L234.48 288.905C232.466 290.998 233.935 294.488 236.836 294.515L347.31 295.394C356.182 295.464 363.331 302.674 363.331 311.547L363.322 311.529Z" fill="#99CC62"/>
<path d="M442.968 120.31H445.456C453.546 120.31 460.096 126.861 460.096 134.95V139.144C460.096 142.134 458.927 145.001 456.834 147.137L384.741 220.672C382.112 223.354 382.139 227.654 384.803 230.3L456.342 301.356C458.742 303.747 460.096 306.992 460.096 310.377V313.551C460.096 320.964 454.091 326.978 446.67 326.978H441.825C438.475 326.978 435.257 325.659 432.874 323.303L353.412 244.668C342.729 234.09 342.632 216.856 353.21 206.164L434.843 123.695C436.989 121.532 439.908 120.31 442.959 120.31H442.968Z" fill="#EC8A3B"/>
</svg>
