<svg xmlns="http://www.w3.org/2000/svg" xmlns:xlink="http://www.w3.org/1999/xlink" width="500" zoomAndPan="magnify" viewBox="0 0 375 374.999991" height="500" preserveAspectRatio="xMidYMid meet" version="1.0"><defs><g/></defs><path fill="#000000" d="M 253.839844 281.648438 C 257.898438 281.441406 261.660156 279.746094 263.992188 276.375 C 266.324219 273.003906 267.050781 268.28125 267.207031 264.101562 C 267.285156 262.121094 266.960938 259.582031 267.210938 257.710938 C 267.636719 254.597656 273.273438 254.453125 274.097656 257.335938 C 274.679688 259.363281 274.285156 265.476562 274.003906 267.773438 C 273.003906 276.0625 267.898438 282.871094 259.523438 284.640625 C 259.546875 284.863281 259.742188 284.851562 259.890625 284.914062 C 260.78125 285.265625 261.863281 285.460938 262.789062 285.847656 C 269.4375 288.617188 273.1875 294.761719 274.003906 301.785156 C 274.277344 304.121094 274.691406 310.152344 274.097656 312.222656 C 273.300781 315.015625 267.570312 314.992188 267.199219 311.71875 C 266.886719 308.960938 267.316406 305.65625 267.054688 302.761719 C 266.351562 294.859375 262.542969 288.148438 253.839844 287.910156 L 253.839844 312.003906 C 253.839844 312.121094 253.394531 312.992188 253.273438 313.144531 C 251.957031 314.757812 247.511719 314.664062 246.867188 312.292969 C 246.5625 294.132812 246.808594 275.902344 246.746094 257.714844 C 247.042969 254.824219 252.085938 254.597656 253.394531 256.585938 C 253.472656 256.710938 253.839844 257.496094 253.839844 257.558594 L 253.839844 281.652344 Z M 253.839844 281.648438 " fill-opacity="1" fill-rule="nonzero"/><path fill="#000000" d="M 314.25 275.960938 L 314.25 254.144531 C 314.25 254.085938 314.421875 253.175781 314.457031 253.070312 C 315.320312 250.304688 321.285156 250.492188 321.335938 253.875 L 321.359375 303.757812 C 322.003906 317.183594 297.460938 317.984375 296.070312 305.441406 C 296.148438 297.382812 295.425781 288.742188 295.902344 280.71875 C 296.335938 273.414062 301.828125 270.421875 308.675781 271.9375 C 311.085938 272.46875 312.902344 273.960938 314.242188 275.96875 Z M 304.207031 306.898438 C 306.742188 309.371094 314.097656 308.761719 314.238281 304.160156 L 314.214844 282.894531 C 314.113281 276.476562 303.59375 275.246094 302.898438 281.878906 C 303.285156 288.925781 302.324219 296.640625 302.878906 303.613281 C 302.96875 304.730469 303.398438 306.105469 304.214844 306.898438 Z M 304.207031 306.898438 " fill-opacity="1" fill-rule="nonzero"/><path fill="#000000" d="M 41.902344 306.234375 L 57.75 306.234375 C 57.839844 306.234375 58.707031 306.492188 58.851562 306.550781 C 61.371094 307.660156 61.136719 313.007812 58.140625 313.445312 L 35.863281 313.480469 C 33.886719 313.222656 32.738281 311.902344 32.960938 309.875 L 51.707031 263.304688 L 35.433594 263.304688 C 35.289062 263.304688 34.5 262.964844 34.320312 262.859375 C 32.167969 261.527344 32.503906 256.703125 35.328125 256.234375 L 57.75 256.199219 C 60.328125 256.457031 60.929688 258.390625 60.386719 260.683594 Z M 41.902344 306.234375 " fill-opacity="1" fill-rule="nonzero"/><path fill="#000000" d="M 212.046875 290.171875 L 212.046875 281.574219 C 212.046875 279.6875 210.265625 278.097656 208.523438 277.707031 C 205.625 277.058594 202.269531 277.769531 201.566406 281.042969 C 201.097656 283.242188 202.179688 286.730469 198.882812 287.175781 C 194.511719 287.769531 194.1875 284.941406 194.410156 281.425781 C 194.933594 273.246094 201.816406 270.988281 208.984375 271.695312 C 215.121094 272.300781 218.625 275.648438 219.007812 281.859375 C 219.476562 289.542969 218.800781 297.847656 218.828125 305.558594 C 218.027344 316.386719 198.84375 317.089844 194.71875 308.851562 C 193.203125 305.824219 193.011719 297.574219 194.453125 294.550781 C 195.503906 292.347656 198.546875 290.171875 201.023438 290.171875 Z M 212.046875 296.144531 L 203.449219 296.144531 C 203.253906 296.144531 202.273438 296.589844 202.050781 296.734375 C 201.242188 297.261719 200.777344 298.101562 200.675781 299.0625 C 200.503906 300.792969 200.457031 304.859375 201.410156 306.285156 C 203.367188 309.226562 210.011719 309.113281 211.503906 305.765625 C 211.632812 305.46875 212.046875 304.273438 212.046875 304.03125 Z M 212.046875 296.144531 " fill-opacity="1" fill-rule="nonzero"/><path fill="#000000" d="M 341.796875 271.589844 C 350.082031 271.480469 355.679688 275.53125 354.738281 284.398438 C 354.347656 288.109375 348.230469 287.84375 347.800781 284.6875 C 347.578125 283.0625 348.019531 281.949219 347.285156 280.226562 C 345.683594 276.4375 338.050781 276.5625 336.695312 280.574219 C 336.308594 281.71875 336.28125 284.875 336.414062 286.125 C 336.558594 287.460938 337.542969 288.210938 338.71875 288.652344 C 344.4375 290.789062 354.175781 290.328125 354.753906 298.199219 C 355.425781 307.335938 353.609375 313.808594 343.3125 314.34375 C 335.859375 314.730469 329.738281 312.074219 329.296875 303.898438 C 329.117188 300.617188 329.839844 298.160156 333.769531 298.859375 C 337.453125 299.515625 335.882812 302.929688 336.6875 305.316406 C 338.074219 309.421875 345.984375 309.410156 347.421875 305.378906 C 347.890625 304.070312 348.03125 299.726562 347.484375 298.503906 C 346.984375 297.390625 346.023438 296.988281 344.9375 296.640625 C 341.8125 295.640625 338.394531 295.082031 335.246094 294.113281 C 328.972656 292.1875 328.972656 287.84375 329.304688 281.996094 C 329.726562 274.464844 334.757812 271.6875 341.792969 271.589844 Z M 341.796875 271.589844 " fill-opacity="1" fill-rule="nonzero"/><path fill="#000000" d="M 68.734375 271.730469 C 70.5 271.480469 72.675781 271.769531 73.140625 273.789062 L 73.191406 303.300781 C 72.976562 309.753906 84.246094 310.121094 84.644531 303.847656 L 84.679688 274.3125 C 84.902344 270.683594 91.671875 270.675781 91.65625 274.453125 L 91.632812 304.859375 C 91.242188 317.027344 68.410156 317.519531 66.554688 306.09375 C 66.078125 295.445312 66.480469 284.710938 66.347656 274.035156 C 66.46875 272.820312 67.5625 271.894531 68.730469 271.726562 Z M 68.734375 271.730469 " fill-opacity="1" fill-rule="nonzero"/><path fill="#000000" d="M 133.410156 271.730469 C 135.175781 271.480469 137.351562 271.769531 137.8125 273.789062 L 137.863281 303.300781 C 137.652344 309.753906 148.921875 310.121094 149.320312 303.847656 L 149.351562 274.3125 C 149.574219 270.683594 156.34375 270.675781 156.328125 274.453125 L 156.304688 304.859375 C 155.914062 317.027344 133.085938 317.519531 131.226562 306.09375 C 130.753906 295.445312 131.15625 284.710938 131.023438 274.035156 C 131.144531 272.820312 132.234375 271.894531 133.402344 271.726562 Z M 133.410156 271.730469 " fill-opacity="1" fill-rule="nonzero"/><path fill="#000000" d="M 112.664062 271.585938 C 118.53125 271.523438 124.324219 273.457031 125.4375 279.910156 C 125.707031 281.464844 125.84375 285.574219 125.585938 287.082031 C 125.078125 290.066406 119.085938 290.273438 118.671875 286.8125 C 118.304688 283.710938 119.691406 279.640625 115.910156 278.066406 C 112.132812 276.488281 107.042969 278.007812 107.140625 282.84375 L 107.140625 311.980469 C 106.496094 315.011719 100.671875 314.925781 100.324219 311.847656 L 100.324219 281.277344 C 100.761719 274.21875 106.246094 271.648438 112.667969 271.585938 Z M 112.664062 271.585938 " fill-opacity="1" fill-rule="nonzero"/><path fill="#000000" d="M 177.34375 271.585938 C 183.210938 271.523438 189.003906 273.457031 190.117188 279.910156 C 190.382812 281.464844 190.523438 285.574219 190.265625 287.082031 C 189.757812 290.066406 183.765625 290.273438 183.351562 286.8125 C 182.984375 283.710938 184.371094 279.640625 180.589844 278.066406 C 176.8125 276.488281 171.722656 278.007812 171.820312 282.84375 L 171.820312 311.980469 C 171.175781 315.011719 165.351562 314.925781 165.003906 311.847656 L 165.003906 281.277344 C 165.441406 274.21875 170.925781 271.648438 177.347656 271.585938 Z M 177.34375 271.585938 " fill-opacity="1" fill-rule="nonzero"/><path fill="#000000" d="M 281.746094 272.457031 C 283.265625 271.039062 287.609375 271.402344 287.8125 274.039062 L 287.8125 311.851562 C 287.449219 315.015625 281.328125 315.003906 280.988281 311.851562 L 280.988281 274.179688 C 280.988281 273.605469 281.332031 272.84375 281.746094 272.457031 Z M 281.746094 272.457031 " fill-opacity="1" fill-rule="nonzero"/><path fill="#000000" d="M 281.746094 266.386719 C 281.359375 266.027344 281.042969 265.328125 280.988281 264.804688 C 280.605469 261.253906 281.222656 256.972656 281.046875 253.355469 C 281.652344 250.421875 287.371094 250.472656 287.796875 253.589844 L 287.746094 265.167969 C 287.152344 267.5 283.265625 267.8125 281.746094 266.390625 Z M 281.746094 266.386719 " fill-opacity="1" fill-rule="nonzero"/><g fill="#47a0df" fill-opacity="1"><g transform="translate(27.785943, 339.786832)"><g><path d="M 5.453125 -3.4375 L 5.453125 -0.515625 L 6.828125 -0.34375 L 6.828125 0 L 2.8125 0 L 2.8125 -0.34375 L 4.1875 -0.515625 L 4.1875 -3.390625 L 1.125 -8.203125 L 0.15625 -8.375 L 0.15625 -8.71875 L 3.828125 -8.71875 L 3.828125 -8.375 L 2.671875 -8.203125 L 5.171875 -4.171875 L 7.546875 -8.203125 L 6.4375 -8.375 L 6.4375 -8.71875 L 9.28125 -8.71875 L 9.28125 -8.375 L 8.328125 -8.203125 Z M 5.453125 -3.4375 "/></g></g></g><g fill="#47a0df" fill-opacity="1"><g transform="translate(36.993663, 339.786832)"><g><path d="M 6.15625 -3.09375 C 6.15625 -0.945312 5.203125 0.125 3.296875 0.125 C 2.367188 0.125 1.671875 -0.144531 1.203125 -0.6875 C 0.734375 -1.238281 0.5 -2.039062 0.5 -3.09375 C 0.5 -4.125 0.734375 -4.910156 1.203125 -5.453125 C 1.671875 -5.992188 2.382812 -6.265625 3.34375 -6.265625 C 4.269531 -6.265625 4.96875 -6 5.4375 -5.46875 C 5.914062 -4.9375 6.15625 -4.144531 6.15625 -3.09375 Z M 4.984375 -3.09375 C 4.984375 -4.019531 4.84375 -4.691406 4.5625 -5.109375 C 4.289062 -5.535156 3.867188 -5.75 3.296875 -5.75 C 2.722656 -5.75 2.304688 -5.546875 2.046875 -5.140625 C 1.796875 -4.742188 1.671875 -4.0625 1.671875 -3.09375 C 1.671875 -2.101562 1.800781 -1.40625 2.0625 -1 C 2.320312 -0.59375 2.734375 -0.390625 3.296875 -0.390625 C 3.859375 -0.390625 4.28125 -0.597656 4.5625 -1.015625 C 4.84375 -1.441406 4.984375 -2.132812 4.984375 -3.09375 Z M 4.984375 -3.09375 "/></g></g></g><g fill="#47a0df" fill-opacity="1"><g transform="translate(45.644995, 339.786832)"><g><path d="M 2.03125 -1.734375 C 2.03125 -0.992188 2.378906 -0.625 3.078125 -0.625 C 3.609375 -0.625 4.109375 -0.691406 4.578125 -0.828125 L 4.578125 -5.65625 L 3.65625 -5.8125 L 3.65625 -6.109375 L 5.65625 -6.109375 L 5.65625 -0.453125 L 6.421875 -0.296875 L 6.421875 0 L 4.640625 0 L 4.59375 -0.5 C 4.289062 -0.320312 3.9375 -0.171875 3.53125 -0.046875 C 3.125 0.0664062 2.785156 0.125 2.515625 0.125 C 1.472656 0.125 0.953125 -0.472656 0.953125 -1.671875 L 0.953125 -5.65625 L 0.171875 -5.8125 L 0.171875 -6.109375 L 2.03125 -6.109375 Z M 2.03125 -1.734375 "/></g></g></g><g fill="#47a0df" fill-opacity="1"><g transform="translate(54.296326, 339.786832)"><g><path d="M 4.3125 -6.265625 L 4.3125 -4.625 L 4.03125 -4.625 L 3.65625 -5.34375 C 3.4375 -5.34375 3.175781 -5.3125 2.875 -5.25 C 2.582031 -5.1875 2.332031 -5.109375 2.125 -5.015625 L 2.125 -0.453125 L 3.171875 -0.296875 L 3.171875 0 L 0.265625 0 L 0.265625 -0.296875 L 1.046875 -0.453125 L 1.046875 -5.65625 L 0.265625 -5.8125 L 0.265625 -6.109375 L 2.046875 -6.109375 L 2.109375 -5.34375 C 2.367188 -5.5625 2.71875 -5.769531 3.15625 -5.96875 C 3.601562 -6.164062 3.957031 -6.265625 4.21875 -6.265625 Z M 4.3125 -6.265625 "/></g></g></g><g fill="#47a0df" fill-opacity="1"><g transform="translate(60.725351, 339.786832)"><g/></g></g><g fill="#47a0df" fill-opacity="1"><g transform="translate(66.04972, 339.786832)"><g><path d="M 4.703125 -1.71875 C 4.703125 -1.113281 4.507812 -0.65625 4.125 -0.34375 C 3.738281 -0.03125 3.171875 0.125 2.421875 0.125 C 2.117188 0.125 1.785156 0.09375 1.421875 0.03125 C 1.054688 -0.03125 0.769531 -0.0976562 0.5625 -0.171875 L 0.5625 -1.671875 L 0.84375 -1.671875 L 1.171875 -0.828125 C 1.492188 -0.535156 1.914062 -0.390625 2.4375 -0.390625 C 3.28125 -0.390625 3.703125 -0.75 3.703125 -1.46875 C 3.703125 -1.988281 3.367188 -2.363281 2.703125 -2.59375 L 2.125 -2.78125 C 1.6875 -2.925781 1.367188 -3.070312 1.171875 -3.21875 C 0.972656 -3.363281 0.816406 -3.539062 0.703125 -3.75 C 0.597656 -3.96875 0.546875 -4.226562 0.546875 -4.53125 C 0.546875 -5.070312 0.726562 -5.492188 1.09375 -5.796875 C 1.457031 -6.109375 1.953125 -6.265625 2.578125 -6.265625 C 3.023438 -6.265625 3.582031 -6.203125 4.25 -6.078125 L 4.25 -4.734375 L 3.953125 -4.734375 L 3.671875 -5.453125 C 3.441406 -5.648438 3.082031 -5.75 2.59375 -5.75 C 2.238281 -5.75 1.96875 -5.660156 1.78125 -5.484375 C 1.601562 -5.316406 1.515625 -5.085938 1.515625 -4.796875 C 1.515625 -4.546875 1.597656 -4.332031 1.765625 -4.15625 C 1.929688 -3.988281 2.179688 -3.851562 2.515625 -3.75 C 3.160156 -3.53125 3.578125 -3.367188 3.765625 -3.265625 C 3.960938 -3.171875 4.128906 -3.050781 4.265625 -2.90625 C 4.398438 -2.757812 4.503906 -2.59375 4.578125 -2.40625 C 4.660156 -2.21875 4.703125 -1.988281 4.703125 -1.71875 Z M 4.703125 -1.71875 "/></g></g></g><g fill="#47a0df" fill-opacity="1"><g transform="translate(73.226011, 339.786832)"><g><path d="M 5.5 -0.375 C 5.289062 -0.21875 5 -0.09375 4.625 0 C 4.25 0.0820312 3.867188 0.125 3.484375 0.125 C 1.492188 0.125 0.5 -0.945312 0.5 -3.09375 C 0.5 -4.113281 0.75 -4.894531 1.25 -5.4375 C 1.757812 -5.988281 2.488281 -6.265625 3.4375 -6.265625 C 4.019531 -6.265625 4.65625 -6.203125 5.34375 -6.078125 L 5.34375 -4.375 L 5 -4.375 L 4.71875 -5.453125 C 4.351562 -5.648438 3.921875 -5.75 3.421875 -5.75 C 2.253906 -5.75 1.671875 -4.863281 1.671875 -3.09375 C 1.671875 -2.175781 1.847656 -1.519531 2.203125 -1.125 C 2.554688 -0.738281 3.101562 -0.546875 3.84375 -0.546875 C 4.476562 -0.546875 5.03125 -0.617188 5.5 -0.765625 Z M 5.5 -0.375 "/></g></g></g><g fill="#47a0df" fill-opacity="1"><g transform="translate(81.130076, 339.786832)"><g><path d="M 2.125 -6.59375 C 2.125 -6.144531 2.109375 -5.816406 2.078125 -5.609375 C 2.390625 -5.785156 2.742188 -5.9375 3.140625 -6.0625 C 3.535156 -6.195312 3.867188 -6.265625 4.140625 -6.265625 C 4.671875 -6.265625 5.066406 -6.109375 5.328125 -5.796875 C 5.597656 -5.492188 5.734375 -5.050781 5.734375 -4.46875 L 5.734375 -0.453125 L 6.484375 -0.296875 L 6.484375 0 L 3.84375 0 L 3.84375 -0.296875 L 4.65625 -0.453125 L 4.65625 -4.390625 C 4.65625 -5.140625 4.296875 -5.515625 3.578125 -5.515625 C 3.171875 -5.515625 2.6875 -5.453125 2.125 -5.328125 L 2.125 -0.453125 L 2.9375 -0.296875 L 2.9375 0 L 0.265625 0 L 0.265625 -0.296875 L 1.046875 -0.453125 L 1.046875 -8.78125 L 0.125 -8.9375 L 0.125 -9.234375 L 2.125 -9.234375 Z M 2.125 -6.59375 "/></g></g></g><g fill="#47a0df" fill-opacity="1"><g transform="translate(89.781407, 339.786832)"><g><path d="M 6.15625 -3.09375 C 6.15625 -0.945312 5.203125 0.125 3.296875 0.125 C 2.367188 0.125 1.671875 -0.144531 1.203125 -0.6875 C 0.734375 -1.238281 0.5 -2.039062 0.5 -3.09375 C 0.5 -4.125 0.734375 -4.910156 1.203125 -5.453125 C 1.671875 -5.992188 2.382812 -6.265625 3.34375 -6.265625 C 4.269531 -6.265625 4.96875 -6 5.4375 -5.46875 C 5.914062 -4.9375 6.15625 -4.144531 6.15625 -3.09375 Z M 4.984375 -3.09375 C 4.984375 -4.019531 4.84375 -4.691406 4.5625 -5.109375 C 4.289062 -5.535156 3.867188 -5.75 3.296875 -5.75 C 2.722656 -5.75 2.304688 -5.546875 2.046875 -5.140625 C 1.796875 -4.742188 1.671875 -4.0625 1.671875 -3.09375 C 1.671875 -2.101562 1.800781 -1.40625 2.0625 -1 C 2.320312 -0.59375 2.734375 -0.390625 3.296875 -0.390625 C 3.859375 -0.390625 4.28125 -0.597656 4.5625 -1.015625 C 4.84375 -1.441406 4.984375 -2.132812 4.984375 -3.09375 Z M 4.984375 -3.09375 "/></g></g></g><g fill="#47a0df" fill-opacity="1"><g transform="translate(98.432739, 339.786832)"><g><path d="M 6.15625 -3.09375 C 6.15625 -0.945312 5.203125 0.125 3.296875 0.125 C 2.367188 0.125 1.671875 -0.144531 1.203125 -0.6875 C 0.734375 -1.238281 0.5 -2.039062 0.5 -3.09375 C 0.5 -4.125 0.734375 -4.910156 1.203125 -5.453125 C 1.671875 -5.992188 2.382812 -6.265625 3.34375 -6.265625 C 4.269531 -6.265625 4.96875 -6 5.4375 -5.46875 C 5.914062 -4.9375 6.15625 -4.144531 6.15625 -3.09375 Z M 4.984375 -3.09375 C 4.984375 -4.019531 4.84375 -4.691406 4.5625 -5.109375 C 4.289062 -5.535156 3.867188 -5.75 3.296875 -5.75 C 2.722656 -5.75 2.304688 -5.546875 2.046875 -5.140625 C 1.796875 -4.742188 1.671875 -4.0625 1.671875 -3.09375 C 1.671875 -2.101562 1.800781 -1.40625 2.0625 -1 C 2.320312 -0.59375 2.734375 -0.390625 3.296875 -0.390625 C 3.859375 -0.390625 4.28125 -0.597656 4.5625 -1.015625 C 4.84375 -1.441406 4.984375 -2.132812 4.984375 -3.09375 Z M 4.984375 -3.09375 "/></g></g></g><g fill="#47a0df" fill-opacity="1"><g transform="translate(107.084071, 339.786832)"><g><path d="M 2.390625 -0.453125 L 3.4375 -0.296875 L 3.4375 0 L 0.265625 0 L 0.265625 -0.296875 L 1.3125 -0.453125 L 1.3125 -8.78125 L 0.265625 -8.9375 L 0.265625 -9.234375 L 2.390625 -9.234375 Z M 2.390625 -0.453125 "/></g></g></g><g fill="#47a0df" fill-opacity="1"><g transform="translate(112.778824, 339.786832)"><g><path d="M 2.453125 -0.59375 C 2.453125 -0.382812 2.375 -0.203125 2.21875 -0.046875 C 2.070312 0.109375 1.890625 0.1875 1.671875 0.1875 C 1.441406 0.1875 1.25 0.109375 1.09375 -0.046875 C 0.945312 -0.203125 0.875 -0.382812 0.875 -0.59375 C 0.875 -0.8125 0.945312 -1 1.09375 -1.15625 C 1.25 -1.3125 1.441406 -1.390625 1.671875 -1.390625 C 1.890625 -1.390625 2.070312 -1.3125 2.21875 -1.15625 C 2.375 -1 2.453125 -0.8125 2.453125 -0.59375 Z M 2.453125 -0.59375 "/></g></g></g><g fill="#000000" fill-opacity="1"><g transform="translate(127.559678, 339.786832)"><g/></g></g><g fill="#99cc62" fill-opacity="1"><g transform="translate(132.667269, 339.786832)"><g><path d="M 5.453125 -3.4375 L 5.453125 -0.515625 L 6.828125 -0.34375 L 6.828125 0 L 2.8125 0 L 2.8125 -0.34375 L 4.1875 -0.515625 L 4.1875 -3.390625 L 1.125 -8.203125 L 0.15625 -8.375 L 0.15625 -8.71875 L 3.828125 -8.71875 L 3.828125 -8.375 L 2.671875 -8.203125 L 5.171875 -4.171875 L 7.546875 -8.203125 L 6.4375 -8.375 L 6.4375 -8.71875 L 9.28125 -8.71875 L 9.28125 -8.375 L 8.328125 -8.203125 Z M 5.453125 -3.4375 "/></g></g></g><g fill="#99cc62" fill-opacity="1"><g transform="translate(141.886704, 339.786832)"><g><path d="M 6.15625 -3.09375 C 6.15625 -0.945312 5.203125 0.125 3.296875 0.125 C 2.367188 0.125 1.671875 -0.144531 1.203125 -0.6875 C 0.734375 -1.238281 0.5 -2.039062 0.5 -3.09375 C 0.5 -4.125 0.734375 -4.910156 1.203125 -5.453125 C 1.671875 -5.992188 2.382812 -6.265625 3.34375 -6.265625 C 4.269531 -6.265625 4.96875 -6 5.4375 -5.46875 C 5.914062 -4.9375 6.15625 -4.144531 6.15625 -3.09375 Z M 4.984375 -3.09375 C 4.984375 -4.019531 4.84375 -4.691406 4.5625 -5.109375 C 4.289062 -5.535156 3.867188 -5.75 3.296875 -5.75 C 2.722656 -5.75 2.304688 -5.546875 2.046875 -5.140625 C 1.796875 -4.742188 1.671875 -4.0625 1.671875 -3.09375 C 1.671875 -2.101562 1.800781 -1.40625 2.0625 -1 C 2.320312 -0.59375 2.734375 -0.390625 3.296875 -0.390625 C 3.859375 -0.390625 4.28125 -0.597656 4.5625 -1.015625 C 4.84375 -1.441406 4.984375 -2.132812 4.984375 -3.09375 Z M 4.984375 -3.09375 "/></g></g></g><g fill="#99cc62" fill-opacity="1"><g transform="translate(150.538036, 339.786832)"><g><path d="M 2.03125 -1.734375 C 2.03125 -0.992188 2.378906 -0.625 3.078125 -0.625 C 3.609375 -0.625 4.109375 -0.691406 4.578125 -0.828125 L 4.578125 -5.65625 L 3.65625 -5.8125 L 3.65625 -6.109375 L 5.65625 -6.109375 L 5.65625 -0.453125 L 6.421875 -0.296875 L 6.421875 0 L 4.640625 0 L 4.59375 -0.5 C 4.289062 -0.320312 3.9375 -0.171875 3.53125 -0.046875 C 3.125 0.0664062 2.785156 0.125 2.515625 0.125 C 1.472656 0.125 0.953125 -0.472656 0.953125 -1.671875 L 0.953125 -5.65625 L 0.171875 -5.8125 L 0.171875 -6.109375 L 2.03125 -6.109375 Z M 2.03125 -1.734375 "/></g></g></g><g fill="#99cc62" fill-opacity="1"><g transform="translate(159.189367, 339.786832)"><g><path d="M 4.3125 -6.265625 L 4.3125 -4.625 L 4.03125 -4.625 L 3.65625 -5.34375 C 3.4375 -5.34375 3.175781 -5.3125 2.875 -5.25 C 2.582031 -5.1875 2.332031 -5.109375 2.125 -5.015625 L 2.125 -0.453125 L 3.171875 -0.296875 L 3.171875 0 L 0.265625 0 L 0.265625 -0.296875 L 1.046875 -0.453125 L 1.046875 -5.65625 L 0.265625 -5.8125 L 0.265625 -6.109375 L 2.046875 -6.109375 L 2.109375 -5.34375 C 2.367188 -5.5625 2.71875 -5.769531 3.15625 -5.96875 C 3.601562 -6.164062 3.957031 -6.265625 4.21875 -6.265625 Z M 4.3125 -6.265625 "/></g></g></g><g fill="#99cc62" fill-opacity="1"><g transform="translate(165.618392, 339.786832)"><g/></g></g><g fill="#99cc62" fill-opacity="1"><g transform="translate(170.942761, 339.786832)"><g><path d="M 5.5 -0.375 C 5.289062 -0.21875 5 -0.09375 4.625 0 C 4.25 0.0820312 3.867188 0.125 3.484375 0.125 C 1.492188 0.125 0.5 -0.945312 0.5 -3.09375 C 0.5 -4.113281 0.75 -4.894531 1.25 -5.4375 C 1.757812 -5.988281 2.488281 -6.265625 3.4375 -6.265625 C 4.019531 -6.265625 4.65625 -6.203125 5.34375 -6.078125 L 5.34375 -4.375 L 5 -4.375 L 4.71875 -5.453125 C 4.351562 -5.648438 3.921875 -5.75 3.421875 -5.75 C 2.253906 -5.75 1.671875 -4.863281 1.671875 -3.09375 C 1.671875 -2.175781 1.847656 -1.519531 2.203125 -1.125 C 2.554688 -0.738281 3.101562 -0.546875 3.84375 -0.546875 C 4.476562 -0.546875 5.03125 -0.617188 5.5 -0.765625 Z M 5.5 -0.375 "/></g></g></g><g fill="#99cc62" fill-opacity="1"><g transform="translate(178.846825, 339.786832)"><g><path d="M 2.125 -6.59375 C 2.125 -6.144531 2.109375 -5.816406 2.078125 -5.609375 C 2.390625 -5.785156 2.742188 -5.9375 3.140625 -6.0625 C 3.535156 -6.195312 3.867188 -6.265625 4.140625 -6.265625 C 4.671875 -6.265625 5.066406 -6.109375 5.328125 -5.796875 C 5.597656 -5.492188 5.734375 -5.050781 5.734375 -4.46875 L 5.734375 -0.453125 L 6.484375 -0.296875 L 6.484375 0 L 3.84375 0 L 3.84375 -0.296875 L 4.65625 -0.453125 L 4.65625 -4.390625 C 4.65625 -5.140625 4.296875 -5.515625 3.578125 -5.515625 C 3.171875 -5.515625 2.6875 -5.453125 2.125 -5.328125 L 2.125 -0.453125 L 2.9375 -0.296875 L 2.9375 0 L 0.265625 0 L 0.265625 -0.296875 L 1.046875 -0.453125 L 1.046875 -8.78125 L 0.125 -8.9375 L 0.125 -9.234375 L 2.125 -9.234375 Z M 2.125 -6.59375 "/></g></g></g><g fill="#99cc62" fill-opacity="1"><g transform="translate(187.498157, 339.786832)"><g><path d="M 2.46875 -8.109375 C 2.46875 -7.910156 2.394531 -7.742188 2.25 -7.609375 C 2.113281 -7.472656 1.945312 -7.40625 1.75 -7.40625 C 1.5625 -7.40625 1.394531 -7.472656 1.25 -7.609375 C 1.113281 -7.742188 1.046875 -7.910156 1.046875 -8.109375 C 1.046875 -8.296875 1.113281 -8.457031 1.25 -8.59375 C 1.394531 -8.738281 1.5625 -8.8125 1.75 -8.8125 C 1.945312 -8.8125 2.113281 -8.738281 2.25 -8.59375 C 2.394531 -8.457031 2.46875 -8.296875 2.46875 -8.109375 Z M 2.40625 -0.453125 L 3.4375 -0.296875 L 3.4375 0 L 0.28125 0 L 0.28125 -0.296875 L 1.3125 -0.453125 L 1.3125 -5.65625 L 0.453125 -5.8125 L 0.453125 -6.109375 L 2.40625 -6.109375 Z M 2.40625 -0.453125 "/></g></g></g><g fill="#99cc62" fill-opacity="1"><g transform="translate(193.19291, 339.786832)"><g><path d="M 2.390625 -0.453125 L 3.4375 -0.296875 L 3.4375 0 L 0.265625 0 L 0.265625 -0.296875 L 1.3125 -0.453125 L 1.3125 -8.78125 L 0.265625 -8.9375 L 0.265625 -9.234375 L 2.390625 -9.234375 Z M 2.390625 -0.453125 "/></g></g></g><g fill="#99cc62" fill-opacity="1"><g transform="translate(198.887664, 339.786832)"><g><path d="M 4.703125 -0.453125 C 4.210938 -0.0664062 3.640625 0.125 2.984375 0.125 C 1.316406 0.125 0.484375 -0.914062 0.484375 -3 C 0.484375 -4.070312 0.71875 -4.882812 1.1875 -5.4375 C 1.65625 -5.988281 2.351562 -6.265625 3.28125 -6.265625 C 3.75 -6.265625 4.222656 -6.21875 4.703125 -6.125 C 4.671875 -6.269531 4.65625 -6.628906 4.65625 -7.203125 L 4.65625 -8.78125 L 3.640625 -8.9375 L 3.640625 -9.234375 L 5.734375 -9.234375 L 5.734375 -0.453125 L 6.5 -0.296875 L 6.5 0 L 4.78125 0 Z M 1.65625 -3 C 1.65625 -2.175781 1.789062 -1.5625 2.0625 -1.15625 C 2.34375 -0.75 2.769531 -0.546875 3.34375 -0.546875 C 3.832031 -0.546875 4.269531 -0.628906 4.65625 -0.796875 L 4.65625 -5.625 C 4.269531 -5.695312 3.832031 -5.734375 3.34375 -5.734375 C 2.21875 -5.734375 1.65625 -4.820312 1.65625 -3 Z M 1.65625 -3 "/></g></g></g><g fill="#99cc62" fill-opacity="1"><g transform="translate(214.318434, 339.786832)"><g><path d="M 4.3125 -6.265625 L 4.3125 -4.625 L 4.03125 -4.625 L 3.65625 -5.34375 C 3.4375 -5.34375 3.175781 -5.3125 2.875 -5.25 C 2.582031 -5.1875 2.332031 -5.109375 2.125 -5.015625 L 2.125 -0.453125 L 3.171875 -0.296875 L 3.171875 0 L 0.265625 0 L 0.265625 -0.296875 L 1.046875 -0.453125 L 1.046875 -5.65625 L 0.265625 -5.8125 L 0.265625 -6.109375 L 2.046875 -6.109375 L 2.109375 -5.34375 C 2.367188 -5.5625 2.71875 -5.769531 3.15625 -5.96875 C 3.601562 -6.164062 3.957031 -6.265625 4.21875 -6.265625 Z M 4.3125 -6.265625 "/></g></g></g><g fill="#99cc62" fill-opacity="1"><g transform="translate(220.644348, 339.786832)"><g><path d="M 1.6875 -3.078125 L 1.6875 -2.953125 C 1.6875 -2.359375 1.753906 -1.894531 1.890625 -1.5625 C 2.023438 -1.226562 2.226562 -0.972656 2.5 -0.796875 C 2.769531 -0.628906 3.128906 -0.546875 3.578125 -0.546875 C 3.816406 -0.546875 4.09375 -0.5625 4.40625 -0.59375 C 4.726562 -0.632812 4.992188 -0.679688 5.203125 -0.734375 L 5.203125 -0.375 C 4.992188 -0.238281 4.710938 -0.117188 4.359375 -0.015625 C 4.003906 0.078125 3.640625 0.125 3.265625 0.125 C 2.316406 0.125 1.617188 -0.128906 1.171875 -0.640625 C 0.734375 -1.148438 0.515625 -1.96875 0.515625 -3.09375 C 0.515625 -4.164062 0.738281 -4.960938 1.1875 -5.484375 C 1.632812 -6.003906 2.269531 -6.265625 3.09375 -6.265625 C 4.664062 -6.265625 5.453125 -5.378906 5.453125 -3.609375 L 5.453125 -3.078125 Z M 3.09375 -5.75 C 2.644531 -5.75 2.300781 -5.566406 2.0625 -5.203125 C 1.820312 -4.835938 1.703125 -4.300781 1.703125 -3.59375 L 4.3125 -3.59375 C 4.3125 -4.375 4.210938 -4.925781 4.015625 -5.25 C 3.816406 -5.582031 3.507812 -5.75 3.09375 -5.75 Z M 3.09375 -5.75 "/></g></g></g><g fill="#99cc62" fill-opacity="1"><g transform="translate(228.548413, 339.786832)"><g><path d="M 2.109375 -5.609375 C 2.441406 -5.804688 2.796875 -5.960938 3.171875 -6.078125 C 3.546875 -6.203125 3.859375 -6.265625 4.109375 -6.265625 C 4.640625 -6.265625 5.039062 -6.109375 5.3125 -5.796875 C 5.582031 -5.492188 5.71875 -5.050781 5.71875 -4.46875 L 5.71875 -0.453125 L 6.453125 -0.296875 L 6.453125 0 L 3.828125 0 L 3.828125 -0.296875 L 4.640625 -0.453125 L 4.640625 -4.359375 C 4.640625 -4.710938 4.550781 -4.992188 4.375 -5.203125 C 4.195312 -5.410156 3.925781 -5.515625 3.5625 -5.515625 C 3.164062 -5.515625 2.6875 -5.453125 2.125 -5.328125 L 2.125 -0.453125 L 2.9375 -0.296875 L 2.9375 0 L 0.3125 0 L 0.3125 -0.296875 L 1.046875 -0.453125 L 1.046875 -5.65625 L 0.3125 -5.8125 L 0.3125 -6.109375 L 2.046875 -6.109375 Z M 2.109375 -5.609375 "/></g></g></g><g fill="#99cc62" fill-opacity="1"><g transform="translate(237.199745, 339.786832)"><g><path d="M 2.453125 -0.59375 C 2.453125 -0.382812 2.375 -0.203125 2.21875 -0.046875 C 2.070312 0.109375 1.890625 0.1875 1.671875 0.1875 C 1.441406 0.1875 1.25 0.109375 1.09375 -0.046875 C 0.945312 -0.203125 0.875 -0.382812 0.875 -0.59375 C 0.875 -0.8125 0.945312 -1 1.09375 -1.15625 C 1.25 -1.3125 1.441406 -1.390625 1.671875 -1.390625 C 1.890625 -1.390625 2.070312 -1.3125 2.21875 -1.15625 C 2.375 -1 2.453125 -0.8125 2.453125 -0.59375 Z M 2.453125 -0.59375 "/></g></g></g><g fill="#000000" fill-opacity="1"><g transform="translate(245.209981, 339.786832)"><g/></g></g><g fill="#ec8a3b" fill-opacity="1"><g transform="translate(250.610442, 339.786832)"><g><path d="M 1.90625 -4.375 C 1.90625 -2.96875 2.140625 -1.953125 2.609375 -1.328125 C 3.078125 -0.703125 3.804688 -0.390625 4.796875 -0.390625 C 5.796875 -0.390625 6.53125 -0.703125 7 -1.328125 C 7.46875 -1.953125 7.703125 -2.96875 7.703125 -4.375 C 7.703125 -5.757812 7.46875 -6.757812 7 -7.375 C 6.53125 -7.988281 5.796875 -8.296875 4.796875 -8.296875 C 3.796875 -8.296875 3.0625 -7.988281 2.59375 -7.375 C 2.132812 -6.757812 1.90625 -5.757812 1.90625 -4.375 Z M 0.546875 -4.375 C 0.546875 -7.332031 1.960938 -8.8125 4.796875 -8.8125 C 6.203125 -8.8125 7.265625 -8.4375 7.984375 -7.6875 C 8.703125 -6.9375 9.0625 -5.832031 9.0625 -4.375 C 9.0625 -2.882812 8.695312 -1.757812 7.96875 -1 C 7.25 -0.25 6.191406 0.125 4.796875 0.125 C 3.421875 0.125 2.367188 -0.25 1.640625 -1 C 0.910156 -1.757812 0.546875 -2.882812 0.546875 -4.375 Z M 0.546875 -4.375 "/></g></g></g><g fill="#ec8a3b" fill-opacity="1"><g transform="translate(262.218351, 339.786832)"><g><path d="M 2.109375 -5.609375 C 2.441406 -5.804688 2.796875 -5.960938 3.171875 -6.078125 C 3.546875 -6.203125 3.859375 -6.265625 4.109375 -6.265625 C 4.640625 -6.265625 5.039062 -6.109375 5.3125 -5.796875 C 5.582031 -5.492188 5.71875 -5.050781 5.71875 -4.46875 L 5.71875 -0.453125 L 6.453125 -0.296875 L 6.453125 0 L 3.828125 0 L 3.828125 -0.296875 L 4.640625 -0.453125 L 4.640625 -4.359375 C 4.640625 -4.710938 4.550781 -4.992188 4.375 -5.203125 C 4.195312 -5.410156 3.925781 -5.515625 3.5625 -5.515625 C 3.164062 -5.515625 2.6875 -5.453125 2.125 -5.328125 L 2.125 -0.453125 L 2.9375 -0.296875 L 2.9375 0 L 0.3125 0 L 0.3125 -0.296875 L 1.046875 -0.453125 L 1.046875 -5.65625 L 0.3125 -5.8125 L 0.3125 -6.109375 L 2.046875 -6.109375 Z M 2.109375 -5.609375 "/></g></g></g><g fill="#ec8a3b" fill-opacity="1"><g transform="translate(270.869683, 339.786832)"><g><path d="M 1.6875 -3.078125 L 1.6875 -2.953125 C 1.6875 -2.359375 1.753906 -1.894531 1.890625 -1.5625 C 2.023438 -1.226562 2.226562 -0.972656 2.5 -0.796875 C 2.769531 -0.628906 3.128906 -0.546875 3.578125 -0.546875 C 3.816406 -0.546875 4.09375 -0.5625 4.40625 -0.59375 C 4.726562 -0.632812 4.992188 -0.679688 5.203125 -0.734375 L 5.203125 -0.375 C 4.992188 -0.238281 4.710938 -0.117188 4.359375 -0.015625 C 4.003906 0.078125 3.640625 0.125 3.265625 0.125 C 2.316406 0.125 1.617188 -0.128906 1.171875 -0.640625 C 0.734375 -1.148438 0.515625 -1.96875 0.515625 -3.09375 C 0.515625 -4.164062 0.738281 -4.960938 1.1875 -5.484375 C 1.632812 -6.003906 2.269531 -6.265625 3.09375 -6.265625 C 4.664062 -6.265625 5.453125 -5.378906 5.453125 -3.609375 L 5.453125 -3.078125 Z M 3.09375 -5.75 C 2.644531 -5.75 2.300781 -5.566406 2.0625 -5.203125 C 1.820312 -4.835938 1.703125 -4.300781 1.703125 -3.59375 L 4.3125 -3.59375 C 4.3125 -4.375 4.210938 -4.925781 4.015625 -5.25 C 3.816406 -5.582031 3.507812 -5.75 3.09375 -5.75 Z M 3.09375 -5.75 "/></g></g></g><g fill="#ec8a3b" fill-opacity="1"><g transform="translate(278.773747, 339.786832)"><g/></g></g><g fill="#ec8a3b" fill-opacity="1"><g transform="translate(284.098116, 339.786832)"><g><path d="M 0.984375 -5.65625 L 0.296875 -5.8125 L 0.296875 -6.109375 L 2.015625 -6.109375 L 2.015625 -5.75 C 2.203125 -5.90625 2.445312 -6.03125 2.75 -6.125 C 3.0625 -6.21875 3.375 -6.265625 3.6875 -6.265625 C 4.46875 -6.265625 5.070312 -5.992188 5.5 -5.453125 C 5.925781 -4.910156 6.140625 -4.132812 6.140625 -3.125 C 6.140625 -2.09375 5.90625 -1.289062 5.4375 -0.71875 C 4.96875 -0.15625 4.296875 0.125 3.421875 0.125 C 2.929688 0.125 2.460938 0.078125 2.015625 -0.015625 C 2.046875 0.296875 2.0625 0.539062 2.0625 0.71875 L 2.0625 2.375 L 3.125 2.53125 L 3.125 2.828125 L 0.21875 2.828125 L 0.21875 2.53125 L 0.984375 2.375 Z M 4.96875 -3.125 C 4.96875 -3.957031 4.832031 -4.578125 4.5625 -4.984375 C 4.289062 -5.390625 3.878906 -5.59375 3.328125 -5.59375 C 2.816406 -5.59375 2.394531 -5.519531 2.0625 -5.375 L 2.0625 -0.5 C 2.445312 -0.425781 2.867188 -0.390625 3.328125 -0.390625 C 4.421875 -0.390625 4.96875 -1.300781 4.96875 -3.125 Z M 4.96875 -3.125 "/></g></g></g><g fill="#ec8a3b" fill-opacity="1"><g transform="translate(292.749448, 339.786832)"><g><path d="M 2.390625 -0.453125 L 3.4375 -0.296875 L 3.4375 0 L 0.265625 0 L 0.265625 -0.296875 L 1.3125 -0.453125 L 1.3125 -8.78125 L 0.265625 -8.9375 L 0.265625 -9.234375 L 2.390625 -9.234375 Z M 2.390625 -0.453125 "/></g></g></g><g fill="#ec8a3b" fill-opacity="1"><g transform="translate(304.392429, 339.786832)"><g><path d="M 3.015625 -6.25 C 3.691406 -6.25 4.1875 -6.109375 4.5 -5.828125 C 4.8125 -5.554688 4.96875 -5.140625 4.96875 -4.578125 L 4.96875 -0.453125 L 5.734375 -0.296875 L 5.734375 0 L 4.046875 0 L 3.921875 -0.609375 C 3.429688 -0.117188 2.800781 0.125 2.03125 0.125 C 0.988281 0.125 0.46875 -0.476562 0.46875 -1.6875 C 0.46875 -2.09375 0.546875 -2.425781 0.703125 -2.6875 C 0.859375 -2.957031 1.109375 -3.160156 1.453125 -3.296875 C 1.804688 -3.441406 2.3125 -3.523438 2.96875 -3.546875 L 3.890625 -3.5625 L 3.890625 -4.53125 C 3.890625 -4.945312 3.8125 -5.253906 3.65625 -5.453125 C 3.5 -5.648438 3.257812 -5.75 2.9375 -5.75 C 2.507812 -5.75 2.113281 -5.648438 1.75 -5.453125 L 1.53125 -4.6875 L 1.171875 -4.6875 L 1.171875 -6.015625 C 1.867188 -6.171875 2.484375 -6.25 3.015625 -6.25 Z M 3.890625 -3.109375 L 3.03125 -3.09375 C 2.457031 -3.070312 2.066406 -2.957031 1.859375 -2.75 C 1.648438 -2.539062 1.546875 -2.203125 1.546875 -1.734375 C 1.546875 -0.960938 1.859375 -0.578125 2.484375 -0.578125 C 2.773438 -0.578125 3.023438 -0.609375 3.234375 -0.671875 C 3.453125 -0.742188 3.671875 -0.832031 3.890625 -0.9375 Z M 3.890625 -3.109375 "/></g></g></g><g fill="#ec8a3b" fill-opacity="1"><g transform="translate(313.857872, 339.786832)"><g><path d="M 2.171875 0.125 C 1.753906 0.125 1.441406 0.00390625 1.234375 -0.234375 C 1.023438 -0.484375 0.921875 -0.832031 0.921875 -1.28125 L 0.921875 -5.5625 L 0.125 -5.5625 L 0.125 -5.859375 L 0.9375 -6.109375 L 1.59375 -7.5 L 2.015625 -7.5 L 2.015625 -6.109375 L 3.40625 -6.109375 L 3.40625 -5.5625 L 2.015625 -5.5625 L 2.015625 -1.390625 C 2.015625 -1.109375 2.078125 -0.894531 2.203125 -0.75 C 2.328125 -0.613281 2.492188 -0.546875 2.703125 -0.546875 C 2.953125 -0.546875 3.257812 -0.582031 3.625 -0.65625 L 3.625 -0.234375 C 3.46875 -0.128906 3.242188 -0.046875 2.953125 0.015625 C 2.671875 0.0859375 2.410156 0.125 2.171875 0.125 Z M 2.171875 0.125 "/></g></g></g><g fill="#ec8a3b" fill-opacity="1"><g transform="translate(320.101788, 339.786832)"><g><path d="M 1.46875 -5.5625 L 0.40625 -5.5625 L 0.40625 -5.875 L 1.46875 -6.140625 L 1.46875 -6.5625 C 1.46875 -7.46875 1.644531 -8.160156 2 -8.640625 C 2.351562 -9.128906 2.851562 -9.375 3.5 -9.375 C 3.832031 -9.375 4.144531 -9.332031 4.4375 -9.25 L 4.4375 -7.921875 L 4.109375 -7.921875 L 3.828125 -8.71875 C 3.671875 -8.8125 3.492188 -8.859375 3.296875 -8.859375 C 3.015625 -8.859375 2.816406 -8.734375 2.703125 -8.484375 C 2.597656 -8.242188 2.546875 -7.789062 2.546875 -7.125 L 2.546875 -6.109375 L 4.171875 -6.109375 L 4.171875 -5.5625 L 2.546875 -5.5625 L 2.546875 -0.5 L 3.859375 -0.296875 L 3.859375 0 L 0.5625 0 L 0.5625 -0.296875 L 1.46875 -0.5 Z M 1.46875 -5.5625 "/></g></g></g><g fill="#ec8a3b" fill-opacity="1"><g transform="translate(326.041116, 339.786832)"><g><path d="M 6.15625 -3.09375 C 6.15625 -0.945312 5.203125 0.125 3.296875 0.125 C 2.367188 0.125 1.671875 -0.144531 1.203125 -0.6875 C 0.734375 -1.238281 0.5 -2.039062 0.5 -3.09375 C 0.5 -4.125 0.734375 -4.910156 1.203125 -5.453125 C 1.671875 -5.992188 2.382812 -6.265625 3.34375 -6.265625 C 4.269531 -6.265625 4.96875 -6 5.4375 -5.46875 C 5.914062 -4.9375 6.15625 -4.144531 6.15625 -3.09375 Z M 4.984375 -3.09375 C 4.984375 -4.019531 4.84375 -4.691406 4.5625 -5.109375 C 4.289062 -5.535156 3.867188 -5.75 3.296875 -5.75 C 2.722656 -5.75 2.304688 -5.546875 2.046875 -5.140625 C 1.796875 -4.742188 1.671875 -4.0625 1.671875 -3.09375 C 1.671875 -2.101562 1.800781 -1.40625 2.0625 -1 C 2.320312 -0.59375 2.734375 -0.390625 3.296875 -0.390625 C 3.859375 -0.390625 4.28125 -0.597656 4.5625 -1.015625 C 4.84375 -1.441406 4.984375 -2.132812 4.984375 -3.09375 Z M 4.984375 -3.09375 "/></g></g></g><g fill="#ec8a3b" fill-opacity="1"><g transform="translate(334.692447, 339.786832)"><g><path d="M 4.3125 -6.265625 L 4.3125 -4.625 L 4.03125 -4.625 L 3.65625 -5.34375 C 3.4375 -5.34375 3.175781 -5.3125 2.875 -5.25 C 2.582031 -5.1875 2.332031 -5.109375 2.125 -5.015625 L 2.125 -0.453125 L 3.171875 -0.296875 L 3.171875 0 L 0.265625 0 L 0.265625 -0.296875 L 1.046875 -0.453125 L 1.046875 -5.65625 L 0.265625 -5.8125 L 0.265625 -6.109375 L 2.046875 -6.109375 L 2.109375 -5.34375 C 2.367188 -5.5625 2.71875 -5.769531 3.15625 -5.96875 C 3.601562 -6.164062 3.957031 -6.265625 4.21875 -6.265625 Z M 4.3125 -6.265625 "/></g></g></g><g fill="#ec8a3b" fill-opacity="1"><g transform="translate(341.121472, 339.786832)"><g><path d="M 2.125 -5.609375 C 2.445312 -5.796875 2.789062 -5.953125 3.15625 -6.078125 C 3.519531 -6.203125 3.835938 -6.265625 4.109375 -6.265625 C 4.410156 -6.265625 4.6875 -6.207031 4.9375 -6.09375 C 5.195312 -5.988281 5.390625 -5.8125 5.515625 -5.5625 C 5.847656 -5.75 6.238281 -5.910156 6.6875 -6.046875 C 7.132812 -6.191406 7.503906 -6.265625 7.796875 -6.265625 C 8.835938 -6.265625 9.359375 -5.664062 9.359375 -4.46875 L 9.359375 -0.453125 L 10.140625 -0.296875 L 10.140625 0 L 7.375 0 L 7.375 -0.296875 L 8.28125 -0.453125 L 8.28125 -4.359375 C 8.28125 -5.097656 7.929688 -5.46875 7.234375 -5.46875 C 7.128906 -5.46875 7 -5.457031 6.84375 -5.4375 C 6.695312 -5.425781 6.546875 -5.410156 6.390625 -5.390625 C 6.242188 -5.367188 6.101562 -5.34375 5.96875 -5.3125 C 5.832031 -5.28125 5.71875 -5.257812 5.625 -5.25 C 5.695312 -5.007812 5.734375 -4.75 5.734375 -4.46875 L 5.734375 -0.453125 L 6.65625 -0.296875 L 6.65625 0 L 3.75 0 L 3.75 -0.296875 L 4.65625 -0.453125 L 4.65625 -4.359375 C 4.65625 -4.710938 4.5625 -4.984375 4.375 -5.171875 C 4.195312 -5.367188 3.925781 -5.46875 3.5625 -5.46875 C 3.175781 -5.46875 2.695312 -5.40625 2.125 -5.28125 L 2.125 -0.453125 L 3.046875 -0.296875 L 3.046875 0 L 0.28125 0 L 0.28125 -0.296875 L 1.046875 -0.453125 L 1.046875 -5.65625 L 0.28125 -5.8125 L 0.28125 -6.109375 L 2.0625 -6.109375 Z M 2.125 -5.609375 "/></g></g></g><g fill="#ec8a3b" fill-opacity="1"><g transform="translate(353.470151, 339.786832)"><g><path d="M 2.453125 -0.59375 C 2.453125 -0.382812 2.375 -0.203125 2.21875 -0.046875 C 2.070312 0.109375 1.890625 0.1875 1.671875 0.1875 C 1.441406 0.1875 1.25 0.109375 1.09375 -0.046875 C 0.945312 -0.203125 0.875 -0.382812 0.875 -0.59375 C 0.875 -0.8125 0.945312 -1 1.09375 -1.15625 C 1.25 -1.3125 1.441406 -1.390625 1.671875 -1.390625 C 1.890625 -1.390625 2.070312 -1.3125 2.21875 -1.15625 C 2.375 -1 2.453125 -0.8125 2.453125 -0.59375 Z M 2.453125 -0.59375 "/></g></g></g><path fill="#47a0df" d="M 107.664062 78.542969 L 107.664062 78.285156 C 107.664062 72.617188 112.261719 68.015625 117.933594 68.015625 L 200.792969 68.015625 C 209.742188 68.015625 216.996094 75.273438 216.996094 84.214844 L 216.996094 89.34375 C 216.996094 92.433594 215.785156 95.398438 213.628906 97.609375 L 183.246094 128.777344 C 179.902344 132.207031 174.445312 132.40625 170.863281 129.230469 L 169.285156 127.832031 C 165.484375 124.460938 165.234375 118.613281 168.734375 114.929688 L 192.980469 89.410156 L 117.851562 88.8125 C 112.210938 88.765625 107.664062 84.183594 107.664062 78.542969 Z M 107.664062 78.542969 " fill-opacity="1" fill-rule="nonzero"/><path fill="#99cc62" d="M 218.617188 189.585938 L 218.617188 189.84375 C 218.617188 195.511719 214.019531 200.113281 208.347656 200.113281 L 126.890625 200.113281 C 117.167969 200.113281 109.292969 192.230469 109.292969 182.515625 C 109.292969 177.042969 111.4375 171.78125 115.273438 167.875 L 151.929688 130.503906 C 155.664062 126.695312 161.734375 126.484375 165.726562 130.023438 C 169.984375 133.800781 170.25 140.363281 166.296875 144.46875 L 136.703125 175.203125 C 135.421875 176.535156 136.355469 178.753906 138.199219 178.769531 L 208.4375 179.328125 C 214.078125 179.375 218.621094 183.957031 218.621094 189.597656 Z M 218.617188 189.585938 " fill-opacity="1" fill-rule="nonzero"/><path fill="#ec8a3b" d="M 269.253906 68.015625 L 270.835938 68.015625 C 275.976562 68.015625 280.140625 72.179688 280.140625 77.324219 L 280.140625 79.988281 C 280.140625 81.890625 279.398438 83.714844 278.066406 85.070312 L 232.234375 131.824219 C 230.5625 133.527344 230.578125 136.261719 232.273438 137.945312 L 277.753906 183.121094 C 279.28125 184.640625 280.140625 186.703125 280.140625 188.855469 L 280.140625 190.871094 C 280.140625 195.585938 276.324219 199.410156 271.605469 199.410156 L 268.527344 199.410156 C 266.394531 199.410156 264.351562 198.570312 262.835938 197.074219 L 212.316406 147.078125 C 205.523438 140.355469 205.460938 129.398438 212.1875 122.597656 L 264.085938 70.167969 C 265.449219 68.792969 267.308594 68.015625 269.246094 68.015625 Z M 269.253906 68.015625 " fill-opacity="1" fill-rule="nonzero"/></svg>